<mxfile host="app.diagrams.net" modified="2024-01-01T00:00:00.000Z" agent="AWS Architecture Diagram Generator" version="22.1.11" etag="generated" type="device">
  <diagram name="serverless_analytics_pipeline_777" id="generated-diagram">
    <mxGraphModel dx="1422" dy="794" grid="1" gridSize="10" guides="1" tooltips="1" connect="1" arrows="1" fold="1" page="1" pageScale="1" pageWidth="827" pageHeight="1169" math="0" shadow="0">
      <root>
        <mxCell id="0" />
        <mxCell id="1" parent="0" />
        <mxCell id="2" value="" style="image;html=1;image=data:image/png;base64,iVBORw0KGgoAAAANSUhEUgAABvIAAAKiCAIAAACLrtxuAAAABmJLR0QA/wD/AP+gvaeTAAAgAElEQVR4nOzdeXwcZeHH8WfP3GeTNmeT3ielB5SrpaUgIkiBcoiA+PspKPw4VFAQRUERtcihCCIgIAIi92E5CgVaKKVnet9pm+a+772P+f2xyWbn2E3SJN3M5vN+vdLMzs4z88wzs8888+1m1yBJkgAAAAAAAAAA/TBGuwIAAAAAAAAA0D/EmgAAAAAAAAB0hlgTAAAAAAAAgM4QawIAAAAAAADQGWJNAAAAAAAAADpDrAkAAAAAAABAZ4g1AQAAAAAAAOgMsSYAAAAAAAAAnSHWBAAAAAAAAKAzxJoAAAAAAAAAdIZYEwAAAAAAAIDOEGsCAAAAAAAA0BliTQAAAAAAAAA6Q6wJAAAAAAAAQGeINQEAAAAAAADoDLEmAAAAAAAAAJ0h1gQAAAAAAACgM8SaAAAAAAAAAHSGWBMAAAAAAACAzhBrAgAAAAAAANAZYk0AAAAAAAAAOkOsCQAAAAAAAEBniDUBAAAAAAAA6AyxJgAAAAAAAACdIdYEAAAAAAAAoDPEmgAAAAAAAAB0hlgTAAAAAAAAgM4QawIAAAAAAADQGWJNAAAAAAAAADpDrAkAAAAAAABAZ4g1AQAAAAAAAOgMsSYAAAAAAAAAnSHWBAAAAAAAAKAzxJoAAAAAAAAAdIZYEwAAAAAAAIDOEGsCAAAAAAAA0BliTQAAAAAAAAA6Q6wJAAAAAAAAQGeINQEAAAAAAADoDLEmAAAAAAAAAJ0h1gQAAAAAAACgM8SaAAAAAAAAAHSGWBMAAAAAAACAzhBrAgAAAAAAANAZYk0AAAAAAAAAOkOsCQAAAAAAAEBniDUBAAAAAAAA6AyxJgAAAAAAAACdIdYEAAAAAAAAoDPEmgAAAAAAAAB0hlgTAAAAAAAAgM4QawIAAAAAAADQGWJNAAAAAAAAADpDrAkAAAAAAABAZ4g1AQAAAAAAAOgMsSYAAAAAAAAAnSHWBAAAAAAAAKAzxJoAAAAAAAAAdIZYEwAAAAAAAIDOEGsCAAAAAAAA0BliTQAAAAAAAAA6Q6wJAAAAAAAAQGeINQEAAAAAAADoDLEmAAAAAAAAAJ0h1gQAAAAAAACgM8SaAAAAAAAAAHSGWBMAAAAAAACAzhBrAgAAAAAAANAZYk0AAAAAAAAAOkOsCQAAAAAAAEBniDUBAAAAAAAA6AyxJgAAAAAAAACdIdYEAAAAAAAAoDPEmgAAAAAAAAB0hlgTAAAAAAAAgM4QawIAAAAAAADQGWJNAAAAAAAAADpDrAkAAAAAAABAZ4g1AQAAAAAAAOgMsSYAAAAAAAAAnSHWBAAAAAAAAKAzxJoAAAAAAAAAdIZYEwAAAAAAAIDOEGsCAAAAAAAA0BliTQAAAAAAAAA6Q6wJAAAAAAAAQGeINQEAAAAAAADoDLEmAAAAAAAAAJ0h1gQAAAAAAACgM8SaAAAAAAAAAHSGWBMAAAAAAACAzhBrAgAAAAAAANAZYk0AAAAAAAAAOkOsCQAAAAAAAEBniDUBAAAAAAAA6AyxJgAAAAAAAACdIdYEAAAAAAAAoDPEmgAAAAAAAAB0hlgTAAAAAAAAgM4QawIAAAAAAADQGWJNAAAAAAAAADpDrAkAAAAAAABAZ4g1AQAAAAAAAOgMsSYAAAAAAAAAnSHWBAAAAAAAAKAzxJoAAAAAAAAAdIZYEwAAAAAAAIDOEGsCAAAAAAAA0BliTQAAAAAAAAA6Q6wJAAAAAAAAQGeINQEAAAAAAADoDLEmAAAAAAAAAJ0h1gQAAAAAAACgM8SaAAAAAAAAAHSGWBMAAAAAAACAzhBrAgAAAAAAANAZYk0AAAAAAAAAOkOsCQAAAAAAAEBniDUBAAAAAAAA6AyxJgAAAAAAAACdIdYEAAAAAAAAoDPEmgAAAAAAAAB0hlgTAAAAAAAAgM4QawIAAAAAAADQGWJNAAAAAAAAADpDrAkAAAAAAABAZ4g1AQAAAAAAAOgMsSYAAAAAAAAAnSHWBAAAAAAAAKAzxJoAAAAAAAAAdIZYEwAAAAAAAIDOEGsCAAAAAAAA0BliTQAAAAAAAAA6Q6wJAAAAAAAAQGeINQEAAAAAAADoDLEmAAAAAAAAAJ0h1gQAAAAAAACgM8SaAAAAAAAAAHSGWBMAAAAAAACAzhBrAgAAAAAAANAZYk0AAAAAAAAAOkOsCQAAAAAAAEBniDUBAAAAAAAA6AyxJgAAAAAAAACdIdYEAAAAAAAAoDPEmgAAAAAAAAB0hlgTAAAAAAAAgM4QawIAAAAAAADQGWJNAAAAAAAAADpDrAkAAAAAAABAZ4g1AQAAAAAAAOgMsSYAAAAAAAAAnSHWBAAAAAAAAKAzxJoAAAAAAAAAdIZYEwAAAAAAAIDOEGsCAAAAAAAA0BliTQAAAAAAAAA6Q6wJAAAAAAAAQGeINQEAAAAAAADoDLEmAAAAAAAAAJ0h1gQAAAAAAACgM8SaAAAAAAAAAHSGWBMAAAAAAACAzhBrAgAAAAAAANAZYk0AAAAAAAAAOkOsCQAAAAAAAEBniDUBAAAAAAAA6AyxJgAAAAAAAACdIdYEAAAAAAAAoDPEmgAAAAAAAAB0hlgTAAAAAAAAgM4QawIAAAAAAADQGWJNAAAAAAAAADpDrAkAAAAAAABAZ4g1AQAAAAAAAOgMsSYAAAAAAAAAnSHWBAAAAAAAAKAzxJoAAAAAAAAAdIZYEwAAAAAAAIDOEGsCAAAAAAAA0BliTQAAAAAAAAA6Q6wJAAAAAAAAQGeINQEAAAAAAADoDLEmAAAAAAAAAJ0h1gQAAAAAAACgM8SaAAAAAAAAAHSGWBMAAAAAAACAzhBrAgAAAAAAANAZYk0AAAAAAAAAOkOsCQAAAAAAAEBniDUBAAAAAAAA6AyxJgAAAAAAAACdIdYEAAAAAAAAoDPEmgAAAAAAAAB0hlgTAAAAAAAAgM4QawIAAAAAAADQGWJNAAAAAAAAADpDrAkAAAAAAABAZ4g1AQAAAAAAAOgMsSYAAAAAAAAAnSHWBAAAAAAAAKAz5mhXAAB65/f76xtb6hqamts6bHaH1+uVJCnalQIwJEwmk8ViTktJzspIyxmTlZqcFO0aDQmPx1vb0FTf2Nza3ulwOj0eb7RrBGComM0mq9WanpqcPSojd3RWQnxctGs0JBxOV019Y0NTS2t7p9vt9np90a4RgKFisZgT4uPTU5NHZ2XmZI+yWEiWEDUGogEAw5nP5ztwuPxwebXb7U5OSUlOTY1PTDSbLQZDtGsGYGj4/X6Px23v6GxvbXW73ZnpaVMnFo/Jzox2vQaN0+Xee/BIRXWdJEkpaalJySnWhASLmfsBIGb5fD63y2Xr7GhvbfX7/DmjR02bNC4tJTna9Ro0bR2dew8eqa1vMpqMqenpSckp1rg4k8kU7XoBGCoer9ftcNg6Ozra2g0GQ2HemGmTxsXHWaNdL4xExJoAhq/Kmrqd+w55fb4xefmjc3OtcbH57gYA4bS3ttZWVbY0NuWMHjVr2qSkxIRo12hA/H5/aVnl/kNlJrMlt6AwK2e0yUSaCYwgkt/f0tRUU1Fp6+wYV5g3bfI4q8US7UoNiNvj2XvgyJGK6qTklNzCgoxRowxGPuUMGEF8Pm9jbX1NZYXP65kyoXhicYGRTgDHF7EmgOHI5/Nt2r6ntr4pOyenYNw4i84H/QAGor219WhpqcvhmHPC1MK8MdGuzjFyOF3rtuzotDnyCgtzCwqNJgb9wMjVWFdXcfiwwSBOnTszMz0t2tU5Rs2tbetLdkmSKBw/PmuMXjtnAAPn9/lrKiuqKyqSkxJOnzcrVj9qA8MTsSaAYcfhdK3fssPmcE2aMSMlTa9jfQCDSJKkiiNHaioqpkwonj55XLSr028tbe3rt+w0mi2TZ86Mi4+PdnUARJ/P5y3du6+jpWXurKkFufrLBCtr6kp27EvJyJg4bSpvPAcghHA5nQd27fJ7PafOOyEjLTXa1cFIQawJYHhxulyr120RJvMUbv4ByDXU1pYdPFhUkDt7xuRo16Ufmlvb1m7clpKWPnH6dD5sDkCQJEnlRw7XVlTOmTmluDAv2tXph7KK6q279ucUFowdN97A550D6Obz+Ur37Oloa10wf7Z+34oOfeEPoAAMIz6f76stO4XJNGP2bDJNAArZOTkTp00vq6guLauIdl36yu5wrt+yKzU9Y/LMmWSaAEIZDIai8RPyi4q27z7Q0NQS7er0VUNTy/bdB/KLiorGTyDTBBDKZDJNnjkzNT3jqy277A5ntKuDEYFYE8AwsmXH3k67c8qMmSa+FBiAloysUYXjx+3ad6iuoSnademdz+dbt2WH2WqdMG0aN/8ANBUUF2dkZ2/Yustmd0S7Lr2z2R0btu7KyM4uKC6Odl0ADEcGg2HCtGlmq3Xdlh0+ny/a1UHsI9YEMFxU1zVU1TZMnjE9LkHfX3YMYEjlFhSOys7etvvA8B8r7z901OF08T5NAJGNnzLFGhe/ffeBaFekd9t3H7DGxY+fMiXaFQEwfJlMpikzZzqcrv2Hjka7Loh9vB8KwLDg8/t37C3NHjMmJS1dewGv967bbw1MG42mvIKC4nETzvn6eYlJyUNSH6/3rttv/d4P/m/qjJlDsf5etba0rHz/v+cvvTglhc/bBpTGTpywY9OmA4fLp00avl8fZLM7So9UFIwfb43T/j7Q/fv2PPPEY4HpuLj4wuLiyZOnnbnkbKNxSP7XOXRziUlJxeMnXnTp5RkZmUOxrWNQemD/rh3bL77simhXBIgCo9FYPHHi7m3bauobc0dnRbs6YdXUNdY1Nk878cTI3ZTf71/3xecH9+8tO3IoPj4hr6BwwaLFEyYO9DOR/3jfr5sbG++693ehHdcHK945uH/frbffOcCVAxhc1ri4/LHFB48cHpufm5zEe1YwhHi3JoBh4VBZpdvjKRwfNqHw+/07tm0dWzx+8dnnnnrGQiFJr//npeuvvWrrlk1DUZ/A5trb24di5X2xY1vJc089sW/37mhVABjOLBZrfmHRwSPlDqcr2nUJa/f+w9aEhDF5Yb8GpLO9Y8e2racvXLz47HNPmD2ntan5zw/+4fabb6itqR6K+oRubsLEyZ9/tuq6a648evTIUGzrGHzw3rtPPf4Xu8Me7YoA0ZGclpY1evSOvaXD9gtdJUnasa80a/To1HTt/4EOqKmuuuPHNz39t0fb2lpPOHHO6DE5+3bv+sO9vx7g1o+WHV67ZnXp/v1fffF56Pza6urS/fsHuHIAQ2FMfl5cQsKeA4ejXRHEON6tCSD6JEk6dLRydE6exar9nqag+aeePv+00wPTNrvt4d/fd/89v3z2pVdTw7zHM+C731r2rauvPX/pxYNW4yGgqOSCRWc99a+XC8cWRbdWwLA1Jj+vuqKirKJ6eL5h0+F0Vdc1TJja+0dqnnfBhfHdn7xRXVlxz113PPiH+x589IkIRepqa7/7rUv+8eJ/Cgr73UUEN3fZldfcdP21Tz76yO8ferS/KxkKP7jxlsuu+HZiQmK0KwJETUFx8baNG+samnKG5Rs2axua7HbH5JknRFjG6/H88mc/mTZj5v0PPBL63Y9+v3+AW1/9yaq5J52clpaxds2nw3xEByDAYDDkjy06tG+vw+lKiO/lLg84ZrxbE0D0NTa3Op2u0bm5/SqVlJj04zt/4fdL//7Xc0NUsSgyGo1ji4r5jhEgHIPRmDVmTEVNfbQroq2yps5sMmdmjepXqbyCwpt/8tNd27etk78daSgkJCZceNGle3bvGiZvDYuLj8/NL4h2LYBoiktISMtIr6gert1adV1aRnrkD0B//dWXfV7Pj3/689BMUwgx8M/WWPPpxwsXLzltwZnbt5Z0dETtj2kA9Etm1iizyVw5XEdriA28WxNA9NU3NicmJsYn9vtTV1JSUheddfbePbuFEHZb52erPt67a0dbW1tufv5Fyy7PLxwrhPjNL++oq6159KHlqz/56Oyvn//1878Zbslw6mprnnv6iW9f+7+ffPjB0bLD+YVjL7vy6szMrrTC7/d/8N93tm/dkpycfMrpC7eVbFp8zrlTpk4XQvh8vvfeeWvnjq1mk/m0BWeeedbZgSK7d27/ZOUHDfX1OXl5M2fNXrTkHHUl62prHvrDfb/+3fLklJRAqU9XrSzZtNHpsE+bccLSSy6zWK291g2IbemjMmsqK2x2R1L/e4+hVtfQnJaZYej/nfyJc+flFRTu27Pr9IVn1tXWfrLy/SNHDnnc7omTp15y2RVJySl1tTV3/OgmIcQdt95UMHbsD2760cTJUzSX7HVb2Tk5bpfL6/Fs2rD+cOmB0xae+dH7K5oaGn5y191JiUlul+udN1/bv3d3fELi/FNPD/ZgQgiP273i7Td3794h/NK0mSdctOxys8XS3t729uuvHjp4IDNz1PlLL540ZaoQwu/3r/l01aav1nXaOorHTThtwcJpM07QnLnui8+//GL1z37xayHEui8+r6osHz9h0rovP29qqJ85a/ZFyy4PdHpCCFtnx1uvvXKo9EBBYdHCRYuff+ap3/7xIZOZMS1iQXrmqOryYfoNG3WNzbm9/RHJ6lUffWPpJcFXq6ayw4c+fO/dmuqqwrHFy664MnNUlhDixef+MWX6jKaGhp3btnq8ngWLzgrtc/bv21NXW3vqGQutFqvJbP5q7RfnfuOCQdkpAEPKYDSmZWbUNTRNGlcY7bogZvFuTQDR19zWkZR6jF+Mk1dQUFleLoTYvHHD2jWfZWZlz553UnlZ2S0//H5jQ70Q4rwLlgoh5sw7eemyK6ZOnx5hyXCcTsfqVR/f+aObTGbznHnzSzZt/OktN7jd7sCzv/nlHa/++4XxkyZnjsp68vG/vPXaK53tHUIIv99/1223rF3z2Zy5J4+bMPHvjz7y4nP/EEJs2vDVXbf/yGK1nnHm4qTklKaGBs1KOp2OHdu2eryewFYeuO/ef/3jqbFFxcXjJ77+8ks/veXGwHdAR64bENuSU1INBkNre2e0K6Khtb0jOTXt2Mrm5xdUVZQLIf771uuHDh6YMGHS1GkzPlv10S9u/7Hf709OTV267DIhxNJlly1ddkVW9uhwS/a6oaqK8vyCsRartamx4ZV/v3Df3Xc57PbC4nFJiUl2h/3m6/9n41frZs6ak5SUtPx39z752J8Dpdwu149vvH7N6k+mTz+hsHjc7p3bTWZzc2PjDf9zTWN93ekLFyUmJd1+yw3bSjYLIZ7/x5PP/P3xnPz8U8840+Nxd3Z0hpvZ1NhwYO/ewCaaGhue+fvj/3nx+Zyc3ClTp7/60guPLP994Kn29rb/+/61W0s2z5o9z+Nx33rDdVs2bRz437cCw0RyaqrH47U7nNGuiJLN7vB4vKkRR2t+v7+qsqKgINJ/FW/euP5nt/5ffELiaQsW1dXV/N/3r21paRZClB059Ks7btu2dfOkqdPSMzL++Ntff7ji3WCpNZ+umjP3pJSU1Lj4+Lknnbx2zaeDtV8AhlpyamrbsByqIWbwP9sAos/ucGamRvpwzAiSklMCf0F55llnB/9j/5LLr/zO5Rdv/Grd+UsvPuX0BWNychcuXrJg0eLAs+GWjLyhRx5/KvAHkjNOmHXLD/53987tc+advP7Ltdu3ljz70quB9xosXXbZFUu/EVj+01Uf1dbUPPvSq2aLRQgxbsLE3/36F1d993tfrf38xDlzb7z1ttCVqysZasvGDeu+/Dy4la+dd/7137ly5fsrzr/wogh1629LArpjNBmtcXF2hyPaFVHyeLwejzfuWN9DmpSS7HI6hRDX3XhzcOaCxWddd82V1VUVBYVFCxYtefpvf12w+KzgZ2uGWzLCVvbu3vnmq/+5vrugx+3+4yN/zcnt+oKjV154PiEhcfmfHwv86ej0GbOW/+6eb1x48dii4jde+bckSQ8/9mToX5U+/8yTJ8yefdvP7w48NBqNr/37hdlzT/ry8zUXX3bFZVdeHbppzZlqD/zl8cAHcVjj4p75++M/vvMXVqv15Rf+mZaW8ae//C2w9azRY/7xt79GXg+gI4G/XLHZHYkJ8b0ufDzZHE4hRORurbWl2eN2J6ckB+dcc9lFwekrr7n2mxdf+vgjD/7vD24MDLrOu+DCH9143cr3V1x59bXCYJg1e+7Pf/XbwMJ1tTUff/j+ed9cKoSQJGnNJ6u+873rA0+dvnDxow8tt9s6E5N6NgRg2IpLTHR7PF6v18zfVWBocGIBiL6BXOfqa2vGFhcHpu22zpItmw+XHrTbOpsaG9rbWsOV6vuSQfGJXV9kMWnK1JSU1MC7LHdu33rinLmBtFEIEfrNRXt2bq+vq73v13cFHjqdTpfT2dHeNuvEuct/d88ffvurMxYuPuW0MxQfPqVpW8nm0K2Myck9+ZTT9uzaEYw1NesGjARmk9nj8Ua7Fkoer1cIYTGZjq14fW3dCSfODkw31Ndt2bSxtrqqoaFeCNHW2hourOzjkldfdlFCQoLDZpMk6drrfnjOeecH5hcUFgUzTSHE1pIti5acHQwuF519zmOP/Gn/3t1ji4o3b9xw5llLFJ+Ut3vnzsqKo87uiLmhrt7n9QohZs2e/e9/PtvU1HjqaQtmzZkbiCk1ZyoUju35cOG5J81/2v/XlubmMTk5u7ZvW3z214Jbnzxlau8NCuiHyWQW3X3IsOL1ekV39cJJz8i0Wq1VFRWz554UmHPH3fcEJpbfd6/dbm9ubqqprvrPi89v+GptYH5TQ0NjfddfzBQW9XRZc+bNf+u1/wSmd27f2tTY8Nar//n0ow+EEG0trV6PZ/1XXy455+uDuYcAhkZgOOT2EGtiqHBiAYg+SZLEsX43zp5dO8aPnyCE2L9vz6/v/OnJ80+ZNfek9PSMzz/9JFyRvi8ZjsViCUy0tbXGx2u/c8FgNI7Kyr70W1cF51z93e+lpKYtPudr+YWFH6x454m/PPzoQ8uvuOo7V1z1nciba25uiouTpZ/po0a1tTRHrhswIhgNw+Qbb0IFqiQdU7dms9uOHj609JLLhBAfrHjnmb8/ft4FSydNnjpx0pRPVn4QrlTfl7zz7nvjE+IzMjPz8gtNIcGrIltsbW6Kl3c7GZmZDrtDCFFfVxuv+r5yo9Ew/7TTQ3u8hIREIcTNt91xyukLPnp/xT2/+FlG5qj/+9FtJ59ymubMCG1isfZ0a+3he10gBgReiZJ/+HVrfkmoOgoFo9FYWDRuy6b1F1x0SWDOrNlzAxNx8XFCCKPBKIT4+gUXBv/nRgiRnT1avSpryKdzrvl0lRDioksvD8559KHlX67+jFgT0IXAcGgYjtYQM4g1AejYtpLN+/bs/smdvxRCvP3aKyedfMpPf9n1voDm5qYjhw8Flwy9lEZesl/y8vI//vB9v9+v/orPsWOLV9tXTpg4Sf3FHZOmTJ00Zeott93xwYp3H33wjwsXL8nNyxfhr/f5+QWKrZQdOjR77rxjqzOA4ez1l1/Kyh698KwlQogXnvvHdTfect4FFwohAm+EDA07QnuMyEuGmjV7TnzELzIOyM3P37Nn1wUXLws8tDvstbU1RePGCyGyR48pO1yqWH5sUXFrW2swwggyGo2nnL7glNMXeNzuvzy0/NEHl7/w2tuaM3utUkBOXv7ePbuCoYkQx/hfYgCGwiVXXPng/b/ZsmnjvJPnq59Nz8hISUn1+XzqviIcn8/3xerPbv3pz4N/oSKEcDoc/3zmSafD0ZfeDAAQ2/jKIAC61NHR/sGKd377izu/e90PA5mg0WDcs2dX4IPn9+/bI4QoLCoOLJyalrZje0kwAoiwZH8tOfe8xsaGp5/4q8/r9fv9n3z8YfCpr533DUuc9ZHlvw9EDH6/v662VghRdvhQU2ODEMJgMKSmpYnutyQoKqnYSlP3ViRJeu+dtw4fOtDrh4EC0JfGhvonH//LO6+9cvPtPwu8j9JoMJZs2uByOiVJWrXyfSGEwWgQQqSkpRoMhh1btwbLhlvymJ3/zYs/+3hl4E1SHrf78UceLCoeF3iD1Zlnnf3Jxyu3by0RQvj9/oryMiHEsm99e9f2ba+89K9AJ+awO1pbWoQQu3dutzvsQgizxZKcnBz4fmTNmX30jQsuClbM5XQ+8ejDA9lNAIPrnHPPO+X0Bffc9dNXXvpX4PsY3W73pg1fVVdWBt7peem3r37rtZdLNm8KLN/YUO/1eCKssGTzxs6O9tMXnBk687QFC90u16b1Xw3ZfgAAdIN3awLQkwd//1trXJzX62lrbR07tvjXv18e/PymK675zl23/+jqZRempKZlZGTm5uWbu/++8lvXfPeB++659opLJk+Z+qvf/THCkv2Vk5t3569+8/Af71/x9ptWa9wJJ54YfCoxKfm3yx966P77rlh6Xl5BYVNDw2kLFt7287tXr/ro9VdfTklOMZiMne3t37/hplFZ2epKKrbyi3vvf3j5/e+9/abZYk1JSf7NHx4KlAKgd9+75gqjwWi3210u54mz5zz+7L8C/1UjhLjuhpsffuD+y5eeZzGZp58wy9T9oVSJCYmXfuuqxx750xuvvnzeBRdecdV3wi15zBadfU5lZfkDv7v30YcecLtdU6fNuPu3fwi8YfzCSy6trCi/67ZbskeP6ezsTE5O+scLr0yfOeuOX937xJ8ffu3lF7OyRzfU1v7glh9//fxvPvf03/fu2jkqK9tms1ktlp/dfa8QQnNm3ytWVnZ4+X33PPrQA5IkTZw0aYB7CmBw3XP/8nfffP2VF59/7qknEhITnA5nenrGD2/60TcvXiaEuPxbVzlstl/d8ZNRWdlWa1xra/ODf32ieNyEcGtb/cnHJ5w4Oz0jI3Rmbn5B8bgJaz//LPDGdgDASDYcP5EKwEizYtUX+ePGj8nNjbCMJEk7t3e9NSk+Lq6waHyC6us43W53edmRxMTEnLz8psYGSZJGj8kJPNXe3lZbUzqruH4AACAASURBVF0wtigxITHykqGbGzdhYkpKqsvp3L9vz4yZPUnB3t07c/LyMzIyAw+9Hk95edno0Tkmk/mSbyx5/JnnJ0ycHFxVY0N9U0ND9ugxmVld3/ljd9jrqqs9Xk9BQWHo93iGVlK9UZ/PV1lx1GK25ubnBz/cqte6AbFtV0lJfnbGjClhb4mjwmZ3fLRm/Yy5c5NTlJ9BEaqzo+PwoYOB6dTUtMKxReo4srOjo7qyPCt7TGZWVtnhQ9k5OUmJSYGn6mprbLbOsWOLzRZL5CVDNzdz1mz1h2Y0NzY2NNZPmTpdMd/ldFaUH83MysrMHKXcx86Oqory5JTUnLz84Ar9fn91VYXD7sjLzw9+/kZrS0tdXU2cNS6/oDD4xkz1zNA6KOrjdrn27d09bfrMYHGb3VZbVTm2aFzJ5k0P3HfPGx+sitDOgL5sWLNm/uwZ+bkanzgZRVU19Ru37T5l0aK+F2lpaa6vqx0zJlcRSgoh3C5XRXmZyWzOz+/qAY4ePWIxmfMKCgMLNDc1NtTVTZk+48De3Slp6cH/7AmqKC+zd9qmTJ9RW1Pd2dExcfKUAewcgCHU2dGxu6Tk3EWnJqnu3YBBQawJIPr6EmvqwoG9u39y0w9fe++jRNX3aQAYCrqONTFwr7384trPV//liX9EuyLAoImZWBMABLEmhh6frQkAA3Jw/77Ojg4hhMPueO7pJ79+wYVkmgAwdHZsK/F5vUKI6srKd954bdllV0a7RgAAAIgOPlsTAAbkg/++/eF7/x2Vld3S0nzagoXfv/HmaNcIAGKW3+9/7OE/1dRUp6Wlt7a2XH3t/5655OxoVwoAAADRQawJAANy609/fs33rm+sq83JL0hNTYt2dQAglhmNxqf+9XJ1ZaXN1jm2qDguPj7aNQIAAEDUEGsCwEBlZo5Sf58GAGCI5BUURLsKAAAAiD4+WxMAAAAAAACAzhBrAgAAAAAAANAZYk0AAAAAAAAAOkOsCQAAAAAAAEBniDUBAAAAAAAA6AyxJgAAAAAAAACdIdYEAAAAAAAAoDPEmgAAAAAAAAB0hlgTAAAAAAAAgM4QawIAAAAAAADQGWJNAAAAAAAAADpDrAkAAAAAAABAZ4g1AQAAAAAAAOgMsSYAAAAAAAAAnSHWBAAAAAAAAKAzxJoAAAAAAAAAdIZYEwAAAAAAAIDOEGsCAAAAAAAA0BliTQAAAAAAAAA6Q6wJAAAAAAAAQGeINQEAAAAAAADoDLEmAAAAAAAAAJ0h1gQAAAAAAACgM8SaAAAAAAAAAHSGWBMAAAAAAACAzhBrAgAAAAAAANAZYk0AAAAAAAAAOkOsCQAAAAAAAEBniDUBAAAAAAAA6AyxJgAAAAAAAACdIdYEAAAAAAAAoDPEmgAAAAAAAAB0hlgTAAAAAAAAgM4QawIAAAAAAADQGWJNAAAAAAAAADpDrAkAAAAAAABAZ4g1AQAAAAAAAOgMsSYAAAAAAAAAnTFHuwKIcY5On88rfflWs3y2QfZLa8oQurgwGISQDIqZPU/JV2yI8Ej7QeCRQT0/wtrCrDrCngUnlb8jrLvnV+FMc1aROS7JYOQ/I7QYvE7J3SkOfSbqd2kvoDGltVjYZ6XQshFOJvWGwz8vaZ0fyuKRtqBxHku9VqyXpkjMdk25SjLFC0tKuM2OcB3O5jZ74/oDK7pnhDl0itmyY63ZmYVfV/dz4VcZsa+SLRDmHNc8t+XVinAeRujowhY0iDlF56XEjUqKSw+34hHO7fT73NKBNe32Nm/I7H5fQEX4o97LBTTyZkIfaZ8/0b2A9jyVWmAaM8NsiTMYLQJqfp/ksvkby1yVO2zyZ3ofnCiWNxi6LkIaT4VZa5/PNBHa10QarYW/QvfhjFSedOqTMHKDTDo3zmgSlsTII4ORq9Pt8Pr9b+/8qmeWQfT1TAu3hLKxNZ8Kc2T7XD7SCnvWKV8+/JhS+ynNS32YppieVViYkplojjOF38pIxn1B9yPuCzAiEGtiqLQ1eDZ/1PbVu832dp8hZCCguLMOvWNWXBrkpRQ3TqFTYccQ/SileFJWudCxcn9LGUL2tfuh4kdj1cpSBiG2/NclDKJ4tuWkpXG5k3nlhvA4pNJV4qtHReWmwAyDQeMSHnYgGrpw1xzVJgzCEBwW9L5CIRtDCMU5pPgtH8FojicMIeOSiFvvfrUod1892AopLsmfEcIg4tfd6U+f6Jp1q3vCpVL8KK06jVC1rWUf7Xzhs13/CTxUvLTVQ1WD4mUc+pS6y+teSNU5htmERgelueXuZbU6357KhMwxyKYVPVv4TWjvhsbSwQqs2f+CEIZTJyxbMPFbWSljBbo5O3yl6zq2rmhpq3YrWjP08mAI94/qGIS7WsXMBVRW0zClMsebJ59rzZlpNlkFgmr22be82Vy2xSbUPZCytwg9PNodivZhVTxxLCeDessDO5OVK1furrIlQvZW0S0rSu1f6bYmGSYssRafYUnM5D+iezTa2j86UPLu7o0dLrv8kIe5BganVWeHxiGUHQbFSdmzIY0taZVXPqXdAYvuM091gmltULX9MK8OrZbR2iHD+0e2C4OYlVX4zXFzJmbkCARxX6CY5L4AIwDhCAZfW4Nn4wctWz5qa2/yBLpESQpcJLr69eCs7odd/0g93bS6lGToXrDnYdeU7H2ckiQFxwr9KBUyQ1ERKeR9oqEr71spSQhD9752Paf80Vi1slSwscq2ecq2ecbPs869wEq4KYQQe96RvvyLoaYkdJ4kGXoGJT1HXxjkczQW7pqjGkZIQgq+B6X3FQZGq5K8uHJhKTiQkHpGMBqb7iluEEKKvPXuV4tByHdfVkHFnJCFQ1+ixtbShM9vte543DXzBvfUq4UlVVWtkaWqpfTj7S9sKP3Q4ekMNqbipS070F0LhHRH8oMr7z1E6EKhB0J5eFXnkryDCuk0ZH1VsOsJWUq2akVX2dM3qXq2kLNVsQlFl6V8XYT2zLKLwfpDb24/unLW2HNOm3h5TuqEMEdgpHA5fPs/a9/xYUtrlVt9KRTyy0PoBVT2j0Yp7atVzFxAQ/Y2bKnmw971f/dlFpsmf92aP48LqKjZay95t/nIxs6wPZCytwg9PNodivZhFcrTpv8nQ8hTgzIUVK5cubuhfaai+1R0y+pSbpu097+usi+8RWeYxy+0JIz4cLOhs+2DfVs+Pri1yd6uccjCXDx6puVHWtHhdT0lOwyKk7J7/apLcpgro/IEUFy+ZN2LZOjakdATrGfP5Oe5bPuyUb/8BaBsGa0d6tr9HY0VOxsr5owuOq/oRMJNIYS0513x5Z+5L5BNDvZ9gWfq1dKIvy/AcGO69957o10HxJT9mzpee7B619oOl8Pf3WN2/eY9myLkOeWPxqqVpYKt0FLj37/OI/lF9jiTyay+3OnPgcPlqRkZySn9+euGlqPSp781fHKv6KgRQn3Vlx8lxVklm1It3DVLtUWN95uFW6HmGjUWNsj/CbtpoTzPImxddcKqt6CYY1AV7/pldDZZyleamnZKaRP8Sfla1RoRPt/35t9W3lZau9Xrc6vfich7NmWb0N4NjaVDK+D1e6pb9m8v/zg5ISMvfbLoj/qamtSkhNFZmf0qNdQ8Hu+ho5Wjc3OtcXF9L1VX6ljzdN3291qcHT4hb2zesynbdcWPxt6GLeVolapKvM52KTXPaB2pfynsdvo3v9H46d/rmsvdymOs7oF4z6ZQTCr6Nu1SXqfUeNBfv8eXNMqUPKZ/yWbV0aP5OaNTU5L6VWqodXTaqmobCoqL+1VqU8XBh9e89WXZHofHpWxw2SEPcwYGp1Vnh8YhHHnv2QzMqLW1bagt9UlScVq22WgSI1PLUemz+8Sqe7gvUBZXbky9BcWcXu4LzI07/OkT+3Vf4Ha7G2pqJhQXWC18FgyGxEj//0MMIkkS61c0P39Ped1RpxBd/4EUeCa4QM90yKzuh1IfSkkhz8iW7ZnuKtXzsB+lFE/KKheyQqm/paSQfe1+qPjRWLWyVEhjST6P2PCma8Wf7F63rDIjRfMR8a+LxOZngw0mqZpBkkKuyYqzSjalWjjMCoUkQv7/tNcVCuWIRtJYuPu3IbS4xqZ7iht63Xp3iyh3X3HWyosb5M/IlrYc/TD5na+Za9ZqVSvG+fy+51bf++ynv7K7O7pmhXZJPTO6JgP/KA6gpPEyDhZQdXmKTSiPnbo/Us0I21eFdjeS+kCrukrtblNRSLkJ7d3QWFp9MXB6Ot7c/Pu3Spb7/D4x8lTvtb9xd/nRkk4h5BdFIYSqNUMvD1K4fzRKaV+tYuYCKqtp+FKSJA6v8ax9xGFr8IuRx+vyv3tf5YZXGn1uvxCqY6zugZS9haQupVhE+7AqnjiWk0GjvgM6k5UrV+6usiVC9lbRLYcr1VbtX/e4/cgaj6IzHAkkIb23Z9O9K18sa6kLzhLhDlmYi0fPtOrs0DiEssOgvsh0TWhsSau88intDji4G6oTTGuDqu2HeXVotYzWDvXsvsfve/fQlkdKPnT7Qj+LecQI3BdsekbVXD24L1DMUvS/8uKR7gvM5StH7H0Bhi1iTQyaje83v/1Yjd+vOVTUGApqXaX7UmrwhrOapdTjJnW91GOU3kupxkCaoyblqpWlFOOtqv3edx+wu+wjbLDcdFh64RKppUxrxKCYwwhGNuuYRzDC60x+/xJz1Wda1YpZXp/7xbX3r979qiQp78WFvHlINmWbiNBSyp5Z9ksSQpKkjYffXrHjEa/PLUaSih22d+8r97r9oZdCIW9skk3Zrit+NPa2l1KdDf61jzhs9SMr2XQ7/O/8rqJ6r03ITxblBUHRA5FsCsWkom+LVMrvFyUvOQ+v8YgR5v09mx/78r/+QFtJYY4myebgJZtCiNKWmkdKPnR4R9YFlPuCXrfefcZwX4CYRayJwbF/Y8c7j9X0P6PsmdWfUoM3nNUspR43qeulHqP0Xko1BtIcNSlXrSylGG9V7fN+8pRDjByS3//CJVLLUUl+Fe96khGMYnIQRzDujqSVV5naDmhVKza9v+3ZT3a+rH1rTrIpLzSIyaYQYn3pG18c/LcYMVqqXe8/UOl2dOVrUrh/VK0ZennoTymSza6fzkb/F4/YtTvbGLXqr1VVu2zhx13heyCSTaGYVPRtvZTa9rKzdscIehvdpoqDf1u3Qju/UzQ4yeagJpsHWqqf2bVajBzcFwjBfQFArIlB0Nrgef+ZWn/Xu0zCjZVFT5eoGOsdS6nBG85qllKPm9T1Uo9Rei+lGgNpjpqUq1aWUoy3ju7w7vt8pLwLQPr4N6KlvGuaEczxHcEYXC3x635u8Nq1qhVrDtft+KDkn4Fpks3wPVv4TURoKWXPLPsV+P3FgZcrW/aIEcDrkr54rs5l8wmhfSkU8sYm2ZTtuuJHY297KWVrkna94RIjw95P246U2LoekGyqHg5psilJYtebLkfziHh3cENn2zPrV/r8fqFofJLNEEOXbO5uqvyyeqSETdwXdBfnvgAjGrEmBkwSrz9cWVvmVAwOhOY4Q2soqHWV7kupwRvOapZSj5vU9VKPUXovpRoDaY6alKtWlgodb3nd0qfP2luqY3+sLO16W1r3mBChR5ARTKStD/oIxlL2fvyWP2jVKaZIkv/B/97Q6WoL01f0LCfkjUmyKdtEhJZS9syyX5IQDnf7P9feLkmx361tfLXhyOaOyBdQIW9skk3Zrit+NPa2l1IHP3ZXbor9t9E1V7lWPVHldfkjn2zKC4KiByLZFIpJRd8WqVRbtX/L805FTxh7JCH+/PlbR5pre+aQbGptULX9MK+O/iebbp/3+T1f1NhaRazjvkBenPsCjFzEmhiog1s7D27pFEKohyFCc5yhNRTUukr3pdTgDWc1S6nHTep6qccovZdSjYE0R03KVStLhY63fF6x4U2n9qUuZnidYs2fRDDmYAQjRFRGMHElfzK4Y3ys/N7WZzucLUL+giTZDN+zhd9EhJZS9syyX5IQNlfr5wdi/E/RXTbfpjcahBC9XkCFvLFJNmW7rvjR2NtIpSRJ7F3h8sf03zxIfmn9y/V+j6TZSiLYxkJ1jNU9EMmmUEwq+rZIper2+ur3xfhXom2rOrS5olQoGpxkU2uDqu2HeXX0P9n0+X3vHNqsvCTHGO4LNIpzX4ARilgTA7Xxg2aNEUDIpNZQUWMoqHWV7kupwRvOapZSj5vU9VKPUXovpRoDaY6alKtWlgodbx1c7/E4ZdWIMVLFJn+d/I9SGcEIEZURjHXvc1oVih2rd78enA59QZJshu/Zwm8iQkspe2bZL0mITUfeFTFt18ctfb+ACnljk2zKdl3xo7G3kUq11/ibDsdy2OR2SQfWtgsRtpVEsI2F6hireyCSTaGYVPRtkUodWRvjX+fywd5NPa1Ksqm9Z+FPy8FLNjfVHnbG9n/XVG7hvkCrOPcFGImINTEgtjbvwa2dQnMEEDKpNVTUGApqXaX7UmrwhrOapdTjJnW91GOU3kupxkA9v+Xj4z4nm/vXxfRYecfrQn0hZwQjxPEfwVgPvqpVmxixv3pLU2eN8sWp3VcEl5C/ZtUv7Wgkm6rS6i13L6TV+fZURghZfcL2bOE3EaGllD2z7Fero66scZuIXfu/aBP9uYAKeWMPSrIZ8oy+L6DKH429jVSqYkMs3/8fWNMqPzk0WkkE21iojrEIeV7jTNMuRbKpWap+j8/VIatSLGlz2koqDwkR0qokm9p7Fv60VL8EtMqrKxda98CiG6pLRezyb39VyNpcCBHa2twXRNp69xnDfQFiBLEmBqR8n93e7tW4zAeXINmMVEo5BtIaAKtXHbbU0W2x++lgzlZ/+cbAJCMYreLHdQRjbD1kbI3ZT6PfU7ne43WpblDC9RXBJeSvWVVpZbei6I4U54m6y1NsQnns1P2RenOaW+4urNX5ytYkqRdW92zhNxGhpZQ9c88vr89VWr9ZxKiWKldbtau/F1Ahb+yBJ5sxcwHV+FHvbfhSTYe8HrtmJxsLjmzpEELITw6NVhLBNhbKY6zKKNW9RV9KkWwKt83fciRm3xq8r66y3WlXtirJpvaehT8t+9MyEZLNHY3lIlY520T5psAk9wVaxY/3fQFfiY7oItbEgJRu6+yeDDMCCJnUGipqDAW1rtJ9KTV4w1nNUupxk7pe6jFK76WUYyBJc9SkXLVGKSFE5Z7YfbOJrUE07As+YgSjVfz4jWAMnnZzQ8y+h25P5YbAhOoGJVxfEVxC/ppVlVZ2K4ruSHGeqLs8xSaUx07dHwlJSKoKqres2LvhlWweatgiYlT9IafLEfhQsP5dQIW8sQcl2Qx3tdLXBVTjR723YUq1V/udsfseuoqd3V+APrBkU9kDkWwKxaSib9MuVb8/Zv8TelvVocAEyWbIbqhOMK0NqrYf0jLKF4CyZcIlm/uaa0SssjVKDXuDj7gv0Cp+XO8LjPUlWlUBjhNiTQzIvo0dYe4ohHoYIkI7RpLNnoeqMZDmqEm5amUpSQivW1Tuic2xsn/fKsUcRjBaxY/fCMZ89AOteuhefXtldfPh4MMwL87AtHpK3iX1zOgprexWFN2R4jxRd3mKTSiPnbo/0qygesvdy2p1vj2VEUJWn7A9W/hNRGgpZc/c9auhvazZVi1i0ZHN7fI9Vt2wyyelcP+oWlM6xlIjPdms3RGbF9DKnTav2x/mlNJoJRFsY6E6xuoeiGRTKCYVfZtGqbqdMftuzU3lBzSbUSganGRTa4Oq7Yd5dfQ52fT4vPtaYjPZ9B/4WDGH+wKt4sfvvsB69EOtegDHCbEmBqS+3KlxLRfqYYLieqsagvQsoj3O6HOpwRvOapZSj5vU9VKPUXovpRoDaY6alKtWlvL7RWttjI6Vmw70PoZgBCPEcRvBmGL0j9A7HS2t9sZILzMRrq8ILiF/zapKK7sVRXekOE/UXZ5iE8pjp+6PNCuo3nL3slqdb09lhJDVJ2zPFn4TEVpKfTkRotPZYne1iVjUUuXu0yEQQvNSKOSNTbIp23XFj8beapTqqPWLWNRc7fL7lPsbcnJotJIItrFQHWN1D0SyKRSTir5NWaqtJkaHakIcbanXOEzBhySb2nsW/rQcWLLpk/y1nbH5FdVSA/cFETfdU/w43RcYW/ZrVQI4Tog1MShINuUP1WOU3kupxkCaoyblqjVKxTBGMJE23VP8eP3fbEwj2VR0vj2VEUJWn7A9W/hNRGgp9eUk9in2WHXDLp+Uwv2jak3pGEuN6GQzpin3N+Tk0GglEWxjoTrG6h6IZFMoJhV9m1YjxS6STY3uJUrJZmzjviDSpnuKc1+A2EesiQGRdaeKa3nP0ySbfSylGgNpjpqUq1aUinGMYCJtuqf4kI9gRgKSTUXn21MZIWT1Cduzhd9EhJZSX05iVPj2Idkk2Rwiyv0NOTk0WkkE21iojrG6ByLZFIpJRd+m1UixRwp/cIMPSTa19yz8aTmAZDPmcV8QadM9xUk2EeOINTFQsu5UcS3veZpks4+lVGMgzVGTctWKUrFIdp4xggm/6Z7iJJvHTN1ddc8l2QxWRghZfcL2bOE3EaGl1EvHqPDtQ7IZrWQzNkXoyUJODo1WEsE2FqpjrO6BSDaFYlLRt42Ik41kk2TzeAhtD+4LImy6pzj3BYhlxJoYGNWIjWRT9lA9Rum9lGoMpDlqUq56BIyVGcF0/WYEM8SUrzPFM+oXZ2BaPaXuIUk25ZuI0FLqpWOPJCm68d4PgVAcDa1/VK0pHWMpks2YoTzTRNhTSrv7Cz1ZlBcERQ9EsikUk4q+LeZPNiFEaLuQbKo6JZLNwRLaHtwXRNh0T3HuCxCziDUxYCSbqsVkD9VjlN5LqcZAPb/lrU2yGfokIxiN4oxgjonydaZ4Rt3HBabVU+oeclgkm/LNaW65e1mtzrenMkLI6hO2Zwu/iQgtpV46JoVNNvt3ARXyxibZlO264kdjb0fcmSbCnlLa3V/oyaK8ICh6IJJNoZhU9G2xfLL1NCHJpnYHHNwN1QmmtUHV9sO8Okg2BfcFETfdU5z7AsQmYk0MBpJN1WKyh+oxSu+llGMgSXPUpFx1TI9dAhjBdP1mBDNUFHcpXY8UzaXzZFMSkqqC6i0r9o5kc5CF68blp4fqhl0+KYX7R9Wa0jGWItmMISSbqiVJNgedPpJNzROxP8mmoWvApotkM6aFtgf3BRE23VOc+wLEIHO0KwB9k4LdrSQJg6HnoZAkyWAw9CzV/dO9aEip7vV0/SMZgt2tQbFixQr6XEoydC/Y87Brqntao9J9LhUyQ1GRnofylfetlCSEIbSxQpoxpDmVq47ZIUzI/oaeZwaDQTH4EyHNLEKOoMEQuJ4bwi8sX6HBnGBMGR1YQraUIXRS3uAG+ZLdC/eMIAxCCOHvrBMeh2JfuutjUIwsQs4hEXKaBDYeMjpS7UtIcYMI2Xftlux6tRhEsD17XmAi7JwYFdLjKDq5kAU0XpyBafULW91DCkVp2cJdC4R0R6qDazXFWUxWk8lsNppNBpPZFLiaGywma1pCequ92Sd5A0t6/R5J8nt8Hp/f5/G7vT5P8GRQVVC9ZcXeyTrf7mcVXaV2U8jPHNUmFFcFxetCjADyblxxuQi9oEW+gMr+UbVm6Hnbn1LaV6vA3MRUU1xCoENSnKQGl93v6PRrlurZt2FwAVWdcbFGko/W5AMGQ5hTSrv7U427tBtSdaYJoVVKsUjwsBoMwmwVFqvRbDGaLUJxFfb5hN8rvG7J4/L7/X0+hQZxKKhcuXJ3Q/tMRfcZ22eaEEJ5UvW0i+owBVtVdrHTmlaN9EPWpX3x6JmWFzMYDGPTMy+dPs9sML2xd0tZa6MkSfITX3FSdq8/pGZJFusFk2ZNy8pZc/TAV1WH3T6vxsEPllfcDYV2SpKha0dCT7CePVNcBrRbSdWyypaJ1QuovFvjvoD7Aox0xJoYoAh3oySbx/XGTFLeUsag4zmCMZisaZc+njBrmTCYBns3/K5dr3e8c5Pw2BX70l0fHYxgYp76nlTIWzjMizMwPWjJptlkTolPT0vISEvIHJOWNyY1LyNpdEZiVmp8elJcSoIlMd6aaDVZ4y2J4XbE5u70+b2dzja3z9Xpare7Oho7axs6aus7qhtttR2O1lZHk8NtU9RnuCWbMUqSv7j0l2ym55qv/nXOqHyL5u41lHteub++td4rlC+KYXcBFYqrSCwKM2BQtlK0kk1LnDEt25JVYMmbEJ9VYEnLNiemmhJSTPFJRsV1ze3wO+1+R7u/s8XXXOOpP+qpPexuq/faO5QZuvIUItk8TuQn1bBJNlPi4i6dftK3Z52SmZAkhDh34oxXdm96Y/fmVqe9j8mmyWSanzfuurkLpmblGoQ4e9y0LytKn932ZWlL/XBONmMY9wXcFwABxJoYuGGRbI4ZF587Lq6q1NlY4Q5TavCTTWu8cfzseK9bqtjjcjujf2MmxfrwRRzHEYwpZUzCrEuFYQg+qcNgjJt+iWvX665976n3pbs+jGCiT31PKuQtHObFGZg+xmTTYDSOSsouGjVp7KgJk8bMyE8vSk3ISIlPS4pLOba9SLImCyFS49PVT/n8Xpuro93Z0thZW9F8+GhzaWXLoZq28g5nq6qvUt2aC8WZQ7J5bOQv2UjJptYhEELzAir7R9Waqvv2PpbSuFoVzYgPl2kKIbLHWgqmxLXWeXu/7JJsDjmNAUO4nux4JpsJycbCaQmT5iWOnZaQPtqckNJ7XmBNMFoTjKmjxJhxYoJIEEJ4PVJHo6++3H14m/PIdkdzjXf4J5uxTn5SDYNk85TCCTedsmRKVk4wJk+LT7h+3plnj5v69JYvPj+63+f3R042C1Izrpu7cHHRlDhz1+2z2WhcVDT5xDEFr+8teXXPZpvHrTz4wfJRTDZj/WzjvmCY3BcA0UWsiYEJc4sV5sZVdZkfjGQzb2L8gmUZk09Ojk80hpS0/gAAIABJREFUtjV4/3l3ZVPVcUo2v3FDxoyFSZJfaq72blzRufMzm98b7k7+eN2YxSrZpfx4jGAM8elDMnYJMFni5//QXbpK8rr0OoKJXco+S6gDgcFPNtMSMmbkzzupeOHU3FnZKbkJ1iSzccgv0CajOTUhIzUhoyBj/OzC04UQbq/T4bHXtlXsq922t3brrqrNDk9ncHmN3lt25pBsHps+Jpv9u4DK/lG1puq+vY+llFcrY699pDG4vZ5SynWFWXmw4PG7gMbqNVRSnT5CFYoc32TTYBCFUxPmLEmdPD8pOd1kNA3odW62GDJyzRm55imnJDpt/roj7p1rbPvW2V12SeMUGh7J5kD2dzhTvtaGQbI5JjnlxvlnnTtxZjCODDIIMSFz9H1LLt5QdfjR9Z8cbW3UTDbjzeZl0+Z958TTMuI1/jAiPT7x+7PPWFQ0+e9b1myoLutKEodPsjkCxNB9wSeS16nT+4IYvXxCN4g1MSARbrHC3Lj278YsQrJpNBlyxsUt/nbW1FOSg3dWadnmjDGWxip3uFKDm2wWToszGITBZMgqtJx/Y8ZpF6ese6N9/3qny9HbX0IN3Y1ZDFNfYhUzB3sEE+Qq/cx1YFVw4bBNbVA9Ui2aMP96U0axEMI6bpGleKG7dJXmvnTXZ1iPYGLY8Uk2rSbrqOTRZ0w857SJS6blzjabwr7rrXvNktfn8fg8Xp/b7XO3OZptro5OV7vd1Wl3dwYObKujyevzWE3W1ITMwC6YjKa0hFEmoykjMSvRmpQSn2YyWiwmi9lkMRuVW7Sa463m+LSEzCk5J14kvuv1e/bVbNta8eXGstUNHdUen1uj95adOUOTbMYoScgvUz1PREg2hfKtSN1LRSXZDN2d9e+2dTT5hBDpo80nX5Aaspt9vuxGPdmMber9jUaymZBsmnJy0hnLMnPHxWm2u98veZySxy21N3rbm7y2Vp/XLTvTkjPMyemmtGxzXJLRYjWYrbK1xCcZi2bGF82MP+d/MnZ8ZtvyfkdLnVeSFNfPYZBsxqzw+d1xTzYTLNZvTpl9w/zF6SFxpMfv+6r8kNPrWTxuitVkFkJYTKYFYyfNyyt+ZdfGl7avb3c7g1U3m0ynFIy/ef6ScelZPXsopLLWpg2VR86dMD3w9+wGg2FS5ug/nXPZJ0f2PrV1bU1Hq6qbidgygmTzmMTefcG4M90HP+K+ADgGxJoYKI273O7JMDeuqst8P5NNi1UUzUg8+RsZ005NNlu0LiW9vNNzUN+zGSIj13zBTZnzl3q2r7Lt+dJha/VxYzbIojSC8ZRvtH3xqBA9C/cspRiyqDIY5Z+xeN0p5y8XBqMwmuNPvt59ZI3wefQ6golpQ5psZiWNnlt8xtnTL5yRN9dqjgtXB5fX2e5oabY1VLWUVbUerWmtaOqsa3U0t9qbOl1toUt2HdWu6eDckCF01ykiTEZTSnx6RmJ2WmJmZtLo3LSCwowJeelFqQkZqfHpJvlbRM1Gy8z8k2fmn/zt+Tfvq926tnRlydEvmm313WfacUo2w7VPDNC+FArlreow/mv0HjtWd9YecgshCqbGhcaaol+XXZLNoaHoxEI7suOWbCammk9YlHLqhRnZBVZl9STR2extqHAf3eusKXU2VXtb6jw+jyTv2UIOkUEYDYbkDFNGjiW70FJ0QkLueGtatjk04oxPMs7/ZsqJS5J2rbFt+bCzscIzvJLNWBb9ZNNoMJyYW3jzqWfPyS0KrdaRlsant3z+6eG9QkinFk68/qQzp2fnBf4sPcFs+Z/ZZ5xVPPXJzWu+KD/o9nmL0rN+MO/MxeOmmELeo9fisL+1r+TfuzbaPO639m+9fs7CM4smBeJRo8HwtfHTT8orfmHH+vcO7rR5XP/P3nfHx1Fd+587s71Iq95tSVaxLRfJvdvYGGOaaaYHCIQAoSR5SR7vvby85CV57+WXRhoJEHpooWMw2MbGvfciF1lW72VX29vM3N8fs2XarnallSyt5/sBeXb2ntv33HO+c+6dscBsDnUQxwmSyy/QzvmWr2G77BfIkDEEyLSmjGFiEI4yguM6iBRI2MoAgAmSKJmuW3pbeulMvTShGchc5NkILezEmLMShSPImqC8+iHTrLWGY5sctbtcLhszmo5Z8uMyWTAi2UgGxyCle068rVv8FGmaAADq8muUebP8bQejZihbMJcNI8FsFmaUrp1++7LKa7NT8iTDKNw+Z4v5Un3Pubqu0w19FyzOXouzj8EM+y1XY/B5Lh7TFIFXAAxAM/SAq3/A1R+aMghASarS9FlZxtyyrKrK3BklGZU5qUUEx5FTEIpp+XOr8uf02bv2Xtq89dxHXdYWnvbmzZwEM5u8+Z9UwIJBijlmcwztRue2RvKBX1gkxmX38jGbSY1oHOVIM5sEiaoWG1fcmZFTrBasSnYz1XDKff6Ao73OY+2lOEUHrTWpkHfAwAC2m2m7mW456zm62a7Rk1lFykk12op5uuxiVWgTj1pHzF5rnLpEf2Kr4+AGu9NKjxFmM2kR0hmXj9nMNabeX7P4hsnVBlX4qaHT73vn1IH3Th82u53swrev5eLp7rabJlffX72IDboEgImmjP9euW5fS32DpW/d5OrQfQCgGGZn04XXTuy9ZOljXYAWq/nnuz5fUFjy2OwVpWmBcM40je7JuVetKK545cTeo50tWKyxR5fZTH4kkV+gkv0CGTKGCpnWlDF8DOJiRXBc43PMEIlKZ+iW3Z5RMl0v2HDkGKC7Gjxls/ShfCXsHZFjlhBzNgRLF+V2MPll4QCE9DzFqgdNs9cajm9xnvra6bFL1WsEHLNYBmw8Ags+jFsLBnus7iOvGq7+KQAAqdIueNz//sHBMhyLFkyyQtC0BDKbuamFd8771vLKa1O0acJCMe4YaD7RcuBY8776nrNWt9njd3NpR+n68Ac3dmaTN7wYMAI/7euxtffY2ms7jhKnCIM6JTd1Qk3RojnFy0ozp5BE4CUeCFCWMe/m6gevqrzpq7MffHbqH06fXaCyw5XhKdhhMpvJjfHMbAqbIg4OwrwvY1x2ZWZzRHB5mM2sQuW1D2VXzDWQCu7UhvY6z5HNAxePuOwWKrhqIWGukYYVhNPG46TbLjBtF7wHPrXllKpqrjZMWaRXqgPfao3EwltSKufrdr4zcH6/O/icKDGm4NCYzaEM4HgATy+NOrNJIuL6ydXfnru8ICW8zmKMD7Y1/PnAtgt9nQDAFbN73W+dPLC7ue6R2ctWl1WxUZlKglxeXLm8uJLbrhZr/18Obd/fdomiaQAItARjP0Pvaak/09Nx25RZd1XN1avUAEAgNCO78Fcrb93ScPal43vMHqdQY48ms5mswPzrJPELlLJfIEPG0CDTmjISgkFcrAiOa0yOmVIJ5bOMV92TWVCm4R4qjzHYzdTej81Ht1gnVmlDtCZIWNgQ1sMjw2z2t/vf/7++0hrNwptTCipVrO2OEKTlKlZ+I3XhLcbDnztObnW6rAwecccsWYF4ZsHIWzB8WenSh2bBeA6/olvwOGHIBgB11S2KXb+lus/IFszYgZAuHDazqVQob5l1/z0LHjNoeDtz/bSv09q2tfaTQ427Ws0NNE2xASC80kTxbyPEbIbKZICxeQbsHuvF7tMfHns5N7Voadma5RU3ZBnzQ/xmqjb9ttmPLC679o39vz/aspvBtMxsDgUcxm9IzCZISwnJJuCxLqKlEPjzlruADibF27Tw0K/z2Y8CTRvjK/jGBrOZ9BhVZpNUotmrTdc8mKXjvN+cpnFHnefrd/ovnXBhmu3z4CLDm2nBXCMNKwinDdsCr5tpqfW0nvVsf2tg/o0p1asMGkMgdDM9X7HuexkV893bXrM4zEw4j2GbgkNiNpMWPMN+tJhNAqHKrLzvL14zu6CY4OiEdpvl+UM7vqo/42dCmx6EDkLLgPmn2z/dcOHkE/OumhLckx6Czev+55nD75w+6KL8gRw49WdrM+BxvXJ8z9eN55+Ye9W8ghIFQQCARqG8qWLmosJJL53Ys7XxnIeiYuoZkJnNGCH7BWPLL5Ah4/JCpjVlDAsRfAPBN0NkNtU6clKNftmtmROrdAJH19zpO7J54PCmAbedllSlIgsbwno4gcwmBwyN64+4G064S2dq591oLJqqDmyTR6A1EsvuTpl1rf74FueZHS5rDz2CjllS4zJaMJFKH4IFw7jM7kMv6lf+JwAAodAuesr+8WMhg2PcWDBJjQQym1nG3KdX/3Rh2VXc4Rxw9R9s2LnlzMe17UcZzLCJUbi4y8xshm7QDNVuaXz38PMfHnt5bsmK1VNunZo3mz0MFAHKS53wozW//+zkG+8dfcFLuUeO2UxWCL2kuJnNyFLiCFruoihaCoE/bxGJ0nOUChUKfcudnNZeyucJ1T3ciMgnw4wfZjN5VVuMHGUCmU1jGnn9t3Nnrgg/y2EYaL/o2fVe34WDTibY06LhEcxmjrUWM7PJitv6qK9eNR/5wr5kferUxTqVlgAAgkRVS3QFFarP/2JuqfWyA36ZmM1khciwH3lmM0NnuK964R0z5umUvLOqdzZe+Pn2DRa3EyC8zIZVH2ekGQYOtzc+9lnrLVNmPTRraegVQ9sazr1wZGeztT8gzJuUPGYTABoH+v516wdXl075ZvWSCanpbF0zdYZnFq65dlLV80d31fZ2xNQzkEhmM+4BHFeQ/QLesiX7BTKuYMi0poxhIo7oywiOq4SUWkNMX5q64Ib0gnJehCYA9LR4920wn91nd1ho9o7wMObgsiOwsLnKOWHMpggMBfXH3E2nPBOqNLPXGkqrNaEt84Y0cumdKTXX6M/udh/f4rR0USPhmCU9RtOCibH0+C0Y7Dn5nnbetwMPZidf78qeQvecjSFD2YIZPSSE2cxNLfzpuj9W5E4L5ePw2rec+XjD8bc6Blow4Agacgwxm+wNP+3ff+mrw407phXMvX76PdVFC9mXCxGIuGnmA6najJf2/K9nxJjNJIaQvxwpZlPqj2jehebt7NUpax/JVmnCh6uGC2PgzB77h7/rwgwCALuFZhggJBICANAUdg7Q4kqPWWYzedUaltYZYp4tQcxmUaV23ZN5BWWaUA0cA/TO9/qObrF6XQyIGSLe8AhmM8dai4fZZGHp9m/8a//pHc4V95qKpgQ4L1O2Yv2/Z+5403riKydNYYhrTiaK2UxWcKdHaCRHjNlUkuRVpVMeX7CyJC1LXJezPe0spxksSqT6+CPtoah3Th8qNmXeOnU2W8RPvv6YZhjO4AkmJY/ZRAAMxlsunT3W2XJH1dxbKqvZPekIoeqcot+vXv9p3cn3zh7pdTlGk9lMYr3GQvYLeEMs+wUyrlTItKaM4SORzKZCjaYvNS25OSO/TCvwlPravHs/MZ/eZXPa6WAmgTKEqjTirigI6+FEMJu8MjlSFIUbT3paar0FFap5NxnLZmuDezfBkEbOu8lQtUxbu8t99EuHtZdOvGOW7EgCC4a2NHlOvqtb/DQAIG2ads5Dji9+GFuGY8mCSXYMk9nUKNRPr/5JiNPEgI817Xt1zx/qus7g0NMXxBPmjvZYYDYFvUEx/hOt+2o7jlQXLbpr7uMlmZMBACG0rOK6blvbB8dexEIiIlgZkJnNSIiNoxQmFMW0Rl52gb8UQgzM5tRFRklOEwAQAdOWGD9+tptmMAC6dNy16aXevFJ1QIvw0XHR23jGLdmCsclsSjY5mTAKMZuAYMo8w7on81KzlKFy6084Nz7f3dPiBTYFP1/eyjMCzCbD4OYznn/+smf+upSFN6ewD5vVWuLqB02pWeSud2yUH0NcczIRzGYygzs9BuXvhsFslqZlPbno6qXFlUoyfMqB3esxqsN8eiRHJBKzCQgYjolFMYxwIg7GbAJAn8vx/NGdO5vrHp21bE7+RDYrnVJ1V9XcxYWTXju1f1vTeYZhBukZSCCzmeSQ/QLeMMt+gYwrEjKtKSMhSACzqVQTs1amLbo5I2eimiB4Tl5Pi3fPx/2nd1u9TiasQoNlsWnC6TllBVOIDBeROzc0c1bYC3wpmoKWs962C77cScoF61LK52jI4B49vYmcd5NhxkrdmZ2uo186rd0024REOGZXBMa9BQOM5/hbmlnfILRpAKCuusV14K+MuSG2DGULZmTB50qGzmyumHz9vJLl7LWP9v1j718+OvK6l/awdyRc87HHbIq0HyAEftp3uGnH2c5jd8x5dO20uxSEgkDkDTPuO9i4rcVSL1C+vC7lzi4pZQsys8l+jJvZHGTZBf5SCIMym1G7HRHhWtIUHPzMGrgP4cnCv4rgeI9FZjO5EQdHOTRmExFo5orUW57KV+sCtLjfh3e917f7Q7PPwz/ZkJ8vb+UZAWYTA/Y4mV3vDrTUetY+lpGepwAAUonmr0vRpZKbX7D4fRjimpPDZjaHMH7jAoKVkaeXEsds6lXq+2ctuad6QWpwtzgA+Gl608XT75488Nadj/HrFCezydUEoa/iZDYZhqnt7fjR1g+uLat6uHpJps4AAAhgQmr6jxevvXZS1bMHt7bbLSLbX6SUEsJsXgGQ/QLeEib7BTKuPMi0poxhgWuxDZnZ1KeSM5aalq/PzMjnnYnD0Liz0bP34/6TO6x0YB+b2FSUWGqkbGFpqZFmNhEghsYddb6PftOXU6xacLOxbI4mZO5rDMSc6w0zr9bX7nIf/dLZ3+bHjOyYRYCoWSNuwUTtyOFbMFR3rbf2E+2cbwIAYczVznnY8dVPEPt+1nFhwSQxhO7xUJhNBGjtjNvYlDRDP7v5J1vOfAJsIgkNwxPmjvZYYDaBw1KFinB6ba/t+52P8txa8zBCSK82zitZ2WKulyIiOK3kzi4pZQtXFrMZ+gknhNkEaan4mc0QnFZ621t97N2qxcbSmTrutyI+VHq1ipsPkpQaJWYzOYH5lyO0Gx0RMGeN6dan81HwybTdTH3y586zB+yBlSgszNWdo8dsAoMaT3ne/EnXTd/NLJ6uAQCEYMZVeo2e+OxPZnZ3/Cgym8kKqemRUGazOm/CT1bdXJ6ZEyqSwbi2u/3P+7863NaYoTeEqyKqFIBYvYodBEGDhshsAsZemvr0wsm9rZcenLlobVmVVqECAJIg5uUXv3zD/W+ePvju2cN+ho7WMyAzm9LA4oFKAr/gzEfauQ+D7BfIkBE/IpyHJENGzMA8x4xzO/w/8FYfzLkNUFSpfey3k259uoDLaTIMbqp1vv/79hd+2Hhs6wBN4VAGmPOHs3qIa8UrNooUtzqYk1CQFvNLwYLlFA8u1d3k2/BH89s/7Tu9w+V2MKH7SjWqXq2775cZC28zSmaOBVnymoRDH8QLfJJB0oLhfJC6xBESS2YY7lqJtTnG0iWLjlS6+8AL2OtgP2pm3EEYcjHXTBgkQxByEFgicfBfxO8KYVs44jyrXronpaSTDfwfr/DnjkUdw9NqgDEAgsrc6ezH2vZjW2s3iBNK/bCFGpJfOhYmFtdHqJmkFCVf64F4eEVzSbI3MGY+PPay3TPAfpyUNZUgSEnly2sltz4RNZtk45IOvGkmVPzSC6gwYWxSUksh8DtbNO8AALwu5tDGgYMbBw5tHOhq9PKqLiUVabWKsoDGsewOvhQKM49N6spYQAVKRXpyCBWZQDNEkQIE05em3vR4XojT7Gvzvf7TlrP77cIxFmsgobbgDo+0QpEeVsEXESaDrZ9+/1e9Z3Y6Q1+Wz9WufsikVIdpJH5thjGThfPziphs0pMqNJL81SX8EUce3PCigwHgB8vWcjnNPqf9D3s3P/7Ja4daGzAWLpCcvCLMwNC1aG0NVTL8Fa9lgknJryXnZp/L8fsDX/3oqw9O97SHctIpVd+sXlSenj14zwS6RDTBpAoUlZ/M0y0J/YKDL8p+gQwZQ4McrSljeMDCZ9HxxmzOWZ2WWxw+BAcz0FTr3P1hX91Rh9/Hcn/RQk4EgUuiqkWX4iYJXsfzoJ5bFie/iFIY485L3o1/9mUWKWdda6hapg1Fbqp1xKLbDPvet4dSDi3kJLkhfqI4cs9mh1y6ZNGSpfu7a711mzTTbwcAIiVfW3Ofc9dvAo+FY8rwcj6bFQd2JRuEP974YjYBA/vG8NBH7qVkoOJYjtkU3ggWgRAKlaskVUhS5/OyHkrMJiQxeNNsbJ2zya+m+KO0VKTValzEbCYzJIYgkbvRK+cab34qX6kOmDTt9Z73ftPW0xw8TFMwxmINxMmMICAtR5lVpMotUWcUqIzpCp0xfHIiQ2PnAG3u8ve2+vrbqJ4Wn9tB8zSiyO4STwavi/ni+X7Kj2euMiAECMG0FXq3g9nxpnXU3iCUtJDQ/yJ3YHgxm6GN536a/vrS2b8d/LrR3AsAEpGJWJBXTDGbotbwhzD+mE1AiMH4eFfrD756//ry6fdOm8/uSVcSpIpUxNQzgWYMJWYzuZF0fsHZ8esXSHaRDBmjBpnWlDFsiCy2uJhNUhFWgi3nXdve7qk/7vB7MbASMThmwsddGIcNjBFmNvndEKsUg3Fvi3/Ly5bDn9vn3miccZWOPcCeVKDhO2bJzQBAklkwGDt3/oY1XwBAu+Ax194/Y8qD0fiwYJIfw2A2MYDNPZCiNQHAtIJZyyev3X7ucxBqxmAhwiu+ShKWLmJxxPUZLWbz1pqHDOpU9g7FUOyjfQmdz8t6CMxmUiPBzOYgyy7wl0Len3B54WIQhDhsQa3FUuEKoXD6MBUwDphNyQFKGvBnWhSOMl5mM7dYc8vTBSHysbvZ+4+ftwz0+NmPfLsrmgYqKNdOW2osn6U3ZStVGkSQgygAyo+9TqbjkvfCQef5A07nQHAfTAzMps+Dt7xsRgTMuMqAEBAEzL3eMNBNHd3kCC6/I8tsRm/a+EUE/S/SS8NgNkMGyMnOlv/Y9D6FA+MekcuLk9mUaJFgCAdjNoXDHMzd6fO+f/aI3ef5zyXXR+w0mdmME7JfMEb8AhkyLi9kWlNGIiCy2OJiNlkwNP7zU/UcfRqPY8avi8hWlpa6jMwmBgw0MndSm1+0YAbPXmsQZiLqR0E2kR2z5MeoWTDDKT1GC4bqPuc9/4V68nUAQBhytHMfdu1/DjDIFsxlBK+JQ2Y2MXRZ21hakyDIf7vh14XpxZ8c/Yfdawunl9YVUk6/sHQRiyOuzwgzmwZ1yu2zH7lhxj2hEvud3TRDi1onM5sRgTlXiWY2QVoqNmYzhPQ81S82To5UdYHUzBWGG57IVmslTjeiKbz9LcveDwfGPLOZ7GuokNmE4Z+zqTUq7nqmyBR873lvm/eNnzUPdPsAIILdJdRAepNi+tKUeWtN2RPVcfEwCiVSmMjy2bry2bprv5V54bDzyBe2tvNeyo9Fqlua2fzieTMAzFxpAACCRKseMPW1+ZtPe8PJYpyTQ2E2kxYR9L/IHRgWswkAQDGMn6EBgDOJMU+Fhfo5LmZT2Bgp30GK2SQJcmZO4brJ1fnGNBozF/u7N9SdvGTpDdSKNf4weClKusMG7RmQmU1pyH6B7BfIkCGfrSljWMAci4H3EeI4Z5ObX1xSmP+HnxFHMrIUr/ZCKV7OmHcV0R6NXUo6G2E38npEIBW585Mf4g1cI3SejuTHGEuXLFqUmHHu/gOmfewn7YJHkTqFFcFcK2yQDEFsiIsTB/9N5Hk6SQixRuH/VrGw80Udg9lUuMvaEfpKQSgeWPLUb+56bUXlWq1Sy0nIKUR4xVdJwtKlf/ajcM6mXm1cVnHdf6/7+7rq+0ki/HC029rGL05a+fJaicWJxZotiSHoEckFFASDJPgGR/gAcS6g3M6Oqc9FUvNvNElymgBAKtDiW1PZtMKlkDenh7KARlkK5QU0CBytM6UnB1/5RDhnkyDRDd/OyysNHCXkstHv/Kq1r8MnkR+vowP39ankklvTv/OH4hsfz8kpluA0fR7G1kf1tfl623x9bb6+Np+50+8coNmt4lwoVKhqseH+X+Tf8e85pTO1BIlEqltiMtB+vOUlS+MpTyiTtY+lG9IJXjKIbU4OOpOviJnGUVcS+l/0FX91CX8MC4l+s1L9J7EQhz8KhyxVo63Kzq/KLqjKLtAr1SL1Kp2BxBDyWoY1CuVT81b+ce3d10yqmpadPzOn8Paps/92/b03lM9AwZ3pEtXHcfZMoBmiCRa6jrJEJDVkv0BUH9kvkHFlQY7WlDFcRI6ViC1mU5TfkDbTSSjUcRGziUTrqKgb4ws5ke7UZMSIP5sVlid+Fjp46ZJFCxJT7cf8jXtUZSsBgDRNVFet8xz7Bysypp/NJjHEMRvCwJ+YYja7be3cXBGg8pyqH9/0u/OdpzaefO/ApR0DLjNHvwl0BT+caQzEbBIIFaaVLixdtajsmonpZQgJCawee4eouMTEbCYxeKPHm2aXczd6aPuwJKx9fgaH9VLoD/dIGTHCG4qHEOkmKTUCMZtR6p8EiNCZWBAOFlfM5oxlqTWrTOwtyo8/fa6j/aJbICVpd5EkTFuSsuLOTDGb6XHS7Re9bRfcrRc81l6/286w7yhnFySCJDR6Qp9KZk9QFVRoCis12RNUodmFCCifoyuerj1/wLnzHUt/p3/QyeB1Mxv/2n/vT3PS8hQAkJ6nWPWA6bM/mxmKkyzGORl3zGaSIqSuJPS/SC8NLWZTosyIkYmCIZtfNOlXa9azX33r41ePdTQL1GukDCR8h3B10fqps2+vmk3yV0a9Uv30/FXt9oFjnc3ASy8sIY6eCXRJrDGbyW6xhZG0fsG0WzxHX2dFxrRfcKVMNBljFDKtKSMBuOzMpkiRSnKUYudaUF1JqWjmLL/OQ3TMJDt0GI5ZcgKDBMExshYM5xtlUY1+0bcFVRJPX+x3ec58gr12bkGDWjCY8rgOPK8sWYpIJRCkbv6j3rMbsMfKioxpCyaJkQhms8PSIs6YQOTU/JrJeTP77F2HGnfvqfvqRMsBivZL6QpeYdzKjDKzmWWaxZjuAAAgAElEQVTMr5mwaGn5tZOypurVxggdhjutLWJ/KoJny6kMT1VGYDaTerKNMLMJQ9iNvvWNXns/pUshAXhKBgHQNJzaYaMpHFQj3D8BOCz02X2Bd7mWVusyC5TClo5VZjNpEV4VIzGbMITd6GnZqrUP5Ybo7L2f9J3caZWUEkw2rZ686YncaUtSFEre/G455z6+1XrxqNM5QIX26SLuvwgQMC4bMnf6W897jn1lU+uI9DzVzKuM05YZjWmBwz2VajR9uaF4unbra/2ndjgG3Y0+0E19+aL59meyVBoEAJMX6i4d85ze6eSsn4lnNmMdu3GKkWQ2uVYOf7GTYjbFln7U+rLXfGkQjh43R4wBoVSNdn3VnBCnafd6lCSpUSgBQK9UPT5n+ab6M6E8KzNy+SVD3D0D8TKbSYorxy+o/WQc+AUyZFxWyLSmjOFB0gWNh9mUymxwKWl/XapmI8psCosckmPGr/SwHbPktZUxICScMqP0bFZTuVpTuTqWOnoqr7G88wCwB9jHbMH46rdRbUeUExcCgCJ3uqrsau+ZD0P1li2YUYaEFgh+ERez2TUQ3pR9uHFPuj6zJKucQCQAEIjITsm/Yead181Y7/DYTrYeOta0t7bjeJe13Ud5aTZM6DIxmwRCKlKtVesrcqZNL5g3vXDehLRJJKkQaC2K9p/uOJShz5mQXgYADq/VyRruI8FsJivEZBMIpllC3o0eQSoys2m3+Le+2cumQgi4PwIUvCWWCsHS7d/4fA+b9tZ/yQnRmryWjk1mM4kxeGdK6YzIzCapQGsezE3LUbG3G045t77VwzA4klRg3iEoLNfc8aOCrCJ1qGqUH1886tz9YX/reXfweF7BTAP+oIZns9fFdF7ydF7y7njHPG2ZcdE6U3q+ki3KmE6u+25W0RTN1jfMXhcTfTI0nHDv/9i67C4TQkAq0LK7UpvPeGz99Mgxm8kK8ZqScGZTZAfymE2MsYcKxJtTTNgYk/6l8yhS6bM1xaGiYmaz2JSRrU9hJQ62Nf7Hto9SNdo/rb27MCUNAKqy8quy8qP02VB6Bq50ZhNfOX5BTpXsF8iQMShkWlPGsBCbRxGNoxRlyFGnQ2U2BWp2BJlNcYdcdmYzqTGaFgz2uwEzINppGxVIXblaNWGBr3mfoMjoFgymvK4Dz6cWzQFCCQSpW/SEr24z9jlCmYxBCya5kRBms5Nz1qTF2fdfHz151ZS1N1TfWZ4zVUkGuAACESla09KKa5ZWXAMAvfaulv5Ljb11zf31Lf0NFlefw2tz+RwMQ48cs0kQpF5lNKhT0g1ZFTkzSjIrJmaUF6WXhiopgNvvOt95/JMTr5/pOPK79e+yN61uiys0Y2VmMzZg3m9qrDCbhAJpdIRaSyjVhFJNpKQrdCmkUk0YTApSgZRqpEshQ4PXdNp17CtbSF6yPHGrCQJhRmIplJnNEQIO/TNIZ8bBbJbO0M9cnsrecNnpjS91el00sMt0BClEoqqFKbd+Nz8QCAyAMXRc8nz1Ws/FY042RC5Eo3MpnOjMJpvE42SOfGk9s8u+6Ja0udelsK9lJ0g0Z21Kep5yw196rb1U9Mlw6DN7abW2aIoaAEw5ivk3pWx9zYIxd/1MKLOZrBBNohFhNiOXOeB23v/PF9hkfc6wHSW1SPLy59RXkGBwZjNdqw8lP9B2yen3uvzeenMPS2vG1GsyszkkjA+/YOJCX9NeQZGyXyBDRmIh05oyhotEMptCTyhmZpNfIWE9BC6dzGyOR4StkVGyYOiBNnftRm3V9XFZMEil1859wNdyCHD4XK5YLBjvuY1U9zlF3gwAUBbOUZUu857/gtv8sWbBJD2Gz2za3AMOr92gNgJAbmqBx+/68tSH2899UVVYc/XUG2cWzctNLRCcUJllzM0y5s4uXsxmZvfYzM5eq8vS5+hqtzT32rv6nb1Or83usbp9Li/ldnkdGJhwfaMymwpCpVPpdGqjXm00qI1pusyclII8U1Fe6oRUXXq6LivSBnMWDGbaLA3HW/btrt/U2HuOZmijxmRQB+JT7J4Bt8/F08uJYzaT2FyOqMMTz2xKDQEAYKxUE+n5qow8VU6ROrdUk5qp1KWQOiOp0ZMK1SC/dprCx76yCklNXi15rWUbtPhWU0GF2tzh72v3W7ooay9l66MZGgsqfXmYzSRFPJScJO3N4ygVSrTq3hyFimAT7d/Q33LOFV0KIZi1ynTTd/JC75XyuZl9G8y7Puj3OGjgaVSOtRYPswmAPE5m+1v95/c71zycMXGalq1SabV2/TM57/+q29oXjdn0upiv37Dc+9857LSfuUp/Yqujt5V/OmcCmc0kxkgzm1y9EurVoDDFMOd7O7mDG7gOzh0QyotdClEBgzGbbVYzgzGBEADcPLmmwdKboTPU5E2Ioask3ZJEMptJSziNH79AN/dBX/PBpPcLknWiyRgvkGlNGQnAsJhNYV5DYjY5uvSW7+X53AwgsPZSr/64mWsv3PGjvIJybShl7V771n/0hWqKEHrqb8Xcunz1ev/5A45QdQoq1Td/Nzv0LQJkTCelO2TIzKZUsrgcM8n6JAnCnTMaFgzj95rfeZQ05QMQAOGUYYOaUxyhS0u/93UyJQ8AtFU3OPf+zd9xMq6TwoHyuA6+kHLzcwAAiNAufMJbtwVC7yyAMWfBJPNUE/TPUJlNH+U1O3pZWjPfFHBvPH730cZ9x5v3p2rTy3KmzC9dPmviggkZZSQhVibIqEk1alIhg1s17KO8Xr/HT/soxu+jvBTtt7j62ZztHmtwRAEAECLSdZkEIlQKdYo2jSRIJalSKdQqUq1SaKRKlABF+y/1njvdfuhY857m/osOdqc5AgRg0qZrlDo2Wb+jm2L8/N5IGLOZ3BgtZlO4gKp0ZOVsY8UcQ/E0ncGk0OjJoYX1hN37IHJL1U/9bSJ7bcxQcFIGGlQyU1s6M7AW0xT2OBi7hW4952k65Wk87fY4mMvFbCb3GhpbZwpJE0mOsmKWoXS6gU1h7vLt/KAHAKJL1aw03fxknlIdoAOsff5P/txZd9jBMKw+4axmw2M22QjQd/+na8U96fNvTGWrVFCuvuPfc979ny67mY4yGVrPe0/vdNasNgCAWkcsui3102f7hFMoQczmMEZyPGAkmU1RWUJmM+J1FOtF2vThzMaozGabbeBif3dlZi4ATDRl/PaaOwgChY7a3Fx/5rUT+4JTAy0oLP3u/FW86o8ks5nMGCd+gWbqdYrcaUnvF8iQcXkh05oyEoMhM5tSeQ2N2QzAlBU4xkuhRAItbcpRZhWFt1Ua0xWCmE3utwCg0RPc6ijVSJBA2AMxm7NcIzj+bozmmCU5RtmC8Tpxz0VejgIjhlOc+/g/Dcu/BwBIk6Jf8PDAx9/DmInLgnEff0e/7IdkegkAqEqWKovm+UOb2YMiY8iCSW4kgtn0Ut4+R/eEjFIA0Kp0qbo0q8vCJmAYPODqP9K450jjHrVCnabPnJpfMyV/ZlVBTVF6iVqpIZFCcu8YAqRWaNQKDfdmSQLbjRmKoT1+V2Pfhfqe2vOdJ853nXT67H7ax6lNQB+l6tI1igA51Wlt4WQiM5vxYZSZTYORXLY+q2aVyZiuIIiY+hczgDFm42YD4UUAABAIsQyoxMBdpSraWgkYTNlh45NUIL2J1JvI3BLV7GtT3Db61E7HwU9tdjMd7oPRYjaTHoliNgkSmbt86bkqhGDbW91uBztYEaUmzTTc/GR+iNPsbfO9+YuWnmYvKyWsVqiyQ2U2AcDtpLe83DfQ41/9YAb7UqP8MvW6p7Pf/3V3tHM2Md79T+vUxTq1jgCAqYu1e95T9rf7R4LZTFZw+ekRYjb5xfHHIhZmUzKHCPlz6x6F2XT6vC8d2/3zq9ZplSoAUJLhp4Y9TvvLx/e0Ws0AwOY/KS2L32EyszkMyH6B7BfIkAEAMq0pI4EYPrPJNYbiYjaj1kmo5EVpwiaEhDyvOlExtC1IWLgUyI7ZIBhdC0aYIbd04D2fdOz/u27eNwltKgBoZ97m2PlHqv+SZOkRDQ7K7zrwvPG6/wcAgAjd0n8ZaD6AAluMwxWQLZiRBseZ5n6Mm9n0074+ezf7UUEqc4z5VpcZROm9lLfL2t5tbd9+fiMAqBTq4syyovTSiZllxRll+aYJBk2KRqnVKLWRDrscMvy0z+N3e/wum2egw9LcYq5vtTQ299V1WVsphmLrF6guEv16MGQYchVk4DFSh7WFr6ASymxeARg1ZrOs2nDHD4tM2eHX+HDh8zA+N+P1MPZ+ytrrt1soxwDtdtDOAdrnZdx2BjB2Wmkm6L75vcFVEsBtZyTzZOF2MGxrVGrC52GcVlqtJQSb3AkC9CZy4brU6csMn/6xt+GEJ9wHMrOZICSE2Ty913rxmL1mZVpZteH4dks4bymp7CL1+h8WskQhAHTUe974ectAT+ClLvxTgMKzGWBYMZsAQDP44Aar143XPpLJvuJ8UrV29QPpX/69n6YiTgZbv//YFsfCm1OAPZrzesPmFy0SU0hmNiNjrDObEvIJYDZ3NdX9YufnT81flWcMnDlLY6a+v+d/d3/RYjWDlJ4W5j5CzGbSQ/YLZL9AhgyZ1pQxTMR6Bn80ZpOfH4gMIImixMxmGJ2NHredBgB7v+Btwrij3sN9yWZvm1dgQjSecoUzQuCw0FxOw+Okm067udUtnKxRKHn+ekIOVxqWY5akwFKL9JiyYGhLq+vo24YljwMAUhv1ix+3bvhhpNIjGRzu4//ULXgs8GB20lXKorn+loNCM2KsWDDJjEQxmx2WQAyjklRmp+TWdZ2RfDkwcBwUH+Wt66qt66pFAIAAIWRUp5p0GWm6jBSdKV2flWHIStVl6FUGky5dSao0Si0A0qq0JCG9oLt9LgbTftrnpTwOj83htVlc/WZHt8XVb3X3W90Ws7PH6XVwR1VCCYdcN059c4wF7AcG0/2ObhBMrsQxm8kKjEVrxAgzm2k5qvU/KORymgyDB7r9Pa3e9np3d5PX3OWzW2iHhWKosFbg/QEe3R24QggANr/au/KejMDJifzvaQrv+zhAfvm8zMv/2m4wKYzppClXmVuiyp+kzihQGtIUoeoa0si138548fsdHNp0VJjN5EX8Z+NgCKxfwQz4VIvHzRzY2H9gYz8AABJrssBHlY688fH8tOCU62v3vfv/Wge6fawUcFWLiPMjlUilITS6QOAbAmAw+NzY62YwjUFKSqBQGIxPbLWptWj1AxmkEgGC6quNHRe9x7baI00GjOHYFvvMlXr2vUaTF+j2fWCzm2mJKTRMZjNZIVgoE81sahQKRTAWUk0qVaTCR1NxMZtGFW+7A1sCj9kUfCdY/yMwmxjD1ktnT3S1zCssLTFlUAy+aO4+1Nbo8nt5k5Kfv4GtzEgym8k8164Uv+BRMr0UZL9AhoyokGlNGcPFsJlNUX5DYTbD+PKlrrqjTvY6qJEDBX/+fJfYMQvbCYBe/vfWsBQAIJ5u76j3vvofbeEcAH3/lYmpWfwf0eVmNpPZVh7zFoxz/9/18x9ESi0AaGfdaf/614yjJ1LpkkUzLrP7yBuGa34KAEih1s3/trX1EMZ4DFowyQscVi8g6p84mc0uazt7QSAyJ7UgmNEgzCbnI2DANs+AzTPQam4IpONoDZJQqJRqBEitUBOIBOCWHkjnozwMw1CM30/7gMs/8BILdA6vfpGYzbzUwIGhbp/L6jZLKajEMJvJjdFkNnMmqE3Z4Zjf9ovuL17u6mryOK10OP4jKME/O07AHPH1DcaAUEe9582ft3MXUN4fzrLr8zDmLr+ly99yznNqOxAkSklTTJqlveredENagLBIz1cqVMjnGdVzNiOPUjJgiK9jirobXaorw5oMIVhwQ3p5TeAUTped/vAP7d0tXon8AAMgg0mRV6LOLdHkTFSn5ar0KaRCjVRqglsZv5fxe7HdTFm6/F1N3p5mX1ej1+tmIjKbDD680WbKVrLnbJIKtOLe9KYzHnOnn6+6wy2wdPkvHHTVrDYCgN5Els3VHt/sAJCaQsNhNpMYI8NsIkCzC0seXbgy32hi71blFj57471/3b+ttrstFmbTpNHdXb1g/fR54ZqGfvWCJVCqKbHEbPY5HV/UneKqPOCs7ByDIoDvL7i6MCXtk/PHXX7fCDGbyY0rwS9wHXndeM1/g+wXyJARFTKtKSMBSBizKXbMYmQ2Bc6IyFYW1kPCWx+CVLhUHK85yzGCI/bqkByzpMdYtmCo/gb3yQ91c+4DAEKTalj8mG3zz6OULlU0dp/8p3bew6SpEADUlWuVedX+juMSZsTltmCSHYlhNtst4RMnc1MLORnGwWxKOcwBYZqh3D4aANw+Z6ggHrMJPBoUJBxMbpvjYDYJRGQZ89gkHr/L6rZAOIHMbMaHUWM2bRbK52ZC24FzSzR3/LCw5Zyr+ayrrc7T3ezxOGn2IR/wl0KIjdmMXQohjBDSGsjcUlVBhaZ4miZvklprCB9I57JdnnejxzVw4w5Ditkc/A1CwqyDUpkF6pV3ZrPvTWEYvOnVrobTDrH60+iJmStSZyxNzSvVqHUEexRmdOSWqNkLyoc9Tqb5rOvMbkfdYScb3itQKBTFbHujv6BcXTRFAwDGdHL1g+n//L9ukeoOtAAzcGq7c/pyg0KFEIKqJbqT2xyBF3WIp9BQmc1B2zi+kWhmMz/F9PSSNWsqp6sV4WBzFUkuL508t6j0ozNHXjq0o89pj8RskghdUzH9OwtWFaWmh276adpHUVGGDBBUZOZe7O+SWP8jM5vhr3gtC1+7/X4aM+wLhXL0Kd+Zs2LtpGkvHN25v62BBhxvz0gYDjKzmVx+gefEe7p5j4x9vyDZlZqMsQ6Z1pSRGAyZ2eRrVKl3AcXAbEpWaBSYTWGZQ2I2pXOIoxuvDGYTR1ukx4oFA4xj93PaGbcglR4AtHO+4dz3Im3vilK6uGh6oNV97E3DymcAENKkaOc97P/0acDMGLRgkhYcrcBXEJG1QARm0+q2OL12vdoIAIVpxZJ5A7+HRQ7KIMymuDICaaFakXAwuU2PldnUqYyp2jT2e6fPPuA2c3svwcxm0iLcttFhNtsvuvZ/3r/s9kz2TUGkAqVmKqcvTZ2+NHAYnLXP39fms/T4Bnr81l7KZva7bLRzgKb8GGOgKQwYGBoYGgMK6opgeaFgTDZngkAIAalEBIEIEqVkKnRG0piuSM1UpGYr07IV6flKY7q0Fer34K2vmz1ORrpzYmSR5AVUCgnfjR6R2URo7cO5WmOAqq7dZzv4OfvWlLCURkcsujlz2fpMjS4ckhkXFCpkUJFVi41Vi43WXv/2t80nt9tpCgsUis/LfPqnnm/9tpB9FeTkBfrSam3DCbdIdQda0FHv7W3x5ZWpASB3kiqjQNnT7Is4hYbEbCYtQuonMcwmZOiM99Qs/MacJQbO5nEGYwAgEAIAnVJ1X82iG6ZUv3Rox8dnjtg8nvBYYKwkFbMKJj696JoZeUXcalo9rrdO7D/X0wmiIQu9SA0BenP9Ix+fPfbasT3dDhvm1128JMfIbB7uaHyv9si6ymqdUsW2YlJ61q+uvu1wR9NLx3ef7+uiMU4ks5nEuEL8Amub7BfIkDEoZFpTxrAQPeohFmZTlOFQmE1BDsCRCpcJ44HZlB2z6BjzFgzVU+c5t0k78zYAIA3Zujn32bf/Nnrp4qLdx9/WzXuIMGQDgLpqnWLfc1TPOcnmXGYLJhmB+VpomMymzT1gdVtYWjMrJY8kSDYCTZA38Ht4XDCbWpXeqAnsBOy2dWCGAf5cSiSzmaQQrH+jw2xuerUzJV0x6+o0ySqlZipTM5UAesF9r4uhfIzbyTA09nmY0JGXLCg/5h0zDaDRkQolIkjQGEilCqm0cZBWDI23vtF/4ms77+clM5vDgmAhG0JnSumMqMxmYZlm6oIU9rbTRn3xUpdA9RnTFXf8qLB8lkFcXb+XcVppj5P2uhj7AI2ZQP1JBTKYFGotoTWS+lRSENeZmqW8+bs5hZWaL17spXxCZrOv3bfnA8uq+zMQAkBw1b3pLbUdlB+LVDdGCFE+fG6fi6U11VpiQpW6p9kXbQrJzGYQvPVreMymTqG6bmr1t+evnJCWwS2i2dL3yuGdBpXmvlmL81ICy5BJo/vhsutunjr7L/u/2tNY56UoQFCRmfvQ3GWry6epyLDD66H8OxvO/+3g102WvsAtvqVf19cViqZUEOT6aXOXl1S+dfLAp+eO2b1eXrOGxGz6aPqPB7ZuuVT7UPWS+YWlKpIEAAKh+QUlM3MKN9WfeevMoXb7gMxsxoRx4Rec/UJbvR5kv0CGjJGETGvKGC6GzWzyMxO95TyC3y4wjrAwF45UuMzBOMr4mU1OkXGasxEDkWTHLDrGtgWDab9j7wuayWuQ2gAI6eZ+w3X0TdrWFb10QdG0udF98j394icBgNCmaed80/7lM4CxZHNkC2YkkChm0+GxOzw29qNBbUjRmizOfk4O45jZ1KkMIVqzy9oqqg9v4gnqEy+zCckLYYT+yDObNIW/eLmzrMaQkiH9MnRJqHWEWkfoTUNrZXxoPOU5sdWOaYAhHFQtL6CSwIPNtFgpORDqjMjM5vI7skO0456P+sydXggslAAYEIGXrc8MHbsJAAwD3c2elrOuhtOuvlaf00q7nbTfw4QyDhaNVFpCbySN6Yqcieri6bqCCk1WYfjE2FmrU1rPe45vtQlrieHoFtv0FcaciSoAyC1VFc/Q1h91iVvKtqDxtMfvxUo1AoDSmdpjm+wME3UKycxmEMNnNgkCLZxY9viiq2cXlnD7yuJyvnty/z9PHOx12gBg68Uz989esm7a7FAgZ1lmzm+vv/tAy6W3j++vKZi4fvo8k1YXEmcwPtbe9NLhnYfbGiiGAYBA5vzR/PTsMQC4v2ZxQUrg8U+2PuV7C1dfU1b10pFde1vqaYYZfszmud7OH3/98eKiSffPXDQ5K49tpEahvHlyzeKisg/PH//kwnG71zN8ZpNn8iUlxr5fsO9FzZS1ifYL/g0wI9kc2S+QcWVCpjVlDA+D+QajxWwKM5G2vYUFD5fZ5Febq/0vG7OZ3BRAAGPbgvG1HPY27tVMXgMAZHqxeuoNrgMvDVq6oGj3oZd18x5mTxnXVN/p3PMsY+uM1BzZghkJJITZ9FHePntPRS4AgE5tTNWmsbQmJ4dEMpt6tXHWxEXp+swuW/uJlgM+yjtyzGaWIY8kAttLe+wdEbz8yJxIPMxmMmPQNWIEmE1rn//LV7ru+GER+53fx2x7q0epJnKLNVmF6rQcpVI9xB3BscPjZMydfnOHr7fdbzSRc9YGdsH7PMyWV/t8HixqprCpI8FsJvP6mYDOFOqkKMxmdrG2craR/WTp9h3ebAmaTAEplYYoqzaEqtN42rnp1e6uJq/XxUBo9QEATrXYHBDCPjfjczOWHn/reffRr6waPVk8Xbvmm1mZBSoAIEhUPlt3fKtVrFBcNvrQRusNj2chBAolqlltrD/mCgy6iNnsvOR1WOi0XAUA5JQo1TrC7WAg+hSKh9kc0iiOGwyH2czUG3989bqV5VUazjGaDMYbz514fv/WZksfgwOp26zmX23//KMzR767ZM2Skkp2T7qCIJcUV8wvmqRgD8IIotM+8Nz+bV9dPOP2+5B4KeKMppei3jt1aEfD+fuqF901c76SYF/Hh6qyC361Zv3e5ot/O7i9wdI7fGbTR1M7mi4c6mi6vnzGA9WLMrSBMPksvfHRWUvXTJr6p0NfH2pvFMvHxWwmclzHLMa6X3Ak4X6Ba88faVt7pObIfoGMKxAyrSlj2Bgesxkpx6Ezm3zTmXsZnaNUa9HURSkXjzncNgYzOBYpfrFDeVAvijMdrmN2pWAsWzAM7dj1Z3XZcqTQACDD4sfcJz/CoZMHI5fOLZrqq/eceFc795sAQOgydAu/49j8kyjNkS2YRILbA8NmNjsGWtkLvdpg0mVgfFF4gkZimE00t2TpD679nzRdJkIIY9xmafzlZ99v6qsbIWYzP20ie4PBTI+tTboIDBhhYKkJYREysxnE5WA2T+ywVC1KmbY4FQCUKmLCZN2bv2yhKUwghEgwmBSmbJUpS2lMU+hSSJ1RYUhTKFQoJV2BENLoCXX4JETpEXLZaL+PoXzYaaP9bsbtYGz9lNtOO620rY8a6KbcToaldrR68vE/TQgJ7n5/oLvJB6E5M7rMZpIjMcwmKFQk5yjMUAwl53+A2atMoVM1j389YO3zc5JiDIhhwO9jQjWZMFl39X3ZdUccTbWuvg4f7cM0hRlaVK3g5CYVBKlASjXKKlQXT9dVLTJk5IcDNlmCmsuHhhTK2b2ORTebMvKVAFA8TZNRoOhvoyT7h6Fxc607LdcIAKlZitRshdvuG3QKxT4nkxZS/F1czOZD85ZfN6U6lB/FMMfbm/6w68vjHc3C9RADA8z5no4nP3l9SUnlk4tWT87OZ8lNJRl+/5jF7Xz35IHXju5x+31S5UswmwDQ47A9u3fThvPHn164ekHRJDZDNalYWTpl8YTyd08f/MeJfXqV+try6ZWZuQRBXOzv3nTxdKvVjLluAwzCbGIAl8/7fu3hbY3n7p+58Lry6UaVBgAQQiWmzF+sWHfNW38Y7m70JIXw0cAV5hdoFz7u2PyfUZoj+wUyrjTItKaMRIDVmVLHrge/j+hRcHWohP8eG7MpUR8pqeA30hxlxVzD+h/muWx0w0nXzvf7O+s9o8NsSmciKXVFO2YossVweSwYUGiVGRMZ90BgLwmndO+lPb6GfeqKlQCgyKrQTrvReej1WErnFu3c91dNzT1IoQYAbc29rt3PMi4zR1y2YEYSiWM228xN7D0CETmp+SD2P/h5A7+HY2Q2J2aV/Wjtr0y6dDYZQqgovfTpq3/6zPsP+mn/SDCb2cYC9hPNUL2OrrCEyMsX3tY9iSwAACAASURBVJCZzTDCGmCUmU3Khze/1jVxis6YrgSAyrnGWVebDn1poTFGDFj7/NY+fzNXikteSf4JJOFIxCCFCFh5X3pqVsAW7aj3HtgwEG5cDAuozGzGAo6ZlYDOnLcm/fbvhZno6HA76OPbLWJNRvmxy0aHkpFKVD7LwJ6z6XbSA91+a5/faaXtZoqmsXOAxhgTBEpJVxIkGEwKY4YiJUOZlqtUqiQGbqDbL2hMSKG4bHTtHseyO9IAQJdCls/W97UNRPhNQfMZT/WqQMxpQYWq85I3prBfmdkcHrNpVIdfDVTX2/XSwe2bzp/y01SgF6X4O5phdl46d7Dl0s3TZj80d3lo87jL591y8czfD+5osQb2SUiwmdxrEQ9Z39/9gy/eWVpc+cjc5ZXBreJqheKBmsXXVcxQKRSpai2byYriyrunz3vu4Ncf1h6Nl9lEAGaX4w8Htm64cPLhmiVLJpSxh4EaVOpg4uEwm0mLK9ovmHWfa/fvZb9AhowQRnyfkYzkhjjYMHyNRV9hUTLBozaeEOb8D8B9LIc5t6VqEUUq+A0W16NmZSoA6FLIqiVGjZ7AsUkJG8BJKEgrqqWE+OBSkbsxQuhrMgFJPJvl/cu9I7G7X9zlPE4cS11i6cRIqU279XfZ39uV9Z1NqglzhaVj7NjzXCixfsl3EKmKsfRQKqr3ord2A3tNGLK08x4ZtDmAAXOtsMhtCYoLTCrJnmSB+F2RzLNN9CsO6xP+JedfoVIK/1a7rO0MDgQl5ZsmBJOLepqfARbMRgnNyKkqwPKKtSFOM4TynKqp+bPE0mJlgSU0paAdnKoCkIjITsljr2mG7rF1CH89ormEpVsnVIQS2juJp1rMa4S05hdKCVdd6aUwmLCrybPz/V6GwQBAKtCqe7LTc5VxLaC8P6IfAY5BqmSGrnpV4K0ywe3nTLwLaBzL7hW8gCa8M2NEe727u9kLwUxDRTE0w4ZwiqHVk3mlmsnzjLNXm1bcmbnqnqybvpO77om8Gx/PXX5nxtLbM2quTi2r0WdPUElymgBg7vKLGxOajOf2O/yegE6eVK0lFSjSb6qrwRe6nTVBBTFPoYR34ziChP4OjbpQR0gZ9pzuYTDzjbf/uqH2qI+meHpJWs2Ax+9798SBJz9+PfT1B6cP/2TLhy0D/eERiLD8hK8Fo4nBz9DbG849+slrf9m/tc9pD4lk6Y0hTpOFQaX5weI1iyeW8acAP0epngl91WDp/cn2T3Y0XQhnKuwZnrzwqwg9k6RA49svUKiH5RfoM8aaXyBDxuWFTGvKGC6iGXaxMJui/IbIbAprJSGl0aLiKl24ppx6pGQqJkwJWCfmTl9ngxcAjBmK3FJNzMxmKFnMLpbEghaDVGxWdZJirFgwmvJlulnrkUKtyChJWfkvEDxkMJTYU7fd13yIvVbmTNFMvyn20gP/MrRz31+x3wMAAEg7+36kFfJWl9GCSe65lkBms9/R4w0MIuSbisJfJpTZnJBRyn70Ud49F79ir1UK9W1zHjTpMsTSYmURF7OpIJTpuiz2jsvnsLkH+G0XLwaiGxEXigg6P3lxGZnNfZ/1t553sTfSclRX35uNCICoyy6EBlP8R/QjwFGltEZi9f0ZKk3AED22xdZ0xh2xpTKzOWxcFmazdr+VYUJSPE3W1+4NJXPZ6eH82hkGs4dyAgBDY1ufnz+ovNnc1eC1dAc2nueXq3UpBAhGP9jSvjY/5QvczyxUBuP5ZGYzKqLydzExm5wbVrcrpI94eklazQBgbHE7Q9/ZvO7wofPhKkQqP8JoYsCA7V7Pa0d3P/TRKx+fPeqnw4HGAMBgTDGBOwqCfGzuVSRB8KcAP8eozCaDsd3r4eYvM5tRMV79Au30dbGXHvh3bPsFV8BkkzGmIdOaMhIAnmHHt9hGkdnklyOSMmUr7//viQ/+YmLpDH3wm7CdUVajD50DVXfU6bZTGj1xx7/mP/S/RVVLjIi3HISluPsZeO5jzOZswpnNKwBjwIIhVfoFDyEycJKXuuIqdfFCgRhmaPvOP4YKMyx9CpHK2Etn/6U6Tvnqt7F3SFORtvpu8ZELl5PZTGokitnss3d7/G72U3ZKvpLkHgAn6ml+BrEzmxZnH3utUqgXTLoqlGxe6fLnH/j04WU/yDTmoPCKL3DapOojmCd8TaNUqLOMgWjN0GvQ+W0XFSG+EXGhiKDzkw9xrhEJZzZ9XubDP7ZR/sDt2avTJ89NYRfyKMsucEdb8Ef0I8ARpBCC+TeYCsoDu017W3273jcHw5ojrnEyszlMJKQzu1vcB77oC/7Xf1Dw35f9lp5AkKPfxzSdcfKnZHhG9HeGYyG/frvnd9+q++DZ9v2fmZvOuKy9fq+b8XsZyo9pP2ZozDCYoTHlx5Qf+72M18X0d/ouHnXu/cT83q87fvfNhtq9gTA6yoet/VSoLEFjMAaGwQ0nA2y+LoVkXzQEgtHHgAEzDB7oCRCgabkKRHC/lOgcQSYys5kAZpMjDwAkQSwvnfLS+kdMWl1M/J2g88NVwARCTy1a/b0la0ya8KvSozObGKDNav6f7Z99/4t3Qsxm00Df+nf/uv7dv13s72bvFKWmF6Wmi4rl5xiV2ZRqSLALpOSFX0lbCkmMceoXPCn7BTJkJBDy2ZoyhgcsOjwIhB+jn7PJN18kjwnDwuNjROdsCmoklioo09z1TFH2BDUA3PmvBa/8uLm72YuDp94ggGmLU9hMaT8+vdNGKNANj+aUTNcBwPof5W95pffgFxaaCrU4+EfoFXAOM4vnwC9hD8QmJX3G0xUBhDG+jOfpqCbM1Uy+OlwbpVa/8CFv0wFgKK6Y5+IOX9sxVdFsAFDmTdNMvc59+tPYS8cAQPuc+/6mKluJlFpAhHbuN90n3mVc5kHOKQd2TozGeTrJDdHvcSjnbFqcZrfflQYZAGDSp2uUOj8dduYTdc7mnotbr51xu1qhAQAFEV7ZEaA0XcYdc791/Yw7vz73+Zen3ms219MMFdJkQztnU6vUsUGgANBta+d2hfDXI5pL/NUhpnM2o4zRuIb08ifW9iN5zmZHg2fn+z2r7skBAETAjY/lNZ9zuWwU8Icg+kHVvD+iHwF33oaS5ZWqF9+SxiahfHjrG/0OC809nTPSGjey52wm7VyTstaG2pkXT9jrTziCQgiAdwirWks8+WxFWjYAgNfFdDa4hVkHZ8RAj4+mMKlAAGDKVva2envbvIchMAnUWkJjIA1pSoJExjRSqSR8HsZuoTAGl5V2WukQHY8QECRhzAjoPb8f280UTzHzG4MxtJzzLLgpUJvcUlXjKbf0bwpjaw+VWagEgJQMnscUcQrFfM5m8oLfC9zffkiRCHUEf+Hh58bKIEDlWTlPL7n2qvKpJCIenrfidzs3Sp8mKWb1uJ0f/FiZmXdfzSKtUnVN+bTn9m/bdumsl/Lz6iIYzeCQMxibXY6Q6b6/5VKTpRcA7W6qK8/IAQAlSWbpjI2WPlGxg/cM3zoD3p1QpwnUMtfdCX3F65krAePPL1DkVsl+gQwZCYQcrSljWIj1kXXkmE2JDCWEMOd/4NssnNuc0rlSFbMND/2ymOU0AcBgUkyq1nNrmpajLKgIxoy0+7oaPcY0RenMwPNbhRJd+62sax/KVmm4NoJ0A4YWsynRAzFIRYzcGQ84eurcJ5u2N7S0RzljlAdhqsv4bBalLH8SETwPRztljTJ/uqA+2Otw7H0BMA0AiFTqFz+GlJq4SscAvqb9/tbD7EdFVoV68nXCxBEyBPnZLAAA+P3+Tz/69GztOa9gV1dk8COLBL9Hzu+bd8n5l6+UaIbqGmBfFA5pugytSoeFnS/qab5WiyVm81TboY+Ovk6FDGgAivFTTPjoOr3aeGP13b+7661n1v5mRuE8JamS0NTi+giqGkydmxreTd9pbeXXXPTrEc0lLN26KDGb4wNbdu7fvGN/V09fzBKi+LDwlcBFwbxkkpqfJxVHzObOD3o7LgUCijPy1SvvzkIEDLrsAne0BX9EKzPmS5EKuPZbWaHXqdfudVw46JCSkjYwhhxmyJMazwtoV2fX5i83X6pvoCl68NQhjEhnCnWSUk2YspWBejZ5/P6QlFCTuR2Mxxmof0aeKpQZ+7/XzVh7/e11LsrH1Kw0Lb4lY/J8o7WP6qj3DPT5KX/4LeoYg1INBlNgUfY4aKeV5lVc1JiuxvD+94wCVaTJgDHYLQGlighgt6vz+keqc4SZROrGcYJ3Ptm068CxAZt98KQAwFcGAuXBmyuDxWxys8zQG7+79No373ni6oppJCIA4K7qBRVZeeL1U8K4Eg8TBgKh7y65RqtUAUBhavr/rLn92evvrs6bwL5FPXrMJgCY3U4mmGZFSWVN3sQZuYUrSiazd/w03eWwSRUbU89gwboX7QTSOGI2xz7OnT2/4+sd7e0dsl8QpXQs+wUyZESAHK0pY7iI9ZF15JhNbl58qZhjNvm5hL4jSJi7Jv26b+VqDYEN5pQff/H3rgOfm7mPOYun6UIGcf0xh8dFe1zMGz9rW/+j/NxiNQAQJFpwY1pqlmLDc92OATpcU3HtYYgxm8IuHU7IyXiA2+M9evLskZNndVpN9bRKp9MdPX3AVuO17/I8m1XlT9VMWR38ggFEAABSG4xLHu//5+MIc5xMDJ7zW/zddcrcKQCgKpqtKlnsrdsWV+mY9jn3/kU1cSGQSkCEftF3PLWfYK9D/AbG0X42O16Aob29o6O9Y+eOXROKCismV5aUFCuUg6x9/BjJ4cZstpmbZhUvBACjJtWoSe22dggDIYcds0kz9Ot7/3y67ciyijUZhpyG3gu76zZrlbq1M9YvKV+tUgQe6mhVumWV186ftOJcx4lNp98/0LDd4/eIdcegMZs5KQWhO13WNoHW4/RW+POwYjbHCaw2x6mzdbsPHstIS62qnOT1+QYVESj1OCLpEhez6bJRX7zc+cBPi5VqAiGYvzbj7H5bwylnUO9KSQ0vZnP2mtTiabpg6fTmV9g3F0lKjXrM5ngAw9CX6hsa6hsUCkVp2aTyyvLCokIi6pto4+iWuDuT5WQCQmotoUsJKNj+Di/wFh1ezKbLTrnstD5VAQCpWSpEIkxjga2n0ZO3/0tBQZkGACZM1hrTFO/8Xxvlx7xqASjVREp6wMyzdPv58xNC8zQkZenyB1dvMOUoEAGYkZ5poSM7AUChRNG3H8Udszke0N7Vc/bCpa927i/IyymZUEBR1CAC3NaGmhpvzGYQCkReP7X6sUVXl6Rncb9st1nUpEIkJr1iiIeJANTntPtpWkmSAEAgtLi4Ymb+xM/OHX/p8I4+pyN6zGav03aup6MmfyIA5BlNf7rhXgCsUwbW2SZLX5vVzOkKUacM2jPCBkR8a7xAPnLM5jiA1+s9V3vubO05jUZTMaWiorw8Oyd7EJkr2C9QTlyIZL9AhgwO5GhNGQlArI+sY4nZFErFEbPJzQVjUCjRNffnrHsiP8Rpumz02//bsm9DP0PjkBRBoqkLA6dnUn587iC7tQp3Nnhe/0lr3dHA0eOIgCkLjd/4WWFGnpJTU6nagxyzGRMIkgAAl9tz4Ojp0+cvbvx804F9BywWS6T0nE4N4TI8m01Z9QP2NBwAsO9+nvEG9uJpZ96izCwTZMg4Lc79LwFmAAApNIbF30FBgin20j0Xtvh7zrHXirxp6uDJiZf/2ez4AQbADNPS0rp189aXX3xl44YvLl28xNDRAp0SGLPZaW1n7yGECtImcL7nFifqaf6MHzRmk6L9hxp2/W7Tf/7ko8df2vnbC52nT7Qe/M2Xzzz55u2fn3zX7XOF0qsVmuoJC3609td/uffDW2bdb9CkiF3B6DGb3GjN8pypClIp0Hq8qkssBqIbEReKcaXUANjfRb/FuvvgiTPn6z/5eMOxo8ddTlcUAYFSjyOSTlLz8yPpYozZrDtqP7wloHvVOuK6h/M0ejIsJik11JjNtFzlynsyUZAQ2/xKn91CRZWSNjCGHWYYOfNxAgzgp6iLdRc3fvr5yy+8snXLtrbWtihtiKNbhtaZGADAYFKEHGlzt0+syELXHgftdgSUsNZA6IyEQPVhgIx8VcGkQDQTIJi8wPjIb4qrr0olScStlkpL6FIDXKq508/VkDzFHGwMQ2PHABUsmgxORonJ4LKFaU19GinonEhSUjovQjeOB2AADNDe2b330PFTZ+s+ev+j2jNnfVEe2/DDEwXKg7d+RYnZBCAQevXuR//3+rtKM7JD/JzN435255f3vvncqc7WcNainubUPXiX0/kUw/zXlo++/dErp7paQ8IGlfrumQvevfuJ26bNVZGKKDGbDMbPHdjmowNTSKdUhThNimGeO/g1zTASYiI1Ga1nBBhOzOb4mWusX+DxeM6cPPPBex++/sob488v2PPC6PgFVPdZ9lr2C2TIYCHTmjISg4iGHd/wHUFmkw+CgFueKlh5d7ZCGVCyPS3el/69sXafDfONA1OmomR6YE/6QLe/5awrVHtrn//tX7Yd+mKApUERgoJyzSO/mZCZr5TqAd6/Q2M2r0DHDAAYhgEAj8dz4vjJd958961/vH344GGr1SZOedktGGXuZM3UwCNZ2t5r2/5nx76XA/VQqAzLnxBn6Dr2T8rcxF5rKq5SFs6Ou3SGdm7/TfAD0l/1DCBSInGEDEfSghlnYN+ISjN0a2vrlk1bXv77q1u3bGtqbGYizKFEMZvt5ubQTzvPVMipj7B6ohoAb6wE9rSEZmQdNn/oLsXQTX0X//TVz7758pp3D73YY+vAwdeykARZmF7y6Ip/e+3hLY+t+LdJWVMUJE+zRWE2c1PDrbhx5n2/vePt+aUrVaRK0BVC+3+ozOZ4BNvPNqvt0IFDr736xofvf3TqxCmPR/okhMvObDI03vpmV+jN1BOm6Bavy+CEZETgQ+NnNkkluvahLL0poMHOHXCc2mEbVGrUmM3xCIZhMIDf77t08dKGTz57/eXX9uza09nRKZl4ONZIeo46PVednqtOy1WxF+k57DX7nzI9V5WWo8ou0oQEPQ46pJvEv2+GwebgW4M0elKfquBPKQwALgft84WJRYKACZO1dz5T8P0XJi1al27MULDRSRl5qhCXaspW6lNIrobkKWYMGAADZjeqA4AhjYzyLqDQm9ABgD0GVNA5klL80vhfjdvJhgEYjDFAd0/Prh27Xvn7q59v2HjhfB3lp0QJ+a2Nk9kMXSKE5k2YpCACw+P2+z4+feTmV37/wv5tDp8HeBMr8p7rcKG8YaIZ5khr44PvvfizrR932gZCybP0xp+sWvfK7d+aXzQpHAEtGE0Mxzqa/2vrx90OG7ewPqf9v7Z9dKD1Eq9ZGDAAgVBBimnd5Jr7qxfdNLlmoimdQGiQnhF0yFCZTRiHYP0Cp9Mp+wXSpTO0Q/YLZMjgQ96ELiNhwDFtixNviuDZfBG28AyyGx1E2al1xJw16aGb1l7/6z9r6m3zIRBupquYa9ClBF2sg3b2EPpQPXwe5rO/dSEC5l5rYtMY0hRTFxl3vd8v2irAr32gjOB1zMfGD38z3fgFa8dYB6xHjxw7fPhoTk5WeXl5eWW5VqsNpeEMfQijtesEEcZljxNqI3vbeegftL3LvufvhvnfIHTpAKCvvs2+409Ubz03Q8Zjdx54NfX6XwAAEArD0ifMzQeBsyclltI957+kus8pcqYCgDJ/pnrSMm/9donEETIEPCK7TsYv2Jnm9/sv1V+qu1Cn1WrKK8onlU3Ky8/jeAJ8TSHxe4x1N3rHQCuDGRKRAJBvmsDrzkTvRpfSFYAAzM7eV3b9/uOj/1gxee2aabcWZ1YQQVfeoE65ueYb102/41Tb4c1nPjjZesjuGZCoD6foPE60JgBMypryH9f/4XDjzjf2/7HFfInbFf+fve+Oj6O69j93tnetem9Wc8dy7wZsbHo3zXQIBAJ5PCAkee/9kpC8dJIXCC30FmN6MxgXbLkX2Zab3G313rbXmfv7Y2Z3p65W0kqW1/P9gDw7c++5dc495zu3sDoXX62L3JBejX7+gu5sHe0dne2d27ftyM3LLS0rLS4uUqlV7JeIp8OjafvhWY1u7w58+0briv8qIBQIABYuTz+83d5e540eK3wZaW3eH27MiQvM5TOMdFRnH7n+/a5ggIptDfsIrUY/f0FSJAC43Z7Dh2oPHjhkSbKUlZWWlZdakpJEDK1YqoVbmb/6cNJAs+Sht87kWW0s0fQqdQDQ6AgDY4mxuxTu6/Bv/ax74U2pChWneVJy1Fc/nLloeWrtDse+9X1puerwo7Jphpuezv70b63O3qDgJJZIFwv4mDohiDBHFLLWWFUi5ezHZTX6eQpM0eQbbmxoamxo3LyxqmhMcUlpSX5BHsFQkOySc2uB07wSq9EFoDCuaa7/x+bvdjeepjBnZOS4AxiplcpZBaXhiIXWVJ1K7Qn4Q4nymykQJD87XL2t7sS90xZcM67SpNECAAKYmJn7z2vvfGfv1n/uWC+6Gh1j/P3JQ4fbmxYWVYxLzyYQOt7VtvHMsUZbT/jos3CxtArVfVPn3zJhukHNzMtzBXyfHtn75r6t7oBfWDN8C4tVUYNajX4e4/zzC+ytMfsFzwKgQfsFvtHnF8iQcW4h05oyhgSOHxXFxeIpQGmHdbDMJk8IBPxUb7s/OZOxdI1W5YzLk9e+2x7wYbYFoFCg8XPM4WiHt9oFCeOiSYayqYaIcAwdjT4QSVaQe54jOCLM5sZjqz/dF/uBFecSCoXkbHHajmlv62hv69i+bUdhUcFMUqkWoZPCGAkLRpU2Rj/hSvoG6Wh37nofMCZtzc5d75svfhwAkMZoWvCT3k//gyfQtfNt4/xHFeZMANCOXabKnhhoqhFYDNFSx0Gfa9uLlhtepG8YFjzpO7MZKFIksITAuFswh33F6154Gc5zkCQJAB6P9+CBQwcPHEpKSioYm8lzhEWYTQj/jInZbO1rwpgCUABAhiVbgRQkJkee2QSAXlfn5/veW3fki6kFcy+fdPPE3Omq0AxNtVIzrXBeZcHspt66rSfXbj25tq7rBMZYlNnk0ZoAQCBiZvHFZZkT39r63KYTqzE9YSA2ZpPTE8WYzdUrqzCuitaQowaSOyZjTM8VamhoaKhv2KxSVYwtB2TiUx7nlNk8vNV2eJtt0oIkANDqieseyf7Xz8/SFEZI5JDORk9KU11yewq9hAJTsO3znvZ6H8TGh7JyMMDKGcgA2ujbs++Fk6IteB6BokgAsPXZ9uyurt5dnZmdlYIqopBrMVbmIIAIvhLjMZs97cxsTUKBktLVAC7mWahLUSRe/0HHyb3O5Cy1So2mL7Nml+jCOTIlK2deaa1cbPF5KHa6ZVMNNz6RtepPLV4XKcpsSswHF2E2NYaIoeJ3U1FM2QExm5Te9tILX0avvb0Ha6MHGBlEMdXoOemBYPDk8RMnjp/Q6fUXTZkMCAHG3JIPidlssvW8vnPjl4f3uv2+iBUH3E6FASE0KTv/0TlLZheWhONeNXZKit70j61rjrQ3020u0kwY2p32P1etXn3swEMzL55fVE5P0lQrlHdPnffPHeuj7LPZbO9deWAnk5iAb6SvlQr08IxFt02cqSAiNWlQaVZMnm1Qa/667XuSong1w6lknsYdOLPZsO3gS6u3RWvjUQNiIH7BDFKpOb/9gkcU5iwYtF9A+kebXyBDxrmFTGvKGBqiznqIZtjFmdnkCgAI+PF7z9bd8V8FqTkaAFAo0fwbU5PSVJ893+JxkmELwGCJrEDvbvU3HHdzHCsCplyadOWPMvSmyIlD697pPL7bFbHUw0kK7Z3YmU1hJQzWMRufXZkz/jwYW46dqjt0LIr3iAgCKAxZWZnlFeVjSorR1+sCwPNLRtaCAWScsYIwptI/PIdWB7vPAgYA7KpeaZx1N6GzAIB+4tWOqheCXafZAimv3b3nfdOlTwEAUqiMcx/uXfWwmMUgnToG75GvDHMfZT7MFsxUF8zxn90ikVVxgfG1YPJU7UuXXQajHmSQXL9+Q5QABEFQFKXX6yvGlpeWl/b6m4FH1HArU8A99c9s2tw9Dq/dakgBgExLroJQkkGSO4d95JhNwNjpc1SdWLPzzMYx6WOvmLT8koqrwsvPCaTITx5z+8wfXzflzmOtB9fXfrHz9A+egJvtRpl1FoOG+Rp0uuOoN+Aen8MsobLqUx+79Dc51qKVu18mqSCX62IVSIRiYRefz2xWzhuXasgFCTScPZNsNuZlZ0gFGDHs2HuwoalN6ildhwQi8ovyyyvKCwryT3xcC/wX61wymxSFV7/WMmaykT7FpXiSceYV1h1f90RZKsHrkVGYTYRgwfKU5CzmW2PTSc+ub3o5Y2d/zOagpxnGPoCmqMZULi6SasHRg56enj27q6MEQASBKcpqtVaMqygpHXNiixtwL0fnjAizabIqxamWkOi+jgAZxPTi7uQstWiXIgPUmUOuM4dcCKBmo618unHeDal55ZG5WioNodLw2ZDSqYa511s3fNCFMQiZTQQovBOC10VhLND5oWrQ6CKSvS6KVz+DZjYJnz76AHqytrakMDfZaomxqocP36zf7JQ+1JFABIUppUpdWl5SVlaSlZ2N12EQKfkAmM0wMMD71Vte37mxzW7DCECav8syWx+du2RZxaTwdEgaCKE5haXjM3Pfqd78dvUWHxkE0WbCQAE+1Nb45Op/XzJm3JPzL88wWQBARYQX9kY7QSh0zeu+TF7LU7NuGj+NzWmGqg5dWTbp+5OHa9oahTXDxhCZzdSKgvFJ2VItOHpQd7b+5KkB+AXw9Xq6Oc8Dv2DzP4Odp9gCKa/dtfs98+KfQQL5BcBJTYaMkYZMa8oYMuLIbIpZ2DExm/wsYUCo8aTn1Z+dvvXp/OLJRoSAINDkRUnJWer3nm3o6wzQg9+4Oebw5psHNtnoTefoNJUqYuHy1bViPgAAIABJREFU1EW3poYDOPuCX73YVrvdEZ6HJMj7YJhNyXodlGOWbsqaUGGUkjl60Gd3itKaBIEoCidZLRVjKyoqyvQGhnSObE1/jiwYZXKhceYK+ibl7rNvfoWZrosh0H7cXfOpcfZ9AEAYU42z7u5b/Sv6aVigc9u/DDPvIozpAKCbdIOj6vlgW+2ALBjK3eeuftd8xR8AIaTUGuY84q/bATgoGlhKYBwtGAtyaUvHwKhHwB+A9SL3CYLAFKVUqYuKCyvGlufk5dLl6m1ljvfpn9kEYVeUZDabeupoWjPdnKUglAA+gXs8oswmIOQL+o621BxrOfDmlr8tm3DjpeOuzU7KUxCMVaBXGysL5kwpmO3yOnac/qHqxOrjbYfcfifGON2UE87poebdb2x5bl7pZffMfSLdnI0AqRTqm6c9gBD8e9dLJEVyuS5WgQRkHgCI1QbGGGXmphWkSnY2j8OWk2YdX37ue+PRk2cbgE9rIvotwjgjI718bEVpWYlaHVkwK1EZ54zZ7G71f/dW6w2P5xIEQgQsWZFxcp+zq9k/dGazeLJh+uVWOmzQj79+sd3noRDAgNaw0yPm8K1G1xHWMaVJUu07eqBr1u7ZLXKf/khjMBjGlBRXjC1PTUsLPXED8Ms7UGbzy1cb6Z980iV8AwEC0BmUi+/IpG/oTaGzqiWYTVuXP+CjFEoFAKTmqEGySzH/e13kgU22g1W2gvGGudellFYatHqFMEMAgBBMudSy6cNuMojZGjJc3PDnap+b4o7XHGYzvEkR0LSmsBoHx2wGlWNKC0TyHUJXS9OYwrycrP5Ogh5+rNm0XXiTLjIiUF5uXsXY8qLiQkIRqSiJkg+Y2aQo6rdrPw/LFOXvkrSG2ytn3zdjkVET2dSVwlS322XVGeh9OS1a3ePzli4rn/zrdZ8damukMBZlNgGBLxj87vjBablFyyfN5BV50MzmkjHjtErmw+GGM0c/q917VfnkZaUTECCtUrWoqKKmrYFfMwIMhdnUp1jGFJ/78bFfOJzOU2K0ppRfENmp+pz5Bfmx+gUz7+lb/T88v8C1/TXjrHsSyS+QIePcQqY1ZcQDQ2A2pcQMiNkUyxIGhHo7Au/8uu7aR3MqF1vpKHnl+of+UrzyT40NR90Iw6QFzJdwisKHt9rC+l6tI65+OGva0oh709Xs//TvrfVH3AARF0tQDUNlNnmjw+Acs/MRCCGMsdliLi8vKy0rTbKKOJZiJsiIWTBgnH4LYUih73hqvw90nICwQIpybHtdP/k6eicdfeUtzp1vB7vOsAWSzg7nzreZD7MqrXHeI72fPoYwHpAF46n5WD/zfmVqKQCoSy5R50331+/gRpctmH5AF50giMLiwvKKctZeYCLoh9nkvI/9MJstfY0T86YCgEFjtBqSPX5XSMq5ZDbpTtDr6lq569XP971bWThn2YQbx2dPNWqZyZgIkFFrXjL+uiXjr+uwt+yt37r99IZ0U3Y4oVZbI4XJzSe+O9Zac//8n80pWUwggkDEDZX3Hm2pqa7fwq6K6MymYHRgl0ZczY9y0GotOSV57NiKkrISvV4vHm6UMZv71vdOnGspn24GAFOy6vL7Mlf+sSEYYDcHCGMB61JIT+oMxFUPZ4Rfte1f9jSfYk78QNKxzsk+m+cjFAoFRZIqtbqkrKS8vCwzO0uyPENgNjesjBxDxDxC3J8AgMCSqr54eQa9FWZKtiYiQIzZtPcEA36sNQAAWFJUCiWQwX6YTQSAMdQddtXXulOy1ZMXWibMM2cVRyitMHye0GnUgp6mMyq0odXlfZ0BjEUIIQAAhI3W0GIdP/a5Q5vfxYPZPB+BAGgrIzsnu2JsRdGYIrVKeISmmBk8IGaTLStkhUAofLgfGNTqK8dOuX/mosLkNHaUJlvPe3u3fnVk38Ul4x6bd1mWibEny9Iy37z5wX/XbH+7eku32ynFbPKywOUPB8xsKgjINjOfc0iK+uPm1b0ed6OtZ25+iVmjA4A8i1XEd2DXgZQhMgBm87wEQSgoihzNfoFhWsx+wdTlzp1vCvyCzvj7Bfkz/HXbZb9AxoUJmdaUMSREM4JjXYwjEDhwZpMrIXyFASG3i/z4b4227sDCm9MUCgQA1gxVZqGm4ajbmqnOLWPWMbWe8XY1+8Ox1DpizEURF7ThqOfj55q7m/2iLhY72cExm+LlFylqQjlmmML01BKjQW82GcZOnFBeUdFPlHNkwRCGVOPc+5mnZMD2w//x8hNoPeo5/K1hxgoAUJgzDTPutH33bNg0xhgQYPe+j4yz7iWMaQCgG3+FY/MLwY4TCAZgwVDODs/+VabF/wUIIbVeN/1uf+MeoILnxII5z4AQAkAI5RfkV1SU5xfmK5WSwx+7AuLFbDb11IflZyXlt/Q2sqScY2aT/ukNeLaf3LDz9MaClJJZYy6eV3rZmLSxbF893Zx9+cTlSyfc5PG7wjLabE30RYej9W9rf+HyOZZOuBEAlITqmotWVNdtYVFTQ2E2zxtghAmCoEgqJcmi1WpnzZ+TkZkpGZh9NWqYTb+X+u7N1twyPb0Ufdxsy4R5lpqNfbz1FSIuNOuSPRQiAhbekpKWxzBc7fW+LZ90c+XIzOZggBCBMaVSqcaUjCmvKMvOyY6yWlyqvAOds9lvrICPsnX7kzM1AJCRr43OUbrtQa+LNFmVAGC0KtU6wuMgeZpMaqYnpnBXs3/Dvzur1/b94v0yOjRFYvrMK2dfcP27nWSQfsnCAhhh6QWRpcq9bQEK83oaExwQJGcxtF1fZzDMfopUY6IzmwRBYIwz0lLUKtWSK5dpNCI8Mo3IqzpoZlMgkcffKQhifnH5Q7MvvSinkGBFsXs9Hx/c9V711nanDQA+P1S9p/HMT+cvXVY+SUkoAECrUt07feHsgtIXtq2tOnMsCrMpnf7AmE0KY4ePWcJPIDQrb8zaU0cmpueG529mmZLKUzNPdLWxJXJYTb6GZMmPkdk8f0CF/AK9Xl9eUVZaXpqamho9yjn0C0zzHmSe9usXmDJGyi+4x9+wW/YLZFyYkGlNGUPF0JlNEYEDZja5+prr9AeD+Pu323rb/Fc9lK3REdu+7K5e2wuAy6cZ1Vrmc/3xPU6flwrHcvQEP/xT872/K9Dqidrtjs/+0eKyk2wlz10oE0krklOhScdzH8MmVJTyixQ1cRwztUY9aWzppHGlBbnZq9dvSbJE3UMKAwACwOfEgjHOuE1hZKYDeA6vDrQe5XIzABg7tr6mr7wZKTUAYJh2u2PzS5Szky0w2HXaXfOJcd6PgeZJZ93f9/XPacsmdgvGXf2uYdaDhCkDALQTrnNtezHYekgQfUQsGDhvQCCUlZNdXlFePKaIs/5XGnFnNpt66sLCc6z51We3iStKQWONJLMJABRF1XWdqOs68dX+D0rSx1067pqZxYuS9CmsyiQMoUM/AeDBBc9MyZ9T27q/vutkr7vri/3vzC1dYtSYAWB8zlSEmLk2Fw6zaTEap0yomDSu1KDXra3aaTAYooeP+s3vnDGbTSc9277sWnJnJkKgVKFl92SdPuBy9AS4nRFinLOZV66bcTmzYCIYwN+/2eGykwgBR9/IzOYAoVAqiooKy8rL8vPzOOt/pTEyzKbPQ3a1+GhaMylNZU5W2nuCUTjK7hZfWq4GAIxWpUZL05p8TSbFbNJPzCkRX2bH17171/WpNaivI+joCdIcAkcDYQwI5ZRGWLnW0z5eYcLpaXQKcyojvK8tgHGUdyphmU0FQWSmp06ZUD6xotThdO2uORKF06Qx3MymRav//ZW3pugjGy4FKXLNsYP/2vnDqa52it4oCgEAburr+e/vPt5w8shTC6/IsSTTt8emZ//96hWfH67+5/Z1vR6XCLPZT/oDYDYxhprWhuvGVgIAQuiXC658aNrCZL1RrWD6VUly+itX3/n18QNv79/W63GBWAYuHGZTrVaXlJWUlpVkZWf3/4bIfoHQLxh/jWvrC7JfIOPChExryogDBsNsQjQvYuDMJl8Azx4mSbzr2+6eNv+EuZbVr7fS3/MnL0oKO1q1O+y8WPW17k/+1pxbqtu4stPvxQAiHKVUsgNjNqOXX1DU6B6IaHWMQkyZUD5n2qQo639FgAHQObBgCJ3FNP9HzE0yYN/0IlcKc+lvOuA5tFo/5QYAUJgzjbPus6//E0cgRbl2vauvvI3QJwGAbtJ1zi0vBnsbMKDYLRjK3ure847xkp8BAFIb9LN+ZP/icRBZtDISFsx5AYVKedd9d0mu/xUFn32LA7PZ2tcUFp+bXAi8Ch5NzCYd2+13Hmzafai5Wqc2TM6bOb/0smmF841aE4E4BEqutSjXWnTtRSuCFIkxhRAKnz6kItQgTGJQzOb5gmUXzzEZGR7T5ZY8ZIOH0cls/vBhx/g5lpwSHQCkZKuX3pP5yd8bAcd0ojr7hdHq0eX3Z+iMTLfZv77vxF4XCPrdKGE2Y2yyc47UtLT77r9XpRau/5UADv877MwmGcDNpzxllWYAUGuJ/ArD4e19fOoFIrqpu43ZOttgVmoMCugMhHIcK7NpzYzUQ8spb+tpLzA5FlFytNyiicxKHTKAW894hYWh00vPV4d7e3udH2Nu5QircSDMZn9tNlrwwO3Xh9Waw+mKMdaQmE2W0mc3dLhyu12Oj2t2PTznUgAgKepQa+OfN35T01xPYQoQcLsI9gWD3x8/uKfx9E/nX37d+KkqhQIANErlrRfNmpyd/9Cnb3a7neIKk1+iQTKbVWePH+tsrUjLAgCdSp1rSeZJNqq1t02cuax04r8P7vy8dq/d5xNJfQjM5vnS1coryiZNnnih+wVbXwr21Mt+gQwZg8BAdIcMGUKwbGXWFVdv8h6KPhARLBYLc38CFvF4cehR5A4GAArDib2Oz55vIgMUxpCerwlvxtR21tte7xXGOrzVvuatdp+XEiQskm1espj1B4sECQcT1JWw/IKiYpb4/vI1SmHQ6wZmu9DAEPZMWHdC//KLj/jdQ1hPkTtiX8gxAIBx5h3KpBz6jqf2e39jjUAKc2lb/xwOMh6aaf7DSMc3Xv2ttZ4j39DXCnOmYeY9ISMVRaRwU+feQQDg3vka9jnpO7qLlhPJRcL8hANHFwgYMNsK44kRyY+4uT+aQSA0ME4TQPCGAfDebG5lCt5H1vsdumzpbaAwsy9bliWHowUiUnhKi526oFm4AjCvN/LCiytqTmSxwgLGlNvn3HFqw5/XPHPvW5f9YfWT62q/CJAB4AIhQqVQqZUalUId9gkPNe+J5ALzakXw9nDyw79xviDs/MeK/sc4/lAwgDGi/2GXv7s1u5ECfurTfzQG/czv6UutpVNM/cbidSqEYMYV1oLxzAvY3erf8O8uiqSEMYHbb7HUH5FY4qbC4AbQ86XXqdXqAXCaXEiVN/Zq0eiIzEId/V9GoTazUJdZwPnZ18mMg4QCjZ1Jb9SL+Z2DSQt3t0RInJQsdRRNxlN94Sep2ZE5+D00SSpQ4exuY0hS5FUwtGZnk9/RE+S+eJGell0aWaveVueL4Z0SvB4S/fM8woDVmvBVFVdw3Ee8IVYoDjiV+/buqqa+nhOdbb9Yver2D/65t+kMGT70k99FMMbQ43b9+vtPHvvinZOdbeE0x6ZnFyWngUgziTeo+LWgiKxrDAA2r+d3m74+3dPBK1qrw9bldoZ/WrX6R2dc8sb1911dMVmnZL3dnI7PrSXWUC3S1yVrdJRCp5P9AtkvkCFj8JBna8oYMnAMn/elJo/wJA1mCQ/GwikWWHzyCGZ9SCudYgzPHzle7QgdySoSK5Km8LNz1GSjxBJMkGILGdqUk4QHHtFvs0hrMc64nWnQoN+x7W0qGIwIZHcpgED7Me+xdboJVwIAYUg2zr7HvuHvvK+jjqoX9BfdhFRaANBPW+Hc+grp7GBSh5i+zZKONnf1u4a5jwAAUukNsx6yr35G4lPq8H+bTTiwXBP+RltDmbPpCXh6nF2ppgwIzdYU0QL8iT/nfs5mJDUMLp9z68m1h5qqpxfOp5elu/0ul8+RYkwnEMcVIang0daaf1X9AYcdDl4SEeXISSLKnM0EBQaxdhFUxrmZs9lwzL3tq86FN6UDAEGgq36U9erTbreDFMTidHj2AJqWp120PI3+TZF4/Xudtq4ARJt9ee7nbCYoMPd9G9KczbJK8wO/LUOx8Q+lU8wGs9JlD4KEddXT5g/fT8lWczsXX5OJztlMzmRoTYqC3g4/9xXCQg1UPNmgMzG5b6j1+DxUOC1erMIJDPtJkbjllC+2dypmUzaRIXhVxRUc95GIgSJ825nK7XE7H//8nWZbb6/Hxbfe2d0jnBGMAMHmM8dq25v/c8Hl102YJsix5BIy8Xma7GtBEXlzNms7Wh756r3rxlXOyS9RK5R+Mri76exnR6p1KvUdk2cvLZ1gVDMEeoEl5b8XXu0N+IWVANz3ga9xo87ZjKHJzmcklF9wh3PLy7JfIEPGICDP1pQxJMT+eT/GT9axf+hmTznhycERyWIfMAGUKjRuNnPUr89NHdluix4rkmb03AsERIklnK3FEiJdjbFMOUlEYP4PrqXGrlx+NQzp26zhomvUmcxBRr4zO7yntwFwP3iywmOKdGx+Ofxh1jhjBaG38r6OBtqOeY+to68V5gz91Ns4qQvyL/pt1r37TewPf5i9RWHJFpYlHFgQnS8Q5G+zXPBeKXYF9D9nky2EFThABtrtzDnCmZYcRFMC58mcTbYSM2rN4WXmO05v+M9Vt/105fI/fPvkK5t+/+HuVz7c8+qLPzz7zCd3//rLH9d1neRklZcEv275aj2h9RkDHOsYxx8KBjBGiA4QnFiSsy8xxhtXdXQ00EsZIKtYt+CmNJZHzy6HyACKCLjigQy9OfT5cI/zYJWNMyjy0ovIEhlA+4slXo3yABpGjF0odqMuRqRkqYsnGSEkVGhd9bT6wu2SnKGmn0TRZDzVhwFSshha09kX9HspdmfhqRmMgSDgokvMBIEAgCJx7U4nlphLqNERueXMmp7u1oCzNwhSPQ0E1RiLKZugEBsleRpN0DqYE1pUorByD7c29rqdIFA+aoVSRShE9BIGAOhyObacPc4RHskxBgzjMnImZ+ULsiDeuLHP2ex0OV7bU/XQF28/+MVbD3/57iu7N3a4HA227j9v+fbRr9/bVHecColCADpVZAIyr2YEGpJVadHmbCY6MIxuv4CZk96/X2CS/QIZMgYJmdaUMVQMldkUChwcs8mOIbBygHWJAXRGhd6koCgMAB2N3pbT3n5jRdIUzT07Zv+xBNYeRw4/rOyYAQiMkhGxYAiN0TTnHiAUAIBJv33zqzjAePhSFoy3brf3+Ab6WplSZJh6Cz8wgH3DX4EK0tfGBY8SWtNALZhg5ynPgU+YTBpS9LMeEi2LSFYlBMoWDAcClcPRLxIOBYRfVpGuiINkoN3WQv9QKdVp5ixJLTC6mc10c7ZWxawpbuw50+VoP91xdMuJNV/VfPDu9hfe2/78t4dWHW2t8QTcXNUtlgS/bgXaFQMGnMhqDQBiHeP4Q8HIMJuO3sA3r7cGAxgAEII516TmVujFYmFe02KAysXW8unM6VIeJ/nNq20UyR4PuaF5+kZmNocB54TZJBRoztVpSjUzO5jXAhigu9UfvmPNVNOE44CYzaTQbE1Hd4DeNoHdWXhqJrNYUxjaFaGz0d90zB0Rxo2VW6EJk/Ktp3w+NymsBpnZFEW8mE2CIP7f0hvSjGYpZpMjHQOB0Lyiso/v/uktF82GyG1WRqQqHmMASNYbnlx4xdvLf1SRns16JJqm2LWgiDxmEwD8JOn2+/2hjVwwBhJTRzpafr72k8dWf3Cko0WkbwhqRqAhWZUmWjMJCswrHYYR9wsCsfoFx2S/QIaMYYdMa8qIA0YHs8mNwTNlWKIBwN4b/L9HTr70xKnNn3bu+b6X8bX6ixVJUyxhgbcePZbA2uPknR9WdswA2N/U6d8w3BaMbvxlmryL6Jv+hhrPsY3c/IhYMDjot1e9hAMeAABEGOc+QB+VyA7sbznsObaevlaY0vVTb+OnLsg/n9uiKNcO1k46k29WmLNFyyKSVTGBdBTZgolgKMwmiHRFCpNttmb6poJQZpqzePElVZ6w9c8ps5llyVcSzPY1bbZGfn74yiwOzOaFgNHMbB7dadu3oYe+qzMqrnowW6NX9BvLmqG67O50ZlIyBeve7ehu9bOHQuA2/ihhNhMecWE2m0+7P/5H3cf/F/6v/uN/RP77JPRfV2jTzJLJxvyx7P0ZOS3gcZEuG+PPF403TFxgMVmVCiXql9lUqFBSmmrR8lSTldFItq5gwEdFInBeIQwAhALNuipZo6f7JdRstHtcFF+hh4KXzzAqlMxwfGyXi6u3ZGazHwyF2SQpphERwF3TF3zz4NP3z7o4SauPiAP+wIMAlaZlPX/d3f9a/kB5etb9MxflJqWEBzx204kym3qV+uZJMz658/F7p83Xs2ZKsnMqSFPsWlBEIbPJqY3QdZAk97bUv7pnU6/HzU45vGEo5goRaEiW/ChDcuLh3PoFjQdi9Qs2y36BDBnDDnlvTRnxAY79GE3uNkM8nyR+B0pi/sY6grPR62vd9bW0AcHZsy5KrEiaglUJoSA4PKbyt/oJZ1f6RPUBVKP0NmGJDczeBQYP4346hFJjWfQI0H45Rdo2vUQFvKKnEPKk+ep2++p2a0sXAoAqdYxuwhXOne9wAlNB5+aXtGWXIKUaABnn/si97yPK08dOvd/9dAJtR73H1ugm3wQAiqRcXeUdzk1/Fa0KkayKCaSjxL6fTqI7ZfzXj/eGcd5sbmUK3mKmKzb11NEBFEiRYcmBxmpefE4FYxid+2xmWpht8oNUoNPRJpIfXlY5qlssiYhyZBWIkx+4EBB9jDuH+2xSFF77bltZpSkpXQ0AxRMNM69I3vxpJ4sm4MdSKtCSO9MtqcxmBacPuqq/7w0lyBpA+9kx89zss5nwiLELRbFGulq9W75oZ8tk94DwIeSEAl3/aD5CoFQTy+7KfvXnJ1iHjXFaoLPRZ05WAYDerLzzvwvt3YGWM562s96OBl9fV8DnJgNeik5GoyO0BoU1Q52ep8kq1mUXa3WmMMkOXU0+TK9BF7e7cG6ZbuICZgaxozd4cJMdRHoaAGC9WVk6laFinX1k8wkvX+cPeZ/NxIWY/ct+VcUVXOT66yN7F5SMzUtKocWlGEy/WHzt9ROnv7Rt7YaTR3zBIK9yk/WGO6fNv2PqvCQdMw83y5x0z/T5v1//JYWxcJ9N9phCIGJG3phH5iyenlcsURjuizDkfTZD4VljIIbSlLS7psy7dMxYjSLimPuCwc+O7uVLZFerlCHCG5ITHefML9j4Ysx+wZ4R8guOfqu7aDmcI7/gAuhrMkY1ZFpTxpAQ4x78UZhNvsBBMpvsLLFiROUo2Y40jyWIldkUqZDBMJsiNTBoZvNCw7BZMNqSuZr8KfS9QOdp9+HvQGzIF1owOOizV72kKZ6NFGpAyDj3AXfNZ5TXwQ7sq9vpO71ZW74YAJSpY3STrnPtepubn/4sGCro2vGaduzlSG0AQLrK29y736LcXaJlEcmqUGAoSowWzAXR1+LKbLb0NtBPEULZ1jx+9Z4nzGaWJY++4/Y5bZ5e8fzEndlMWHDfx9HKbPZ2+L99s/X2nxfQd5esyDiy3dbV4hcbQAEAxs4yT16YRF97HOT3b7b5Q7QUsFt7FDKbCQos3RlAupaGaI3sWtO16OZMervMkotMUxYl71nXzY3FKIoNK9tyy4o1OmYBmTlFZU5RVUxnNkCnSMzMwURIrSGkjirqbQ/sWRvSSGLdRqFGS+9NV2uZ+G4H6feG15XzGaLiyTprJsPLN9R6+joDfKmxvlMXHrMpYkAPjNncXX/6jndfuHfmouVTZhnUzPamFRnZz11759azx1/dvmFf01l6SqKKUCytmPTjuYvL0rLYWTjW0bKt7gTm5kfMJoTH5l1WkZ7NnqHpJ4O9HneG0cwq0DAymyl64/KJM24cN82q00dSxPhAW+Mbe7dUt9aJ+A4DZTYvNIycX/AtjDq/4HXtuCvPlV8gQ8a5hbwIXcZQEdOCaO7CHLEbEI7IfhD7anTJHEX+B+BwnqzbA4wVyakw91zBWCqWdO4jD2OpRmHlXwAQWzbCWHWsO6F/+bUS66qTpMuegpD/1Lfh+fBBQMKvkcJVJ55j6/31e+kb6qwJ9BmI7MA46HPufBvTc1cQYZh5N6E1CfKD2D+FqfsbdvvPbqevlakl2onXS5VFPKsSxYGBrDpJfAhUDrsCpBaBCUNjgE57uz+0bXyONZ/3NBw/iqLkrznCgmbhCuDmh6vJOKkLr0QygzEoCGWaifEe3X6Xw2uTzA8vq6IqT6AreflNfKWGBzDGcRqHWzUDGCPEmpobS3xd+f4feo/tsdO3tAbFdY/mIA4NGIllsCiW3pNB76WIMez4pqfxhIctDNitzfsj6Hd4kLHEq/ECH0ClOgNI19JQrBGvk1zzDrPzBkJw9UO5yRlqdk+DUNser7a/++yZ1rMeEAOhQBq9QqNXaHQSnCaGE3ud7/y6rqPBJ9RB4QLMuMJaNDHCHKXna256KltnJPi5ASBU6KJLzAQzJQsf3OxgJoEKdX5M71S01zzxECqdRI2FH4krOOZPU1/P79d+ftObf9946khYskqhuLhk3Fu3PfT7K29NM5rL07NeXX7/X66+nc1puvy+v2xcfecHL/1w8ggVaTbe/xFU5hSyOc3qxjP3rvpX1ZmjIoVixY3LanQFQVw3tvKtG+6/v3I+m9Nsd9p/W/X1Y6s/2Nl0OkhSEWFsiexqlTJEpLcSTTzIfgENf+Me2S+QccFCpjVlxAFDYjaFY0nM5uAoYDZ56Yu4WGKWHc/e4ZaPXbRB+BIXxuiCMXfcjbcFoyuZpy2aTl8H2k+49n1kq6PZAAAgAElEQVTGS12QH64FQ5G29X9l5CFkWfw0IlS8wN6ja/11u+k76twp2vFXieUnqgVDkY6N4V3GkWHeT5DGJCyLbMEMFPy3KE7MptPntHn66Ou85CKeHhHRHREpQvUT/iloFq6A+DKbBrXJpGXmsDi8Npu7l/8myczmwHFeMJsUib94sckZ2gOxbKpp2mVWbkDmxyW3pafna+hbbWe9G1d2YLFugaX+CPodHmSswTCbCd/dRpjZ3Le+58R+hg03J6tufqJAo1NwmU1Mj+ZHd9v/9vCx135xete33d0tPo+TpA+qkigFBPyU20G2nPZs/rTznz899cYvz7ayz34MhwslUzBOt/SedLYQhKB8uvGWZ3L0Zj6zmT1GWzKFWYHe0xY4udcl6GmsnzG9U2KveeIiLswmifGJjtYHV/7r3n+/UtNcH95wU6dS3zR5xqaf/M/n9z05v7hCqWB2IfAFA18e3nvVa39+becPNq9HLHEMACqFItNkEWQYGvq6f/7tqvs/fr2mpZ4KpcXKteBFGAKziQBm5ha/f/OD/3PxNTlma3hWZa/H/Xr15ps/fOmrozWeYECQLFdizMxmInc1FobfL5irKZpGXwfaTw7KL3iOkYeQefFTSKHmBfYeXeuv20XfUedepB1/JUcC82+/fsFzLL/gUaQxCssiiC77BTISAfIidBnxwaBXo0sKHOhq9Og5Gp7V6NwMS64o5QnA3BUl3EyzYw1m/deFCxy3VScEobRc8ih90CFgbN/yBvZ7QKSleHc4q068J6oCnadVaSUAoEwbo8oa72+qYfUzBEGfc8cbmqKZQCgBIcOsez0Hv2D2FOfkJ9qqE3/9Ln/DHnXhbABQphRrx1/l2beS3xc5V4KsShQHcH+rThIYgleM9/pxV0xz32xuZbJDu3yOPld3mikDAJKNaWqlxh/0seKJ6Q6x/PAaayRXo5u0SSYts7i41dbIDyzMT5xWoyc8BrSX9Llajd7Z5PthZftVP8omCEQo0PSlyXvW9HADYoTQ9KVW+gcZxF+93OL3UlIDKHsohH7WlY/QavQLASO5Gj3gp756ufHhP5cbk5QAUDHNfMV92V+/2hQM8mIBQkAG8dHdtqO77QSBrOmq5CyNyao0p6i1ekJvZrwVj4P0OEl7d8DWFehpCzh6wrt1RhblCtVfao76xieyw8vPu1v8Sekq+jig0qmG5T/LWfWnZo+DmRanQDD3eqtCxQjY+73N76EAOFXA1/mDWo2esAhrKoyGuBodIwCMN5+qrW44fcPkGQ/MuiTPymy4qWbtQUlhfKC5/oWt328/e4LCDG0kYr1jKE/PfHjO4iVlE9n5tXk9nx3a/cbuqh63C0Bg2gkbN/wiDHY1+ti0rL9efotBrQmn4gn415+ufWf/trO9XQiBMBpP4Q1oNXrCjqFi5eJYHXH2C36C6PMSMbZveX1QfsGmsF+gSitRZY33N+7n+wXbX9cUzQJCCYgwzLrPc/DLgfsFO1l+wRjt+Ktlv0DGBQKZ1pQRNwyW2WRJiOK/RfX6JLTpyDKbvNyLeOsS7hw/0zKzKQG+CSJohDhZMJqi6bqy+fS9QOcZ5/4vMCCEcT+pc80CQp9Mn3UIADjgJR3tvCJgjDxHvg20HVVlTwQATcF0TenF3tpvhfmJZsFgyrHxryn3fEyvizEu+A9PzcdABWULZqgYBmbT7Xf1uLrpmzq1PtmQ0mZr4SoICXpGkJ9zxWyadBaDhlkV1drXKKKphfmJC7OZoOBN5hrtzCZGO1d3T1+anFWkAwCdQSEiGoE2dP/IDvuZg67oA6jMbJ4TjCSz2XjSveadlusfzVMoESLQvGvT3Q5y3futFBXpaTydRFHQ0+bvafMDAgj/T4PTTghAtEtx1J85Wbn8qZy0PIZC6m7xv/OrxvFzTZfdnU7HLa00LH86+6O/tNDMZm6FduwsIx3Y66L2rbNxXzyZ2YwBcWU2EYDb73u/euv6E4fvnDb/1so5Sawl222Ovjd3bvqoZpfL7wXuwMNWPhad4c6p8+6YOteqM4TjBily85ljL2/fcKS9KXRPMGtPtHGHxmzmmK1hTpPCuLr57Bt7t+xrqac5WfGaGQqzmcDmWr8GQpz8AnXhtGHwCzp4RcAYeY58J/sFMmQMDjKtKWNI4Pmzg2M2xQUOhNlkY9xsS0qWBgC8bnLv+h52jibOTTKnqACYLHU0+E7XOGnRtOaefTX9HZixlU/td3Y2+cI2siVNNW6WmZ1WeId7CKn4wTCbwkqQmU0BsMR27/FnNhUK87x7kZoxmh17VpGOTjoDA7JgjLPvJnTMQifXvk9IWxsrh8wl5ffaN/4j5Y7XAQAQYb74CU/td9wN6/q3YPxntgaaD6hypwCAMq1cW7HUW7uaX3BB0uysRilOPxZMYiPezCamcGtfI31Hp9IlGZLbbM0st+s8YDYzzDnhze3a7c2R1Iad2UxYxP71bjQwm1436XVRoYDsYogMP/auAMY8kklmNs8Z+rHWho/ZxHj71x3ZxbrZV6UhBAolWnJHFqFA373ZzO5pPJ0kxVFy26n/WJYU1a3P5OaPZQZ0v4f66qXWzkbf5o/9BIEWr0ij9VnpVOPNT2V//JcWr5tacncaPZETAHat7nXZScGLJzObMSDezCZg3Gbve27jN18ern7njkfSjWYAON7R+tBHrzfbekKJ8gceDKBCxNKKyY/OW1KcnM6u+bM9nX+r+nbLmWM+MsjiyyXM8vgymyzJL+xY/9HhPZ6AHxiOXrpmhsRsJiZG0C+4Zxj8ghZWDplLKuCLv18w9nLvka/5BRckzc5qlOJc0H6BjNENmdaUMTT06zjFZgTzRYbVJEQzB0XFzL+O2T6pu9W3d30PO9LCm9OLJxrDIXev6T5V44wYQAS64fFctqhVf2nsbPKFB77UHM11j2VHqwuhcSbirQvdOYEQfqwB+BLS2UsAIAxY1IIBiNuqE03eZP3Ey+nrYE+jY8cHHBsiNgtGYUoxzbmP+RnwOra+RtuxQjPCfegbS/dZZUoRAKgLp2uK5vjObBP9VixlwUDA49z8D+ttbwIigFAYF/6n78R6TB9NM5wWTAJDnBGJ3BF1bQDEfTZOvMbuOvqnTm1IN2Ueg0OcXjnqmc1MC6Mhg1Sw3dbMqbDhZTYTGecXs8nNOV+0ePkY5dkvswl8v13wEgw3s5mwqg0PoDOAdC0NjtkMBqnPX2pISlOPm2UBAKUKXXZHllpLfPtGc8BPsZhNENEZQ2A2Mwq0t/8yL7OQOUqbDOAvX2o9Ue0EAIqETau6MMaX3pGmUCIU2mfz1H5XwXiGvLB1BrZ/0Qs8xSwzm/1BRFPFj9mkAE50tDp9XprW7HY5mvq6I3QgcCqXAKjIyHly0ZVzi8oIVoX3edzv7d3yxq4qbzAQiskbP9nlCec4fswmC0fam2hOk1MbUjUzOGYzYYFGzC8wTLqCvo6nX4BH0C84vlb2C2QkPOQjg2QMGRh4rsDgThASDyYIOagDJaPQfey8SuYnFnWNWX8w+x4jGAtvScgVjRVrNSasW8YUC7Fqhfsc8wIjEGtAseisNUeEwjznHkJDr1HCjl0rSVsrN7r4vgE8GGfcoTBn0tfug18HWo9wc8ESGPDaf/hH6DcyL34aCCVfIDt1Qf4xBu+J9YHmA/RPZfZkdcklYnH5d0LR+Ua2yMuCIWK1JWj/igBz3yKhiuG+fsCtEt6bza5MDJHZmgCQlZTH1go8jSCiBcTyg/mtKWhnrgBufrj6j5O6mC7GODspn770B33t9hZ+agLtE9cThBIUgpob/ScI0f8oVciSqlSoIwpEqUKWNBWIg9O0wm4h6Eq80LyOKugj/ccSr8aEHTFFEXNnAOlaErVGDBZlzhh9FOE+D/ne/54+e9hJ/0QEXHxzxn3PjknL0XJjSR0vxVdkUTQZBiAUaPJCy4N/LGJzmt+/0753XR8O9ROKxFUfdW/4oDN8NlHpVMPlD6TTB6BjCjat6nb1BSNphP/lVgFf58f0TiX0R2iBcg/dkKgxDNyKBZF6xvzI3BRFxrlMc9JTF1+16q7H5heXhzlNbyDw9ZF9t7z7/Itb13mDfuCOvpJtgiUb16DSXJSdf+OEaTdMmDY1p4g+VD2mE4TE5POKIl4zAoUnUq3RXIzEw8j4BfScmPPTL8iaNDJ+wYXR32SMXsizNWXEA/3OApD+vC8lJvYP3VHcEpYQLFTTLFtAcpIJdz5TPxobC7+ghoodZc6mQIJUrMFMfU0oMGUX/zYLvBrFg/k2q04vMVZeS98iXT32nR+IRe/n26zCmGqccTvztTzgce54G5NB9ujPE+g+9JV50WPKtDEAoCmapSmY7ju7Q2wRTSh14H+bpTx29563LdmTgFAgpcYw+yHfqU0QFO4yHudvs4mJ0MwhyblwwH/9WO8lQKT2RF70DnubL+DVqLQAkG3NZ3VF3iXw4nOqnK8PR2jOpoJQphiZufBB0t/t7OBK46k+sfwMds5mgkNQc6N+ziYAQFqu9qcvlve2+/s6An4vpdaipDR1SraGHYbb4oKpSNxA7AGU80fwErD77UBixTRnM0HBYkXiPWezdIr5uh/nG8yql54+1tHkkRLucgTf/NWp5U8UTpybRAcZO8Py47/q1rzdsndDN3NyryBHg5izmZSuuuS29KlLrKoQ5+7zUN+/1b7j6+6QYcD0E4qEqo+6MQVL7kojFJw+UHfEfWCjXdDTwlHjMGczkSFQ7qEbEjU2wDmbYilG3na9Sn31hKk/mn1JvjWVHaSmuf75LWt2NZwOUhS/U4UzIjWPVmzO5riM7KcWXFGZU6ggCAAgKaqmteFvW9YcamuMPmczinxuUeIzZzNhgc8jvyBlSH5B4Qzfme1D8AvUsl8g40KATGvKGBIG4DiBOCXHG3MlzUEezyDNbK56ru7sYScAIoOYGwt/8Ic6tTb81RZ5HCTbpgIMf7n/GACE99ixdwfYSTUccz/34AlgLXd54I9F5mTOSzRUZrOfWDKz2Y8FIwg8MAvGvOB+QsuciOLc/VGwp5EVKVYLRj/palV6KX3Te3Kzr34PcKTwBVKuXueud5KuehYAkEpnnPewr343UOSALBj3gc8Ncx9RppcDgHrMgrSfbgcyAGwgAADS1mz/6kmy+0wcLJiExzAwmz3OLpffSdOaWUm5wOmKo53Z1Ci1KQaG1rR5et1+p0DacDGbiQrO5KTzhNmkB1YAQAgsKSpLigrGSZSOwkKagMMgyMzmSAEPqjOAdKyw1pt/XcZ1DxfQ50Td8GjBG//vRCBASQm3dfv//acz1zycN/PyVIJAAJCcob7lyYIpi6xr32+tq3VFXgiJdeXRmU21lph2mXXR8rSkdHU4A86+4FcvtR7aYsOUQB5gioTNn3QjBVoS2mcTAIJ+XPVRt89DgUhPC0eVmc2oGFZmM5IIq6+EREzJLfzNsptoqpFGh9P+yvb1Xx7e6/R5WXYUt1OxmE1OOcJdkcts5iYlP3/tnRlGSzikgiCm5hQ+f82K+z55/WxPZxRmk21CYZGU4sxsJjiG2y+YHw+/YOJVA/cL3k266jcQ9gvqdg3cL/jCMPdRZXoZ0H7B41uBjHw+CockbU32r54ie87KfoGM8x0yrSljqBgqsykqMBb/TeKjam+7v7WONV+AFaunzRfhLOlnXBervd4beoKANdzQSfm9VHu9l4kFAAioIEuLi7lYMTGbUSpUJJbMbEazYMSG/FgtGIUp3TzzdiZUwGereo3rxPCii1swCp3ZNOdu+vxBTPod29/BQT8350KB2LV3lXH2fcqUQgDQjV2iyZ/mq9slUZxQ6lwLhvL0uarfs1z+W0AIKVTK1BLRylOmj9XPesix+hlefmAQFkzCgv1Sx5nZ7HV3e/xuMAAApBjTtSqdN+A5X5hNtUobnq3Z0tcgVthQanFnNhMXsY9xo4TZ3PxpZ1aRTm9WRvGXKQp3Nft3rekRSedcnyAUrrTolZOQGA5ms+GYKxxy/OykZXflfP1GI/+bNHfO5kd/r28547n6wVy1lgAAhRKNnWkpuch0ssax5fOOU/sdwQBfJ0VnNgkEhiRl5aXW2VelpGRpEGt7rWAAf/jHxpM1TsAso07AbFat6gIMi1ek0nM2lSo051pr0wkPfTa6zGwOCGwKb5iYTU5y7L6CMSC0t+lsdeOZmQUlAOAng58c2P3q9vVt9j56u0SxxIXMZkS+Rqli+wNh7+DxuZeFOU0MGDDjXaTojU/OX/aTL98D3mvFZja5gxqruDKzOQBwuOHh8wtmxcUvuGfgfsGHxtn3Mn5BxeJB+QW9rup3I35BWploNSozxulnPyz7BTISADKtKSMOGG3MZtRYA3Cx2MONeCx+qoNiNjmDQSyxojGborWRGBDYEHG2YKxLHkea0EGHOz8IdNfzA/Oji1gwugmXq3Mn09e+umpP7TqOWSBhwZD2dtfeDy1LngGEkNpgmHWPr6EaKFKiOKHUuRaMe9fbxtkPKax50asRaQzCsoSqTrZgAERcUAnGCPivH+u9BBDz2Tx+d7ezM8eaDwBJeqtRY/IGPMDpirxL4MQ/p8ymSWM265LoAPQmoWKFDd2OL7OZqMD0n/OJ2Ty0re9kjaNiuqnkIlNBhcFoVak0CCGEKRzwU47e4NlDrmO77WcOuYKBMP/AP46D77CHQo0As4kBA4DUnE2c0JoNBtUZosTCgOuPOb/6V8NNjxcSBEIIlt6V09Hk3fV9ZxRmkwxSmz9trzvsvO7RvKLxRppJVGmIcTMt42Zault8B7b0Hd9ja6v3eZxk0C+cY4kBECDQ6hUmq7JgnGHcLHPFDDNNkvKgVKHFK9I7Gny27oCo+oswmx8xJwgpVQgQlE0z3vJMzkd/bnbbh4vZHGQTng8YbmaTnxyX2fQEAn/duPq1Wx443tH63MbV+1vq+WOKSOI8d4ABQmj/E7+LXlib1/PijvUURf1k7pIkrR4AKnMKM02WNocNeK+VqM+CebU0DMxm4iJ2vwCAZXWMvF+QdxF9LfsFMmQMH2RaU8bQIEGuxc5sSguW8N+A58mfS2ZTLNUBM5tsOTHHkmQ2ExvDZ8EoLZnGaTfQDymfy7b5jchE2pgtGKTUmOc9EM6EveoVTAWBZxZIWDCuXe8bZ91Dbyium3C1evNL/pZD4eLEYsFQXnvvp4+ZFv4HUoqc2qEunA2sSSxDt2CESSQIeEwT78eQmc3mnvpJeVMBwKK3GjWmLkeHwJjmXQIn/rljNjPMOWHJrX2NwswMH7OZyIjiwtPPRx+z6XWRB6r6DlT1AYDOqDRYlAoCkSR22YNeF8VpcdYaYV45ziGzGa0aExiDsNZiYza3ftleOM4447I0+s6NjxV4XeTBrT1RmE0MuOG469VnTsy8PG3+9enpedpwsJRszSW3ZFxyS4ajN9DV7Otq9nW3+e1dgYCP5jfBaFWZU1RpuZrkTHVarkal5rOZQT9ub/BmFmoVSgQAhRMMt/4878M/Ndq6+mE2N3/cjRBcuiJNoUAAUFppWP6znFV/bPY4h4XZTGwML7PJSif8D5vZPNBS/8Cq1461t/iCAWArohiZzYFg/cnDK2t2AMb5SSl3TZ0HAGqFMsdspWlN4PV8KZ9lOJnNxO5sMfoFwLM6Liy/4KdIqQYBZL9ARoJBpjVlDAlSvsFAmE2uNAmHXeQRy+tjS8EshT7czCa3KsRt5X45SkGVxhRLktlMdAzAguGyP9EtGPOcO5XmDPqJ68Bqf/tJUVnRLRhdxcWagqn0c39rrefImoiA/iyYYG+Ta+9H5osfBwBCazLMvtf/2ZNhEypGC8Z38gffyR8ARFYdZf2uEyk1TFzxmhTLqmjqjJAE72/DxGw29zbQ9/Vqg9WYUtd1WmhMCy4h8u+5YzbDx6ADQIutMRxZrLCh1GRmMypYHnmU0Wo0MpvhGB5n0OMMQnhlJqOUxEQLPPoow26kQMI/gn4n4JtijCUzmwPoDFFiBYPUZ/+sT8nUjplkAgC9SXnb00VeD3l8ry06s+nzUJs/a9+/qWfakpS516Sl5UTITQAwWVUmq6pogjH28pFBfHK/c/MnnQ3H3BcvT190K0NQFk8y3PbzvA9+1+DoC0ZnNqs+6gaAJXem085+aaXh5qezP/lri3s4VqMnOoaT2WQb/SJrrimKqmmuB1ZDD4jZHBAKral6lRpjXJrK2JAUxi6/T4rNxPwT1yM22TAxmwmPkfALDn4r+wWc0osymxeMcpMxOiHTmjKGiqEzm+KyogoX+G8xZYkbKy7MJifZ6I6ZzGwOFZI2hIQFw7sjbcEozBmmWbcy1rDPZat6A5MkgJTFIGnBWC5+NBzHXvUK5h7a068F49jyqmn+Q7SRYai81b7hb2RfEyt6rKtORALzIF0WkaxKCUxg/1/0nYoTs9nU0xBWIplJuRh28T7zjFpmM92SHZbZ0tfALtuwM5uJ29m4Lul5w2wuvCmdIBAgaD3jOV5tp1ty2uJkk1UJAPbu4P4fekVED2TYjRRI+EfQ7+LJbCYoJA2GeDCb9l7/e3889eifx6blagHAmKS679el7//h9KFtvf2ago6ewMaP2nZ911VWaZ55eWpZpZnezHBAZbN1Bw5U9VWv6+1o8JIBDADr3m8DBJfclk6nVjTRcOf/K3j7V3VuB9kvs4kQWhw6QahsmvGmp7I//kvLsMzZTHQME7MpZX1zxi/+2z4AZjMiGOCt3VUs1Ru5unLsRelGMwBU5hR+suJxhCDHbKUfdbudZ3s6BWlyFCE7CfHXSmY2Y4HsF8h+gQwZIci0pow4YEjMZhRZUYUDCJiFGLLE9fqGzmzykx0UsykiYNDMpmi2EgcDtGBo07HfVSfGaTeoUgvpG55jm3wN+wEAAGGMY7dg9BWXaIpm0bcDbcdd+78QDvnRLRiyr9m5/U3Tgh8DANIYTBc/0ff5k7zijC4LJkHBdm3izmy221pIilQqlACQl1woDD06mU2EUF5yMX2HwlS7rZkXeXiZzYQFBr5Len4wm1c9mENzTzu/7TpebaefLbgxLbdUDwB1ta59P/SKixZ8GuQ77KFQ54TZjL3lzkcMK7PZ0eh55ZfHHntuXFKaGgAMZuV9vy5d+dez1eu7KKp/U9DtCNZU9dRU9eiNyvJp5jGTTYXjjElpKrWGUKgIhTLSgSgSk0Ec9GOvh2yv85455DxV42w67qEoZrynA5JBvOatNozhklvT6O07C8br73m28P3fNdj722dz06ouksRLVqQpVAghKJ9uvPXnOauGaZ/NhINgv4n4M5usxMSqOw7MZthOw3/Z9E2kVwEwFieCk11tzy69SUkQCKG8pOTw4yBFvbLjB28gwOQ4lhXoUq9VvJjNxMbI+AX1+wBA9gsuWL9AxnkBmdaUMUREtdhiYTbFRMbEbIqFlBIz7Mwm5lpirFiRNIXGmai9MTRmM/ExQAsGeOOuwIJRGJKTFtzHPPR7+ja8jCkyFDpWCwYRSvP8+5FCSadn3/o65XPyk2YyE82CcW5/0zjzLqQxAIBhyo32Dc9R9hbJsnDyI1sw8cTwMZtttmaSCtK0ZlZSLgKEAZ8HzCagDDMzW7Pb0R4I+rlVITObQ8J5x2zGUiZOq0ZbjS5w2LkCZGYzHsChf4aR2Ww9637tv4//6PcVlhQVAKg0xO0/K07L0axf2erzkv1/5EYAAG5nsGZTb82mXgDQmRTJGRqjRakzKmlqEiHweSiPk3T0BPs6/WSAXvUY+h/4PW3de20IwaLlafQ+mwXj9LfFts/mlk+6CQIuvYOJWFJpWP50zqo/N8fxbPRBt+Xox7Azm5zE+DMTozObqSZLRXr27vpTfjIoyWxGKxAj/uvafVnmpHumLTBpIpsn2H2eN3ZXfXFkLzunMZ0axKco48psJnRnAxiMXyCILvQL7mUeBjx9PwzWL5gX8gsA27e+EQ+/4AbZL5AhQwoi5wbKkDFARMxliKhl9hVPA2JWTM7DaLFEhUd+io/ZUlniCuHmKPI/AJt1xKzb/FihHEjEiqQpzAdPaMyx2NnBrIAXBIQ1x1whXiNJR4/YroaJy1TpzDQ0z5ldnjO7uKEFx0iKpa4pnKotXUD/CnSdcR34OvJQkB+MORQO+zLQdcZ94Av6J6FLMs25nxNYVGAkPyLmaz/f6SVrUiyrsQhMILD7koSeEtFUQpXDfowxdNhbA6Sf/pluzlIqVCJJcPUJ95L1L18p8fOD+a0paGeuAJ5OY/9GgLIsufR1q60pXDZpDQn81AR+PBbRlCLlSPQeJ6LGpUcr7sAT6xg3kKFWYoDmxedGkSyapGh+OQYwgHL+CPodHlQsYaESEeIGQ3yttbO1jpd/drS9wUP/VKrQ0jtz7vrvMalZ2n6Ei2XJ4yCbT7tP7HMc2Ny7f2PP/o29+37ord1pO3vY2dXiDQbCsfiKLHxNkXj9++2bPuokg8y94kmGW5/JMyerpNQfLZQicdVH3evf7wzLKp1qWP50ts5ERIJxooSjCnsacCo/8XsagFBTYbEOg9k3JGoMA7digd1oZenZ10+eriIUIpEjKTIiVArFDZNmvH/HI68tf2BpxSSOdKHyiWRdWCAMACSF/7Xzh/s++tc/t61dd/Lw2hOHXti29r6PXn+zejP9qZKd03BkBFCSknHtuErRVMRfKwlHRLxmBAoPXwi6DUCkc4SqXKjsQdjSGAR+wRj6ief0Ls/pwfoFZSG/oPOs68BXkqlDP36Bq+Yz+iehs8p+gQwZUpBpTRlDQhSLLUZbmS8wSiwJ4YIsxRpr6MymIPOSsSJpRs+9uGUnHuuCYjbF6pp7f1AWDFJprZc9Fr7du+4FTFGC6P1ZMIgwzb6L0BjoX86d/ybt7dFSj2LBUKRj2+uUzwEAgJB+6i0KS1bcLRjR1GULhgW2axS+xXn1MeeaV2WiPgaDQDDQYW+jr9PMmSqFmhMPc1tEmJEoWsNDidYAACAASURBVEAsP/FiNk06i07N9PA2ezOFxepl2JjNRIXIAAqCqhLU3KhgNnnlED4RDoX8gLzOKHDYuZdY6o+g3+GBx2JoiITub1EMhvgymw0nnK/84lhdrZP+SSjQ5PnJj/3f2IsWJA+C2eQKx+I6A7P+F4gOBqh177VXfdyJmaPUoXiSYcX/5OuNCin1R2eFIvHmj7vXv98Zfl461Xjto5kqdWQak8xsRsHwMZtkKESa0fTHq2//160/GpOSIRKZxWxOysp/7ZYH//fKW4pT0hUE8R8Lr9CrNRzpoiqL94irZkgK17Y3v7xjw398+d4TX3/wys4fjnY0Y0riLcNYrVD+aObFr91437zCMna98KtCpJbEh9kYmc0LBZj3b/hK0i/gDaXMvESlJv5+wa4h+QVO2S+QISMGyLSmjKEibswmgqQ0tUKJBsFs8pX5uWE2+4kVSTOcMAKtntAZFdzsi1p2AsNFkJ0EZzaF6x4HYcHwmwsZp1ytzmTsS++Z3e6jVcB3dEIypS0Ydc4Ew0VX0z+DfS2OPR+Kpi64I27B+JsPeo+up6+V1jxD5S38wKICZQsmTsD814pdP5xXH3OueVUm6mMwaOltpC/STBkqhRoLpbJbRJiRKFpALD9xYTZzrIXhm619DRyPQGY2h4DRz2wqVMhgUhrMSoNFqbcoDBalwSLcv4iTI4UC6c1KJpZZoTcr9WYFvYhYmtkEbu8ZaWYTgF8JiYcRYzbbGzwvPl27Z20XFaJ4UjI19/269P7flKblablLGgX133+WBsxsqnUoGOAcQF0wTn/Ps4Umq1JK/dFZoUhc9VHXti97aEoUIZgwzzx1aRJXd4op5guY2eQ2j0RfGhqz+dG+Hd4As+hBpVAsLBn75YNPPbHoCrNWz4+McYbJ8utlN6686ydzi8qVBOP25lqsN0yaATzp4dT4I5HoI3bjsxMVGf6VBDGnoHTV7Y8+Mntxso6huiiMq5vOnuxuZ1dLJBZflvgwGxOzmagQvkaY92/4SmIt14j5BbuH5he0HJb9Ahky+oW8t6aMOADHsjM6lti5KXSDINCzK6edPGA7uLXnWHVfV4uPIrFILOkThLhZGsQeZIPbZzMcvv9Y4TSNScrsEt34Oaby6UZLmoorh7+xUCSnYhsMsbODBV8fEwoYYcQdSEPNEGkO3M9+OqwmAaRQWxc/EnpA9a5/CXBk9BdEl9hPBxHmuXcRGiN9y7Hzg2BfK4TOQJRKOnRHZD8dTJH2zS/rxl5G76RjnH2Pq3ol6Wjvf0ebSG2I7KcjhHjqA9lPJ4HBfa3ivM9mSx9Da2pVOqshpc/dw25KXmi2PuFeQuRfoVLi5ofXVQaxz2Z4BToAtNmaJYooqDu+NL7OFcmP6D6bCQvGMeYPoBL6nlvNI7HPplpL3P5M8ZSFVkT02woRjZBXrv/t5xPZz0gSb/ywY81brYKsj659NhMePINh+PbZdNmD7/zvyaZTrqV35uhNSgAgFGjKopTyqZYtX7Zv/aKjr9MvLjymLInpDJ79BQAYa4zKCXPMF9+SnlEQ2QCRRsF4/R3/lb/yj/3ss0kGYM0b7YBh9jVWgkCIgDnXWg9ttrlsJEt3DmafzYG33nmDKLtJxmWfzdd2bDjYUv/zJddOyi5QEAQA6NWaxxYsWzp28v9t+nbDicNBkgSEDGrNtROnPbZgGX1keRgdDtvbezZ/UrOT1+iR3iMwNDmGvWCfTYQiQoDfW3GBNe3Hsy65rHyiiohMYuhxu97au/mjg7u9wQCvWoC/YebQ99lMXJw3fkHLheAXJHZfkzH6IdOaMoYISYstRmYz4KPCP9VaYvxM6/iZVrcjeLbWcXBLz/F9to4mD8axnSDEy9nwM5tiCjxaLL1ZmVehmzDXXDzJkJypRtzZ0kE/5pMp/Jrtn9lMcMTDggnDOPlydc44+tpbt899ZANfYAwWjCqt0Dj1JvoX5bY5dn4QejJ4C8ZXX+09tUU3fhkAKFMKdROvdG5/kx9YVOAIWzCJj2FhNpt7GsJBClKLz3aeBG5TjkJmMyspLxy33dYswTsIXMRIckNiNiGRIcKKjB5m05qu7pfTjDIKh6FQoLnXpK59t40isSDr/FM0ogy7kQIJ/wj6ncxsciFS3mFlNikKr/+w5cxhx3U/LiieYKJj603KpStypi9O3bOua9earq5mL8aDYzalOgfzv8GkGDfLMu/61JxSPbt3eZykWkvQBwEVTTTc+kz/JwgF/bDmzfa0XHXZNCMApGSr88fpa7c7uJ++BsxsJjaGm9ncVX/qrvdeXD5l9gNzLs0yJ9GSy9KyXrjx3tW1+1/Zui7VaHpswbJpecXspD0B/zdH9r2644f6HmZvAfGz0dljDtuoHyCzaVBrbpg47b7pC9MMprC8AEluOHXklV0/nOnpBACRWoo3s5ngiKtfYJi0TJMznr6W/QLZL5BxfkGmNWUMCQLfAMI6L0Zmc9s3bWWVlpxiA1sL603K8TOt42ZY3fZg0ynXvk1dh3f09rb7WenyDpQU16rDzWxy0wKpWEo1UVppHD/HXDzJYElXKRQiQ4rXRW1a1RWSIzOb0hiyBUNXJ1KqLQvuRQRzdnlf1Zuk342EAvuzYMyzVxA6ZiKAc+9nwe4GAJYNMTgLBlP2zS9pxy6ms2ea/2P3vo8pr4MfWFSgbMHECQKFFjdms67rVPj5goolm46uEegXoW9/LplNAhGTcqfRNwNkoM3eIl4bw8ZsJjpGL7PpcZL23iB9sLUoOpu84VidTb7cUr1UyO5WX3hJsiDrAxt2ZWZzoOCp+BFjNjHGZw45Xnnm2LxrMi5bkRPecic5U7P0zpw5V6Ufq7bt/r7rVI09GBgos8mlk1idI7NIM3Vx8sR5SSnZaoJg5x8OVPWtf799yiXWi29Jo3dFKJ5kuOOX+e/8pt5lC0ZnNnd83Vs61Ugnl1+hq93uEEzql5lNAGCVf5iZTYfP++bOjT+cOPyTBcuunzyDQAgAFARxzYSpC0vGqhRKvUrNzteBlvo/rf9qX1NdEFPAamghsylWooExmwihqTlFT8xfNikrj2AV/HR3x/Pb1m6tOxEInawtXktxZTYTH/HzC5IW3MOcXX4e+AWfUF47P7CoQNkvkHFhQKY1ZQwVQ2Q2G086/3D//rwyY+Wi1MpFqdZ0Df0VHQAQAoNFWT7VUlZp8XvJuqPO/Zu6D27psfcGKBILCYRwfobs9cXsYnFTZseil+8VjtdPnG8ZO9NssIR2FmNHoMDnoU7XuA5tsZ/a7/Q4qLDgITCbFwDiYcEYxi7SjWF2VvI1H3Ee+l4sej8WjMKUbp53LxMj4O3b9LIgP4O0YLyntvhObdWWLQIAVXqpbuI1rj0fiAQWFShbMHHCMDGbhxr32z19Zl0SACybdH1t84EvqlcGqSBwm3KUMJtqpXrFnEcm5zMvy5mOY3Z3r2RtyMzmAMFp3tHHbNq6/W//5tSdvyxOztSEkwj4qJ3fdblswb5O/74NPeFYnz7f0HjcpdErktLUUy+1KtWR9QhNJ93v/rYOYwzsVh2NzGaCKjfM6WnANzOGk9kE7HYE1/27ed+m7msezJs8PzncMUxW1fQlqZUXp9i7Awe39tTusp097PT7KMbA6z9LTNsSClAqibRcTfl08+QF1qwirUrDWQuDKWg54/n29dZTNU6KxGvfbQOAS25Lp4tSMF5/168K3vtNvTMqs9l6xospjBQIALhbog+a2UxcjBSziRHU9XQ+89UHXx6q/q/Lri9L///snXd800Ybxx95xc7ee5HBDiGEEciEsPemrELZZZSWtrR0UFpooUBbKKMUKJRReFlllk0gJOwRSAgJhOxB9rKd4djW+4cSW5Zkx9nBue+nJdZJz93pdLp77ifdyY6I04SvT85LTmnx77cvn4t5XCGTVoeqtBHKnGEAbpY2XnZOisOGdPS+8fqFVC7TXtm00DdcHjBkZCcfPY5ylF0mqTwcdfevh+FlUklN3Awl0yTKpk7XtWoaZVzQMVjg0YfYrMyMFcdcZTKvdVxgRRoXVJbc2kXLT73HBZGViXf4nsFQPS4YhcYFCAQZJGsiGgbz2AAUbZ42ymaVRJ70ojQ5Vnh6V4q7l3H3QIsufmYWtnwev9oxxTDQE7A79DDp0MNk4rJ2r5+WPI8ojHtUXJRbKZfSmmZcNa16jvq0G2IxFYeBCcfBQ9DV37hLPxMjc4ZbTC7HhQXSlNiy2HvCxChRWSmxFr3iPOhDDnrJqlU2dRZctR9tmAeDcXimIXMxDg8AAJcXh++Xi0sAw4gi1N6DMQmawxKYEEHCxyeq8pKBwbxeHgzgpbf/4HsGAcYCAOOQpWVPT+AyCcPBjBHSPRjSkVrOeWmzHoyKttgEyqaoQnjy4aEPgpdigLFZ7E+Hfx/YYdChyF0x6U8rpRWtR9nU5xl0cegxo98iL8eexDEyuey/58fKq8qUxzPrDiqJqdy4SNkkU91bkS5v61M23zwv3bYifuYqNzev6nmUXD2Wm5fhwXVJ2SnlZHtRSdXN4zkunQymr3JVSFe4HI+OLDm5Jb2sRMrQgbYyZVOX0TjJo6mVTcCx/MyK/T8kOLU3HDjVvnNvU4UyyOZgZja84Am2wRNsJRXy1DhR+mtxVnJ5Tkq5sEhaJcFlUrm0CocaL4nFxjhcjKvH4uuzrZ349m769u4Cl04GJpYM7xTLpPjbpPLbp/KibxdLpdUZksvwy/uzMQyCJ1sRs2dcu+jPXO18ZL3G2egqvR6u2A+g6q3VQdnUTah1qemVTZlcHpEYN/6v5A/8gj/o09/CwJCcn0KxaPm/B56kJ9W4hNXZoiublgaG030D5vYJEdS85okB/DZmRmTyq20RV2KzM+T0dkm1yRJwecM6en/kP9iKtJpnlUx2LzXht8jLCfk51eeosWQaX9nUYRp3XNB/HsbRA6geF8jExfUZFwSSxwXHJXlJ0GjjAnlp+E6+R2D1uKD/R2hcgECQQbImooGoDrsY/Q8tlE0AwHFcLoOEZyUJz0rO/Mly6WDYta955z5m9m76XNJLHxwu1rmPaec+puUiWXKs8PntwtdRpSzKyl+NM+qrm7JpYMJxbC/wCjT18DY0t+PRfVYch5K8qpSXZS8iSlJiy0TF1TNQqn2cWoYc9JJlVjZ1nEbyYPjteuq3DyB+V+WliKLO1xxcBw+GbWRt1Gdq9YGSMuGdg4DLmVKvpwdT8epmZcpDvXZ+AMC16aDvPVb85LhyAFlXD4ZSkA33YECXaVJlE8fhn7t7u7v06uHqBwAsjOXnEeTbzi867cn5qONPku/lCXOUw+ZmVzb1OHpuVh16uwf5ew70tOmE1awBjOP47VeXr8Weo2qTSNmsP7hK38mkirQGZTM/s2L3V68nLnftMcCc6G0d3PUXbWh//LeUuIclUNMMYwDdgkwnfeJiWPOpdJkUv30q9+qht5XlcqAMvZV51aBsAnXAXnMUUjbrQ4sqmxhguBzSXon2f//awd3Af5R1175mZjZ65Bucx2d5+hh7+lRLQhVlsrJSqaRCXi5W+kscHovHZxmYcPSNOBoahwqxLClGdO9CQUKUSFqzhju5pl09mIPjEDLZipgh5NrV4L2VTv/bqFbZtPcQKBaZFZfKVLrHes1G12GaX9nEAMokFTtuX70WH/NJ/xGh7bty2dW6uYWB4Zbxs/68e/3U8wdlEonypUrSZeOxOYM6eC0JGOxhZUupUywMC3Lr2MPB9eTzh/se3soVlzIqmywM62bnvNR/sJ+LB3nWeXJh3h/3blxPiJUQEzK0KxmkbGqDwklqVeMCw2YbF1h7onEBAkEGyZqIhtOYyibRkVdJ5G9iShNjhJcPZ9i6CLoHWXTta+7grk+WLwWGbELfFJVIxSVVKvmpSbmplU1FbC6dDJZu9TC35dFnmgOAqFj66pEw9m5p+qtyYaFU2ZVo8fYlUjYVUBQcgHp6MBiLYx66EOMSj2Tx4vD9MlEhyVxbD8aw5wSOWfXnocWx1yrTozX0+vXwYHCppDR8p5VrH8AwwFiG/vPKnp/FpZX182AYyrOhHgw9Sp2iSZXN0rLi1Sc//nTEmuCOg1kYCwC4bJ5vu749XP3yhNkvM6MfJUXGZj5Lzk2olFY0j7JpaWTd3rZrd+c+Pi59nCzcBFzqIom34i9tubqmUloBpHG72tJoVGVTV6nuq+iXt/Upm+JS6dFNyfmZFQOn2hFvYprZ8N7/xv3S35m3T+eCHFhsLHiC9dBZ9nr61WqCtAo/vT39waWC6s8E0Yfeyry2oi8I6S7auBlNrmwCDjhAxhvx8S3JVw5meviY+A6wcO9mZGDMMB7h67P5+mx6uAZkUjwtXhx7tzTuYUlueqVcVuMB0PItk8qvH84BAOU6m94GU790OrwuTVRMnY3OE7ADxlsoqmVqbBmlztRD2dRtWkTZBMBf575dfurvwR27LQ8Z5mFpSyRhZ2y6esiEkV16bLpx/nF6EkXZ9LSy/bT/yCC3jgolFAAKykS5wpKO1vZE3gz1+LN7B4V4dNp178Z/cVFVMjm5XTLhGyzqGzreq5eRHl8RQ1mV5GT0w78eheeLhQCAgWpr3IzKpu52oa1xXMA1b8vjAt1v2RCtGSRrIhoExfttRGWT2FlZJkuNE6XGiy4dzLBx5vsEWfoOsLR2EpCbXUMTjuLdEHrmmlTZVESlb8zWN1Z1vnEoL5PFPxDGRJQkx4jLhDJS669pYNZgZVOXaRQPhmfX3sBrELFHJioovvMPLY3aPRi2gblxv5nVF6KqovTO37isSmPq9fFgKl7dkmQ+5zl2BwCeU3dBp4FlMf+RT197D4aRhnkwOuy+MEgvja5s5pS8/eb4R8O8xy4YsMLa2Ka6jmKYtbGdtbFdSKchFVXlogphYm78m5xXKXkJSbmvM4vShBWlOOAAeM2Dlbopm4ABhmEYYBjGsjSycbZo52zh1tHOy92mk42xvT7PgM1iEBGE5SX7IrdefH68SjHdqXmVTV3n3VA2JRWySwcy36aUv/dpO2IGscCQPeZDJ0t7vcsHskbOc/Qbbql4sCcsqjr6c2r8oxKqglGfdzabcza6zqK1m9EcyiZggONQXCB5cj3/2c0CgRHHzcuoQw9j925G9m76GKsOtz6OA+B4aaE0KUb05pkwIUpYkldVJZErHS1y9VHNt7RKfk11nc12Xgbvr3Y5+EMqWdnkCVgj5tu4dql+0pOXUZkWX04tKbq31maVTaaBAVAqTFMqmxKp9ELs0zvJr+b49Z/fd4AehwsALAzr6eS2b9qiM9GPtoRfKioTAYYZ6vHn9x0wo2cAeS1OGS6/+PLZ1tuX80SlY716fRI8zFRQvdfV3GrdsMmju/huunUhLicLB+AAa2CHriuChzuZWpB6NzwqM3Vj+IXY7Ay5Mse01ri5lE3dpvHHBeKiho0LWNB2xwUIREuCZE1EQ2lqZZOIVFIhS38tTn8tPr83zam9QfdgC+8ACysH5fqbqllSUfko3+VsVGWTilyGi4qlic/FMZHF8Q9FUom8Zk91/6nNwAwpmxposAcDFsNXVK+qCVD6+DRbYAwCY6BIKhjNGcQU/wAAGPYYzbPrQPwufx1R/jpSi9Tr7MHIK0pLw/+wnLoTWGyMzTMKXirJegnyKpWskLJH+0naVjNMRB4MHaZGDIjfAJSBa4OUTYm08uzTY9dj/xvRfcJY36muVu5ctvLLrXyugM8VWBpZ93EPUgSWlhdnl2TmlmbnC3PyhbmiytJCUb64UiSuFAJAWaVIJBESR1oZ2rBYbAzDzAws9Dh8S0MrE31zMwMLK2NbayNbO1MnHkf5ERhGpHJpTknm1Renzz49UlJeTAQqSwMpm42BOgWgdSqbchn+NKwgP7Ni9nceVg58AGCzsaDxNj0HWegbKf3JjISyfzYkZydXMOaoXsomaDcbHdT4Idoqm7pNa1M2iU2ZDETFVdERhdGRhRhgAgO2vbu+jbPAykHPzEbP1IonMGQLDJS1SyqVi4qlomJpSb4kP7MyN6MiJ6WiMFtSs5+2ggXdayO/synDL+/PBhz6v1f9zqZLF/2P//B8cKkwOUYsk4Kjp6DPcDMrp+rWUibFw4/nl5VKGTXKOiqbukk99DuVzcZQNgHHisTiX8IunI958s2Q8X3beXJYbAAw4OlN7xkwsIPX5rALldKqzwaMdDazVORBJpfHZmdsvnnhXuobImdHn9659jr6k+DhIzp11+fpAQCHxern6nni/Y8OP7lz5VXMor6hQW4dyE1VjrB4+51rZ148kSsm5ba4sqnrNO64QIjGBWhcgHg3QbImohFoHmVTcSyhb17cn+7cwdDL37xLHzM7VwHx4cuqyuo1mGgqQ5Mom8JCqZk1DwBwORTnSVJeiKMjS5JjxOKSmo8tgjo9tKmUzbZAQzwYnq2HofdQxVFm/eeb9Z/foMzIqkpu78NlMjWzPBrqwZS/vFqVm8C17QgAem597b+OakhuKdmrNXXN56LDqFM2gX4zNkzZBBwTV4qOPzhw7skxb5eeIZ2G9nLrZ2fqxOMo9U0yxgJTY4Fpe9sujX3GSsqryt4Wp8dmRt1NCHue9rBcIiZc/+q8k3VepGw2Bu+WsgkAaa/EO1bET/28XXtfEyIdsqb54k7xiS2pJflVgAFTBwoMQ2/SHvWz0dVYUZUj1U6RaXivQdnUXXDFn1aobJIPKxfLEqOFidHVj2fINQBTVREwlV+kRoW+Nq9GZRMAv3ooGwBCplSvs2lkzhk43ZqhEHGICit+dquEVoz1UTZ1mFahbAIGOLzOezv/f3+O8eq1yH9gO4vqa2pjZLJpzHQ5jpMXwXxbWrz/Yfixp3fLqiQAoMhZvkj47aUT52KffhQw2NfJjTDhsNizewW93zOQHINYUnn+ZdSeB2FvS4mngKTusYWVTR0FV/nZWOMC05C5piFzG5QvNC5AIFoCJGsiGgbdY2sWZRMDTCbFk2OFyS+FVw5n2Lvqd+1nbuPMf/mgOC1epGKliLChoz4GZfPkb2n9xlhhGMQ9KE2LKystIB6XkTQATW96No2yWfdr+M5A6jXr7cEYdAzCuHxoPCpTnpbF3YSabyBqTr0eHoy8rEh45y/z8T8DxvBicv1puAejwzDLIkwHKe9qIqieyiZgUCGteJgY+TAx0lhg6mLp1s3Zt6ujj6ulh5OFa62vVTb0dHF5njAnsygtrSAxNvPZm5zY7NKsssrqhpR6kqql0TzKps5WOBxXLZB3RtksyK7c/33iqPmOfsOrlSDibCLP5p7fnSEpl9OsGkXZJFewppmNrsPU2c1oMWWzTq6gGivGyqFW2ZTL8Ov/5Egk8tCp1oxzgAAAl8PjK0UXdmdLJThTMVKG9bUrm7pN61E2K6XSE1H3wt+8XNBv4LSe/nwOl0hLoUhKZNKzMY//uHMtrbgQGKuHXP4g9c2Ct+mju/RY2C/U3tiMEgMARGWm/B5x5VF6kkzpCqp2jy2nbOoyrXNckIrGBQhEC4BkTUSDYPbYmkvZJH5VlstS4kQpcSKFoeLJfWOP+qgaZcab8hO/pNVEyeRQMFk1tbKpk+CKPw3zYCQ5ibhchjEtIFg/isN2Vq+e02QejPjRUePgDzmWbo2SYWluAg5YtQSOPBh1aFQ2aQ1a4yibRByl5cUx6U9j0p+yWSx9PUNDvrGDmbOzRTsnC1c7U0dLQ2sbE3srIxtWfeuwHJfnCbOzizPfFqdnFqUm5yWkFiSWlBWVSUSKpTMBVN8zp5wkpTSaXtnUVWqatXdS2RSXVp3alpqfVTliriOHi1VJ5Jf2Z4WfypZWUewbUdmsWwfKdAvXpmzqNm1F2aS2Sdoom9Iq+a3/5SY9Fw9+38azhyGl5LKTK24ey3sRWSqrwgFATTGqCEm1v7OpqzRAv1PZbDxlE8cgV1jy09XTl14+WzVoTA+ndorkYt6mb75x/kHaG6lcDgCqbYRKLsWSyv9F3QtPjFvQd8BE7z48dvUIurSifMedayejH5ZJKmvOTrXJamllsy14ayo/W3xccKM5xgVGQQu5Vh6NkmE0LkDoBkjWRDSU1qBsUq20HL819heE1DgUdbNSpln7kINesrrcpdD9lXp4MOKXtzO3T9dzVJ3DSxtfYNQN5oKtykkQx1wmH9oUHoy8UpSza5x+tzEYi8WYW2rm1R8gK8ksjzlbnXrDPRjdpuWUTQKZXC6qKBVVlGYXZz5JvgcALBaGAYZhGIaxTARm5gYWRgITK2NbDotjbmhJvDmCYWxzA4tySVmZRAwAgIG4QlgmERWLC0WVwgJxXpG4QC6X4jjxoqBKflRei6O0WZSTpJQGUjbrC5Pk9s4om1US+Y1jb+MeFnt0N06KFmYmllNNqFbNuc5m/ZRN3exDcbUOgw4rmyrqklbvbMrxlFjx3lVJlg56rl0MDE05AFBRJk+PL8tOrpDJAGjNnzplk1aMjMqm7tIqlU05Ln+SnjT94Lbx3r0XBQzisFh77oUdi7pfUSUh+k4AoLUR1FxmlRb/cPX06ZjHK0KGe1raRiS92hZ5Jau0iLBQ5qu1KZu6CKlZa1XjgjfimEvkQ5toXJC7a7y+91g0LkAgFCBZE9EIvEvKJqh61TqnbOo2jeHB4KKYG6KYG4oqgAFzb6zSkdeULqYSUvNX1dlpCg9GWpBaevN3StKM+QEA+lJKVIdGkTryYDRTm7IJQBm40pomykYdlU1KmymX4xiGAw4AsgJRbqEoD4CxKlJ+kv5i1Aqr2h4iZbMFeKeVTVyOZyWVZyVVC5oYMFxqit7UXOts1kfZ1O0+tI0pm1QjbZRNAFwux3LTK/MyKmsiqdmFAWPz1wBlU6dplcomBnilVHr0yd1/ox8CgEQqJVWKmoZEo7IJGCbH8eistNlHd3FYbKlcXlM9aI59K1I2dRWVHpHU2lBDdHNcUJiGxgUIBJlGXZQB0RbBlX9wXCWIl4KCpwAAIABJREFUaBmB9A/tELzmGOXRlNBqK+UmrhKfRivGyGmb5Mg1ZEnVSjVHyv9Jp1jzkxR7HayUadLzoRoxPQLdhFoEtD3kAsBpHTjFXPkLo1wkmoViAwMGc2Ayx6hXQ23qgAPDK7b0i4mT/TH6uVMCcaproT4/GHmzTqnrbIXDVdsEtY2Yqo3iD2Obo9LiUJsjepOjUpfV3+i0xpApIxraDqb84NTKQKtiqhFQi4qhjWM8RebMUFOjlpTOwnR1mC4vvQMFWlHRSq5efRy1ntahg1Z7CzB2oJTTpu5R04Gqt2LqQFX+odU7Sr3VXRgKTG0FopQvtS7WuTJosKp/5FpZ4WoqB7Uh09CSabBS7lEpRuZGjuEe1kWURac8WbWdnOrlUXO5Ve1JAUzVmVzmzA0cDgCVVdJKqZRqrExRffVQ7MJBKpcxVw+cwayxSoZcLJRTJP2mV1Jdhn5TMdxmaFygOUJy6kDNf1sfFyDeEZCsiWg4Gjy2VqlsUlwBui+llRVSNpsdXPlQk/SHOaQRPBiGLh95MNSEdBXtlU1ag8bUNFE2kLKpasx0sjXBOOA6XuMYrq6aykAuXZx+RNtTNuvQgar8Q6t3lHqruzAUmNoKRLkq1LpY58qgwaqJlU1tNUoNLZkGK+UelWJkbuTaSE17J5RN5a4GKJt0e+oudc1MMyqbOgsOaFzAmDd6hNSDGSMkpw7U/KNxAaL1g2RNRINgGtJTupLWqmxSR/LaWZE3kbLZ/DSvB4PjqiWKPBimhHSVOimbtIGrwk4lEtUmjFLijG2mMgkghbU1ZVNXoV6W6j8MZaZyeekdKCiKSl1vpZPKJq7Wqt7Kpq5WNlylSCgFprYCUcqXWhfrXBk0WDWlsolTjCgloeYmobZkGqyUe1SKkbmRo8Sri6ieIlI2ac0MUI2QstkA0LiAZssYIfVgxgjJqQM1/2hcgGjlIFkT0VDeVWWTdqSOKJs6TzM/mwXkwWiKULep02x0pGyqHNC4yqbuwtCBAqVAkLJJvRW1sqqfsqnT9a0NK5vkcwV6Sai5SagtmQYr5R6VYmRu5Cjx6iKqp4iUTdVmBimbjUyzjwto5mhcgEC0PEjWRDQC77CyqbqJlM13A+TB0GwZI6QezBgh8mA0gtbZJG3SqphqBEjZrDsMvSXT1UHKJvVWpFZORqu6K5u6C6V0GApMbQWiXBVqXaxzZdBg1ZTKJrVNopSEmpukDlbKPSrFyNzItYE6p1p0SNkkV9hGKhmtlc22UN2a+51NmjkaFyAQLQySNRENRI0nQQ+iOBHMVs2ubFJcAbovpZVVK1I2dRWqX4Y8GJotY4TUgxkjRB6MKtTi0VrZZGoGFXYqkag2YZQSZ2wz1SRBj5WhKlJ+Uu3VNnm0q99yyqYOw9BbMl0dpGxSb0XVyqXGqo7Kpk7XOErpMBSY2gpELSVKXaxzZdBg1cTKZiuaja6rNIV+p7KJlM26Kpu6i2oVafbZ6FRzNC5AIFoSJGsiGgTGArWeBD2I4kQwWyFlk9lKmSY9H6SIMR3tWXByVasJqv6r8oc5BCmbtURYdw8G19WqhmEYUGsLUjZJm7QqphpBEyibGAa6WtmIPwy9JdPVQcom9VakVk5Gqzopm7pa0VjEiVFKh6HA1FYgylWh1sU6VwYNVk2pbJLPFegloeYmobZkGqyUe1SKkdrI6Wr/CQAsDKO2+qQbvSYUKZuNVjK1Kpu62oFiLDaQLwoA+oIQY97oEVIPZoyQnDpQ868mdSQrIVoSVP8QDWLIVFdyr/sOK5vUkbx2VuTNVqBs8vhYz6GmoIsIBsxXvcgA0NweDI6rduRt24OB3ktoQbpAe/tuXi5+QPdX66Jsqo7/mZomygZSNlWNyQm2t/N1teoCukjAJGeVC0XvQIFSIEjZpN6KqpVLjZXWymb3kWagi/Qe6cATsAGAVjoMBaa2AlHKl1oX61wZNFg1pbKJU4woJaHmJqG2ZBqslHtUilHlkG4jddNVA4Dp/QbRewmkbCp3NUHJaFA2+VzukA49QBdB44LWNi7A+yymBiEQzQiSNRENwtRSD0ClW3lXlU3ake+ismlswQUdBeMKMH3TFvdgAJAHAwAAbB7om1NzoytYGtkw1DRKm6C2EQPSJrkZVNhR2hzyb0oUjG0mOX7m1HVM2TQzsAYdxcCEy+awVC4UvQMFSoEgZZN6K2plpYWyydNns3m6+VoTABhb8pluelBtFhhKSUNT8c4qm1QjSkmouUmoLZkGK+UelWJUHmJoxgEdxdqIUGyRsqm0p+5qgpJRp2xaCIxBV+HqoXFB6xoXGFhSc4NANCNI1kQ0iL5DbOljg3dY2VTdfOeUzW7BOuu+sMwdOG49AVQrDQH6ghDNljFC6sGMEWrpwQjMwa0/NSu6Qv9uY2nNSTXv2BeEyJmgZ4RS91qrstnHYzjoKJ69LPSNuUBpM+gdKFCuDlI2qbcitXIyWtWmbNp25BtZ6uyjQe9QG+pFVS0ShiDGCkS5KtS6WOfKoMGqiZVNbTVKDS2ZBivlHpVirA73DDACHWVotz7KmkJp9Uk3ek0oUjYbrWQYlc0g966go7DMHLgevQBAtXgAANC4gB4bY4TUgxkjJKcO1Py3kXEB4p0AyZqIBmFiqdcj2IoyNgC6J0EPojgRzFbNrmxSvB26L6WVVYspm72G6ey0JgDgB8yo/tXSHgxTl9/GPJges6iZ0CF83AJtzZxpzUk179I6mzhjVaT8pNqrbfJoVaUZlE1LY8fOjn1Bd+k9yp7aazHWHKBcHaRsUm/Fenegin+6DNTlDrT3SAfqFSD+MDQLDKWkoal4Z5VNaptEKQk1N0kdrJR7VIoRd+1pIDDVWQHdwtAkuFN3ZU2h3JikG70mFCmbjVYydGVzaHvdnIFOoOePxgVMqQMaFyDaIkjWRDQIFgvz6mtJdQcAgO5J0IO0skLKJrOVMs2ahB07CPSNdfmO5jh1ZZnaVW8gD4Ya0qweDOY5mJoDHUKPy+/ezp98T1OL5x1SNlVSZMoIpe61MmWzk31vHocPukvnflbMF4pec4BydZCySb0VG6Js6ptzrNz0QHcxMOU5dTKhXgHiD0OzwOxm0KwYahrlWKRs1oQoi9HFx5Clu84am8Xy9/RSqUyUG5N0o9eEImWz0UqGXCztrRyN+fqgu7Adu6BxAXPqgMYFiDaH7variObCb7CdnYsB1R0AALonQQ/Sygopm8xWyjQBAIegSRYcri7f0SxzB57fZOU28mCoIc3lwXiE4va6/PwfAN4LXMLl8Mj3NLV4kLKp3KRVMdUI6q1scti8ET7zQKdx6GjcoY9F9TmrdidI2VSJAFSLgDnr9e9AO4eY6PAMdADg8FjB09sBAPUKEH8YmgWGUtLQVLzLymazrrNpZsfz9NfZGegEQ7x6t7O0U6lMlBuTdKPXhCJls9FKRvF7klcAl62zq7gCALv1jQtUaigOaFyAQDQbuiyCIJoHQxPuhMWeegI21R0AALonQQ/Sygopm8xWijS9Q4w79NRxRxkABP3ncly6K7dbgQdDM9d1D8bIDgasBkxnP6xB4GDhNj1oOaje09TiQcqmcpNWxVQjqJ+yOdp3oY2pC+g0GIYNWehpZMlnvBRI2VSJAFSLgDnr9elAbTwE3Ubo5jfQyXTsY9F9kC0AUK8A8YehWVAppRo7uhVDTaMc27qVTfK5Ar0k1Nwk1JZMg5ViD0cP85tmxTdig05jqm+4dNB4AU9PpTJRbkzSjV4TipTNRisZHMeD3b16OnmArtPaxgVUcEDjAgSieUCyJqIR6DPQdvQcdwCgugNEEMWToAdpZYWUTWYrALBy0pvwiT1XT/d7FJaxlfHSf2jPQlvSg8FplUnHPZjR2zE7b2qqusi04OVBXUaA6j1NLR6kbCo3aVVMNYK6Kpu93AeP8l0IbQAHT+NJX3YBAOYLRa85QLk6SNmk3oqqlUuNFamMRn3rqG+qy+80EXD57Ikru1i7GAIA9QoQfxiaBXJNYqpAlPKl1sU6VwYNVk2pbOIUI0pJqLlJqC2ZBivib8/xFh79dP8JNAAM6tpzXshIoFQmSqtPutFrQpGy2Tgl42Rq9XHgGD2OLr+BToDGBfTUaSFoXIBoEyBZE9E4jJzVzjvACgCo7gARRPEk6EFaWbWEskkdyWtnRd5sYmVTYMiestKBq9dW7mXM0Nxozh84m+SrtbQHAzjQPCod9GAAY2MBn2DubeVDhyyMtWTY2nbWHUH1nqYWT12UTdXxP1PTRNloq8qmo7nnjICvMKytNGvte1mEzGiHsaD6Qql2J0jZVIkAVIuAOevaWeE4iw1DPnEQ6Prbcwq4fPZ7q7sKjIgOFCmbFKumVTZdfAx8x1tCm+GDwOEBHbyAUpkorT7pRq8JRcpmQ0vGkCf4vP+EtqBpEqBxATVxhhA0LkDoPm1lzIBoalhsbPkmH59gawCgugNEEMWToAdpZdXsyibtyFalbAqM2PM2uDh4CqAtodd7rNH7WzAe6axb3IMBXfdgMAwLWA4Dv4M2ozQBgIWx7fr3/3G36QIMAx0l2iubNZuUoQ0pavpG21M2nS07fjZqt6mBNbQZMBYMW+gZMr2dstlAyiZzB0o57QYpm1w91qBlDh0CjaEt4dDeeMHWnkjZVGPVVMpmu16GI790YrUV/RwAgMNibZ22LKSTN1AqE6XVJ93oNaFI2ax/yRjpCdaPmOVpaQ9tCTQu0JR0dQgaFyB0HPaaNWtaOg8IHYHNxnwCrYXFVdlpZdIqOQBGvJ+u/AcUK2+Q/lCCtLLCqEdTQqutlJuYSnwarRgjpx2JYVpYYZRIVHOk/J90ijU/yQmrs3Jsrz/1SyfH9rqgab5OSjM2MzM00nZyFsehE2buIMtKwMWFylCViwy0S0HZRwmhVQUAqjmoXgGmSf8q9YJat1UjpNQgoK1Lw5w60KsIQ9JEgEpmmH6qrdGqERrZgd9CLPRb6hFtAH09o74dB6XnJ2YWJIPqPU29XBi1iJkaMSBtkptBhR1j/WWqnrQmR0PVw+ixMlRFyk+qvdomj+Hs6HVWJQJqUZG2u7sGLxnyi5mhDWhN7tu3xgYCa0tz7U2agaoqaWJqhrWdHU9P2+9re/ha4HLIzyiXlElp/QdDb8l0dZguL70DBcboG97HUetpHTro2rtdao6YO1DqgWqtzOz1/GfZdAw2gbaHkYWeW3ezt29EpfmVAEC9AsQfhmaBXJOYKhC1ZaPUxTpXBg1W9Y+8ditKm0QtCTU3iVorLp/VMcQ0dLF9nWbVZKamOthaGxsZaG/SDAhF4szsPEdXVy2PZ7PYwR18istKUwpyqmRSlcqk2ksoN5Ulp7aTUzFWd/fTKnVNAFN1Jldd5gZOdZdKpVBmi5RHai5rDmawp+5qQMl0tHb8vP+EDtaO0PbgOHRimdnL3raucQHNsWdIRDUa1Xip5oyp1xxYa+qNOS6wxfrUbVwgkUjy3r51d3XkcdvKe8SIZgbJmojGhMNl9QiytnM1yE4TlxRUUt0BAKB7EvQgrayaXdmkeDt0X0orq8ZRNvX4rMAJlpM+dTS35YFOUFdZEwA4jp31eo2VF2XIsl4pQ5EHQwlouAfTLggbt4PVbRJ1X5tBX8+ov9dYQ75xWn6CuEJIvqdpV5taxEyNGPk3ZWhDipq+0bjKJiWn9IxQbxyGCtu4yqaFkf343ktmBH6lz6vb2nM6I2sCgHsPc/ceZgWZZYVvyxl6LcaaA5Srg5RN6q1I73bbBxqP+MLZroMuPBSsHybWfJ9Bdrgcz3ojlEnl1CtA/GFoFsg1iakCUa4KtS7WuTJosHonlE2rdvyguXY9x1uyubT+VSO6IWsCAJfDCe7o42ppl5KfnS8qUalMlBuTdKPXhCJlU9uS4fN447v1WxE83s64dXWFzQnHsQuv11i8OEuWFa8MVak4wNRmUY5VuYTU1oS0l9axUFqHmp0Y87aqOTka1Xip5oyp1xxYa+qNNS4Yux3znkzdpxEkayKaGgynv6aMQDSYygrZs9t5p/e8yUwWEyHkbgUpm0Dax+Dl1PwkdzfEPjYH6zvKctBMa4GhTs1lunA9wqGdm42dXV0NcVwuz0ksv/iL5Ml/uFwKQPdgAGqmkmjhwQBgtKkXan0IXDsPBpSTT+gRUs1xrT0YwADXwoMBjDyTphYPRnkwxmKDS19W/y/BqRewdUQ9byBlEtGVp8cO3fxVWF5Ea06qeZeUTVCtXfSMUF1/Bpe7UZRNQ77puN5LgjqPF3DrM4Z/8fSpg5VZlw7u9bBtOsRl5VfD73fp0aNOT2sIZFXy1NiS6/sSk58Xy3Fy68HQWzJdHaRsUm9FYoPFxjz7GfeebGXuoIexaG1lm6RcWHV9f+K9MxmyKpx6UVWrDUMQYwWiXBVqXaxzZdBg1ZTKJtWIUhJqbpKaew0Dcwc9v/ds2vUyrN/S5w/Cw3t37+Jg17rW4sh8m/vwWWyf4OB62FZIJLfin/0ZdjY5LwtX1BTVXgIpm8pdWpcMh80e3aXPjJ4DDHlt9zkNmVY4LqC1R9AGxwUioTD26dPBwX4G+qiiIpoEJGsimpaH17NLCiSXj6QCtUehNvJ0IU+zhw1UNwOYG2RNozIgdwUalU2NRzL3SxTnm5wp7QZmqql69jCyc+N3CzIx1MUPttZb1lQgfftK+upuVXy44iGtWg+GUu9oIcTBNBeE9rPGL6HD6IIwRkhLHVdnTksalAsFUZOnbTF5MOpOEAwsWN5TMJtO4OrPGD3i7IO/i0S5YTFnAKjeKqWtoG5QLi7dlrHloppQL7Da1o/SZtLbXOaahqn+pOyhNn+009cYPfkkMejbfqSpvtWgbtOgAeierKkg6VlRTpLo6dVscbFEmw4UmDuqhnSglC1aZ8i4g5ZBTUfSWyKm2qqdskk9S0WqFi58l+6Gjl76Fk58QNAQF0uiw3LeJorePClkKncN3hrlamGU/+lx0FwjlWjVRFqbc6XNkWprmkpGVCsu7VGU+iZakbDPaAt9E277gAat2ap7sqaCazGP8kWlh+9dJTbV6HfMDzlUn3HQWxmVzZofTHq5ul6OuVlUX4WZw5naKNJPcuKUVlmljjE8n1L54+Po4WZhG+Te1VRgCAgaaFzAmNuaJJp7XIBkTURTg2RNBALR8jRc1kQgEG0THZY1EQhE20SHZU0EAtEGQbImoqlB365CIBAIBAKBQCAQCAQCgUAgEO8YSNZEIBAIBAKBQCAQCAQCgUAgEO8YSNZEIBAIBAKBQCAQCAQCgUAgEO8YSNZEIBAIBAKBQCAQCAQCgUAgEO8YSNZEIBCIulFaUvzL+nUvX0S3dEbqRkV5+crli2Njnmt5/O2bN75b9VmTZgmBQDQ6db3TWzk6djqIWomNeb5y+eKK8vKWzggCUU+2bFp//vSpls4FQtf4duWKyPBbjR7t+dOntmxa3+jRIhDNDKelM4BAwPpNm98kJn7w/syAfv3I4X/u/evh48fEb2MjYw8P98njx1tZWSr25hcUfv3F5xpijrx7N/ZlXEJiokQisbG26d3TNygwQI/H05yfgsLC4pIS93btGnBOiEZm3berfPv4DRs5pkVSf5uZweZwrG1sic301NRrl/+zsLLq3LVbI6bS1Ocol8uin0WVlpRqeXxebs6L6HdMum39PLgbeerYEeI3i8W2trHx9vHtP2gIi9VUTxnJKbLZHHtHRydn16ABoebmFtqYV5SXZ2VlODu7crjcJsohoh5IKisjbt9MTUpKTUnm6fFsrG37+Ad07dYdw7C63ul1oqK8/M7tW0mJb9LTUvQNDJycXYMHhDo6uTRFWgRNejqIZiPhVfyenb+bmpl/tWYdZVdSYoKVtY2RkTGxWVpSGv0sSi6XNXseEa2O16/ibt249jYzAwCsbWx9e/n16Nmr6TqjIwf2vXwRs3rdBp6eHn3v6RPH7kWGr//ldzanluFzQny8QIA+99waITwixotY666Fyz5292hPjzP6WdTh/Xvmfri0Q8fOjIbEbx5Pz9Laurefv59/QP1cvhcxz3x7+9XDUDNZmekJ8fGNHi0C0cygtzURLUxuXt6xk6feJCWfPH2GsisxOTktPaOnr2/PHj1MTE1O/nt61MSJDx49UuyNe6W2FU5Lz5i/eOnnq76Oev7cytLS2to6623Wd2vXHT1+otYs/Xvm7KKlHzXkpBCNzssXMdlZWS2V+u+/bDyw50/FZpdu3nsP/2/m7LmNm0rLniOieSjIz49+FtWlW/duPr4dO3UuLi7avH7tqhXL5HJ5M6To0b5DYUH+/w7/PW/Ge/+dPa2NeeKb14vnvJ+Xm9NE2UPUg6gnjxZ+MGPfrp0Z6akOTk4G+gZxcbFfrvgo4XXTjkweP7y/cPa0v3bvfJuV4ejswtfjP7h3d8dvvzRpogjd4NKFs6kpKbdv3khKTKDsWjb/gzu3w1skV4jWzL4/d37y4fzM9DQHR2dbO/vcnOzNP/0gFAmbLsXU1OTHD+9fOPMvfVdpSfHBfX9GP4tqus4a0QwQHhHjRax118G/9jDGuW/3zuhnUaJShppJGHbr3qNHz97unu3zcnPWfvvlz2u/a+BZIBAIOuhtTUQLc/6/i44O9tPfe2/zlq1CodDIyIi818bG+sP584jfpcuEsxcs/Pq77y+fO8PR+KRUJBLNWbioU8cO506eULzdCQAymUwqQ8//EY1Ak76dhNB5ps2cza15bTzs+pWNa9eEh13vP3Bw86QoLhPv2vrbtl832trZ+/bu03SJIpqCVy9jv/7s48nTZk6bNYdHmnxQXlYu0G/C94NiY56v/uJTerpokI+oFYlEcuvG9SXLV+z9Y/vNa1fd3D1bOkeI1s6rl7HHjxz6Zu36gKAQRSCO4xiGNXXSx44cGj56LF/1dcvjRw6Xl6GFEdo0D+5Gvo6Lbd+pCznw0f178bEvNBtOmf6+wgE7cmDfwX17Zs1dYO/o1FQZRSDaJEjWRLQwZy/8N2LYsEGhA37+5ddrYTfHjxmt7khjY6OF8+Z8vurrpOSU9p4eGuLcvGUrh8PZ9NOPfD6fHM5ms9lsNvE7OubFtbCwtPR0Lpfr7eX13qSJXC4XAP4+/M+2P3YBwNxFHwLAmm++dnJ0BICst29P/ns6ITHJ0cF+6uTJzk6OALDiiy89PTwUwmtc/Kudu3ePHjFiUOgAIiTsVvjJ02e2//YLi8VSl+KKlV927dJ5zqz3FfnctfevsrKyFR8tq2ththEqysu/++rzL779/nbYjbjYGBaL5R/UPyA4hHzM86dPIsJvFhcWdPX26drN+9D+Pd+v36zY++L5s9u3buTmZHu07zh+ylR9gT4RnpP99uK5M2mpyXy+wM3DM6j/QBtb241r10Q9eQQAeXk5An3979dvrigvX/3lp7PmLezi5U0Yvn4VF37jekZ6qr2j08AhwxSzVLTJaq3IZLL7dyOfPnqQm5NtbGLa1z9IEUN1/F+vCQ+7HvfyBYfN6T9oSC+/vm9ev4q4FZaSnGjv6DTpvenmFkpxPz8vd+8f21NTkuzsHUJCB1Hm0T+PehpxK6y4sKBLt+6lJSXa5AHRQPqHDt6+eWNiwmtC1szJfnvjyqXUlOSKinIXV7dxk98zMzMHgKMH9ye8jl+97mfCqkoi+XHN1+4e7WfOmU+E5GS//WX92mWfrnRydtWcooG+wSdffPUm4dW2XzfuP3oSwzB1iUY9efTN558AwOfLl9g7OIwePzkgOETdwYhmQFpV9euGHwNDBsyev4iyS52mmZmetnXzhk9XfWtja0eEHDmwr7y8fO6iJYpj1DWJCqokkt9+Xh88YCA9XWIyHdEqfvnd2scP7j95eN/Wzv6DBR+qazfy83I3rlszbtLUvgGBRCTXL1+MCA+bv3iZ4onR4f17JRLJnIWLGU+KMcOMedBcnojm4e7tcLlc5h8UEvcy9taNa3MWLibEqdKS4nWrv5LJZFs2/hR29VKXbt1nzV1AmOTm5Ny/c/JV/EsTU7NR4yZQ5n7euHb56aOHVRKJT89eQ0eMJmKLjXl+48qlSdNmhl278uZ1PMWwTCy6ee1qfNzL4qJCKxubEWPGMc4nRbQS4uNeAoC3Tw9yIFnTjI99ERF+MyszncPldu7sNWrcBPLk9KyMjMv/nUtLTfbw7BA0YOCBPbvmfbjUzsGR2JuT/fbSuTPJyUl29vajx02yd3RUGHbr7pOWmnL23xNTpivd8qKiwvNnTo2ZMOnsqRNaZkBBSXHRLxvW+fj2HjdpiubUt2xaHxgSymGzw29eFwpLV6z8pkmfVCHqhEBf4OXtc2Dfnh83bSGHH9y3m1IxNOPt4wuwR0ZaZKOyouL8mVPxsS8MjYyCQwf5+PZS7CovKz97+sSb+DhLa2s//0ByPOdPn6qoKO8bEHjt0sXUlKQZs+d5tO8AANKqqv/OnYl/+UKOy7t09R4xeix5Tr1MJrt84dzLmGhxmcjNo/2wkaOtrG3I0crl8h1bNsuk0mWffqEYMiMQ7wRoEjqiJXkeE5OSmjpi6BBLC4uePXwuXrmi+XgnB0cA0DwDRS6XX7h0eea0qRRNk0xRUdGCpUszM7NcXVy4HO6W7TtWfLGK2NW5Y0dLCwsAGBQaOig01MjQEABiXsROnjHzTVJS186dXickTJo+41VCAgAYGRqe/Fc5kfPytWvhEZEnSCEXr1zhcjksFktDiuYW5v8cO4bjOLEplUoPHz3q7IQe4qlFLpc9f/pk2riRTx8/sLN3EAmF61avunBGuTr7v8eOrvr0o+KiAjsHx7DrV5fOn/3w3l3F3v/Onv7q84+lUqmbR/uwa5eXzptdWVEBABnpqR/Oef/5s6curm4mpqaP7t+rqCgDAF+/6oVsAkNCCa+Cstbb5f/Or1iyMDc328XV7fmTJ8sXzYu4GaZlVrXhXmTEjl83VVZWurZzLy4sWLd61b/HjqrEP2G77JbyAAAgAElEQVTU82dP7B2dCgryvv1ixafLFv3wzZelJSVOzq7hN64vXfCBuEysiG3Hls1vXr9ybeceF/vis2UfXrv8n0q5rVhGlNvNG9eO/XOwTCyqNQ+IBoLjuFQmVUhOa75a+TzqibmlpZW17ZWLF5bOm11WXgYAVrZ2dyNuZ6anEYc9i3py/07kyWNHJBIJEfLo/t3kxEQHR2dtEmWxWBOnTMt+m0XMLleXqLW1TUBIfwAIDOkfGBJq7+ig4WBEM/Aq7mVqavKUGe/XfmgNZWVl0c+iKiqU7xmlpiYnJ75RbKprEinpZqSnakiXaBW//uzjvX9sBwwMDA1BfbthaWWdl5sbfvOawvzcvycf3L0TeesmsYnj+IWz/5qpWf5VXYYZ84BoDVy7fKGffxBfIAgeEJqXmxMbXf0BKB5PLzAkFADcPdoHhoR27uKlMPnsow9TUpJcXN1exb38aOFc8tT1n9d+99cfOywsLC2trfds/33Tuu+J8NKS0ovnzy6d/0FmWhrd8O+9f54/8y+Pr+fs2u5lTMyy+R+8in/ZTOePqDuOTs4A8L9DBxjfBy8pLlr12Uc5b7McnVy4bO5fu3euXf2VYm/M86il82ZFP49ycXV7/SpuwftT70SEl9e0ga9exi6ZNyslJalDx05JbxIWz3ufXLsE+vpTps86efQfsuN07PCBzl28vLx7aJkBBRXl5au/+EwkFI0YPbbW1BPi43dv37p61Wf5ebl8PQHSNFsbs+YueProIfn7dXcjbmdnZY2dOEXLGHAcv3njmpu7p+Lxs1BYunzRvFs3rrm6e0irqr7+7ONLF84Su4qLipYumH3p3BkbO3thSemPq78mvy+clZl++uSxT5d++PzZU75AYGxiAgBlYtHyRfPOnDxmYWHJ5fL2/LFtxbJF0qoqwqSyouKzZR/+7/ABIxNjCyvru7fDs99SV77aufXXyPBbk6e9jzRNxDsHelsT0ZKcPX/Bq2sXQsIbPHDgTxs35eXlk6eNU3iVkMBisTp4apq+lJKaJpFIPNzdNBxjZmYWfvWKXs2K4AH+fVd9+11aeoazk2Pvnr5TJ086furf9yZNJPbiOP7Txk2DBoR+9/UqAFgwd878xUu27fxj+2+/DggJOX3u/JvERA93dwAIj4gYEBIcHhFJzKaXy+X3Hjz87OPlmlMcPXz48ZOnnsfEdO/WDQAePHpUUVE5ODRU61Jso4yZMOnDj1YQv39c8/W/J/43cuwEAMjNyd6/d9eCJcvHTpxM7B05MEjRqRcWFuz5Y9snK78i3owbP+m92VMnnD/778Qp08KuXTUwMPhtx27KFKfQQUOvX7pobm4xatwEejYKC/L/3P7bgsUfjR4/EQBmzV3w3arP//j9115+fRUzmNRlVUv6+gf0CwxSrC++ZdP6U8ePjp8yVXHA2ImTFy37hPi9cvni6GdRJy5cIT6/MHzUmHkz34sIuzF0ZPV70N49fDf8tg0A5HL5T2u+/nP71n4BQQaGRprLrdY8IOoHjuNHDuzjcrh+/gFEyNY/9io+VjDxvWlzZ0y5feP60JGj/fr6s9nsJ48eOjg5A8D9u5F9+gU8un/32ZPHvfv2A4BHD+736dtP+3XoHV1cACAtNcXaxlZdog5OzqPHTQy/cX30uImK91zUHdw4JYLQSEpSIovFcmq8RTA0NInkw5KTEtkcTq3pJie+uXjzjqISamg3+gUGX7t8kZhSWlhY8CbhlZ9/wN2I2+/NnA0AiQmvi4uKFDdFnTJMyQOixcnPy4168viHn38BgC5e3uYWljdvXO3q3R0A+ALBqHETdm37bdT4iUNHjCJb/bBhMzGZYNqsOfNmTDn378mPP18FAA/u3okIv7n30P9s7ewBwK9f4Mrli8dOntK+QyfCcOPW7cRrmBTDeYuWKhquOQs+/HDOzLMnjq/8dk1zFQOibvj27jNi7PjTJ/5389qVgJD+/QcO7kRSvU1MzY6duaS4oD379t24dk1WRoa9o6NcLt/+6+YevXp/9f2PRDvw5/Ytp08cI47EcXzHll8Cgwcs//xLAJj6/gdffrL07z27ftigXCN45Jhxp44dOXvi2LRZcwCgMD//4rkzG37bVlhQqE0GFMfIZLIf13xdVlb2684/iSNrTT01JenI6QtaftAP0cy4e3bwDw45uG/Pz79tBwAcxw/t3zNh6vRaH6F9/vESHpcrqaoipqtv3LpTset/hw4AwG87dhOz1G3tHf7atWPw0BFsDufQ33tlUunOvw4YGBoBQEpy4qLZM8jRFubnb9y6s1t3H0XI4QP7ysrEO/b+rW9gCABDho9cuXzJ2X9PTJgyDQBOHD2cn5f7x75DhqoLvikzc/jA9SsXf96ynVyNEYh3BeT2IVqMysrKy9eujxg6lNgc2L8/AFy+do3x4PLy8vCIyN937Jw9c4ahxv7jbfZbADDQV86hm794qY9fP8V/BYWFAKBH+sphn169ACA9I50xwrT09Ni4uInjqx+0Yhg2eODAFy9fAkDfPr0N9PXv3n8AAGnpGWnpGV+vXMnlciPu3AWA6BcvxGJxcED1wExdit28ujo7OV0Pq35L5cq160EB/sbGzF0OQkH3HsppGj6+vbOzsohH+o/u3eVxuGQJ8oP5iwifAADu34lkARY8YCCxaWhk5Nurz+u4lwBgYGBQkJ935eKFivI6LJ90/+4dDGOPGDOO2GRzODPnzi8sLHjz+lWtWdUSNodDHqL79OhVkJ8nqaxUhHj79CSl1dPIyFjxSVl7RydLK+uszAzFAaPHTyJ+sFisWfMWioTCly9eAMDDe3c0lFuteUDUic8/XrJy+eKhwX2HhfQ7fuTQqu/XKeYBkT/Aamtnb2fnQFw+QyMjb58eTx49IHY9uBM5cuz4rt2634u8DQDSqqrnUU/8AoK1z4OxkTEAyGVyDYkyUqeDEY1LTk42l8cjT3UcMSBA8d/CWdPrGqGGJpFMXm4Om8XCatMKP131Dbmh0NBu+AcFl5YUJya8BoCHd+94dOg0fvK016/i8vNyAeDxw/uu7dzt7B3qkWFKHhAtzvUrl4xNTIiZlSwWKzCkf8TNMJlUqtnKtV31w2kej9fZyyurxkO7eeNKj569CE0TALp19zEzM0+Ii1MY2tXsohiSGy42h9PVu3tmFmq4WjXLPvn8r8PHggcOCg+78cniBUvmzQ6/cV2xl3xBu/foCQBZWRkAkJGelpqSNHnaDEU7MGDQUMWRWRnpr1/FDRs9htjEMCyo/8DX8cr6AwBcHm/a+x+cPHZULBICwJFDf3v7+FJW7NGQAQIcx7duWp+YkLBu028Kl6zW1AcOHY40zdbMzDnzY55FRT+LAoDIWzcL8vPHjJtUq5VfX/8+/QICg/tPmzXH3bPDl58svX3zBrHr5vWrA4cNV6y8GRw6UCQUZmZmEPGPGDNO4Ye7tnOnvMBrY2tL1jQB4Nb1ayPGjCM0TQDw8vbp2cfv4f3q+WpXL/03fNQYdZrm9csXD+3b8/WaH+nfc0cg3gnQ25qIFuPGzVsikej4qVM3blYrenK5/K8DB2ZOU74CFh3zwsevHwDIZDJ9fcG82bNnz5zBHF0NxLufSckpXbtUL+r82SfLhUIhADx89HjX3r+IQIlEcv/ho0dPnuTl52dlvQUAiaSKMcKU1DQA+PSLLy0tq18jLS4uEYnEAMDj8QL9/e89ePj+9GnhERG9e/paWVkG+vcLCw8fPnRI5N173l5e5uZmtaY4esTwf8+e/ezj5VKpNCw8fO3q1XUqSQRfwFcIhRmZ6dZ2dupmT2Smp5WVl61YulARkpOV5ebpCQCjxk5ISUrasWXzji2b+/j1GztxCvE6iWYy0lNtbG3Jybm5eWAYlpWVyWhOzqr2lJaWPHpw72VMtLC0lHBQpNIqskutQI/Pl9csaFAdoseXk76UxcKUA35HJxcuj0doUpmZGRrKrU55QNRKz95+PB7PzcPzzMnjAwYN6dnbj7w3Ljbm6eNHWZkZYpEwIz21qqp6mrl/UP+9u7bJpNKU5MQykai7j292VtY/B/5a9unKFzHPZTKZb686fP8nKysLAFzd3DQnykidDkY0IvaOTpUVFbk5OTa2tkTI+l9/J378e/xoZnqdZRoNTSIZR2cXiUSSnZWp+SsHhobGlBB17UanLl7mFpZPHz/0aN/h/t2IfoFBXbt5m5mZ378TMXLshEcP7vkFBDKlUHuG6XlAtCx/79kFAKtWVC8X/iL6uVwuf/LoIfGauTbw+QJZTb+ZmZ6e8Cr+48XzFXvFZWJRzXopGgwBICsj49GDe4kJr8rE4sjbt9Damq0fOwfHhUuWz1u09NmTx0cP/73+h2/ZXA7xEaEqiSTqyePnUU8KC/JzsrMBoEpSBQBZGRkAYK9mPZaM9HQA+HH1V2Y1a46XlpSIxWLKYUOGjzxx9PDJY0eHjRx95eL5zdv+oEelLgMEz6OeJie+GTJ8pKKt1iZ1IzWSE6KV4OLSrn/o4AN//blp687D+/dOnj5ToC+oKq3FBZowZZpCuJwxe+6qFcu2/7opMGRARXlFYUH+3p3bIsOrB8LE854ykUhcJi4pLqpTh1tWXlZYkK+YWEPg7tE+7NoVAJBUVubl5tjZM7+GKRaLdm75hS/Q79nHj/EABKL1g2RNRItx9sIFABgyaJAiJCU1LS8/PzUtzcW52h3R4/H+2LYVAKytrBwdHLR5BcPRwcFAX//6zZujR44gQhST1vMLCogfIpFowZJlUpls5LChvXx9ZTLZ8s8+Vxchn68HADOnTevQXjlwUqg/oQNCvlnzg0QiuXX7NnEugweGfrd2nUQiuXP33uCBodqkOHL48B1/7o6NiysqKmJhrEB/bX19BB0+X0D+1g0FQoabs2AxgFL7MzE1JXZ9uuqb+YuXRty6GR527bOPPvzo0y+G1yyHpA49PX5JSTE5pKpKguO4mXmjfUQl8c3rrz/7uHNXr15+/aytbe3tHf73z8FGiVkuk8mkUiKrmsut6fLQNpkybSbh4+rp8U8eOzJx6nTFl1K2btpw/07EiDHj+gUGGxoYvnqpfA2tb2DQji2b42JfPIt60qtvPy6P5x8c8sfvv8a/fPH4/r3uPr51Worr2ZNHJqZmxFuiGhKlU6eDEY2Lu4cnANy9fWvc5PeIkG7dq5d7Cw+7rkHWxFWfdijQ0CSqpOvpCQA3rl5WfKJKGzS0GxiG9Q0MevLowdgJk58+fjR30RIWi9UvOORuRPiAQUPiY18sXMz80TwtM4xoJbx8EQ0Avfr07dC5+kmzl7fPPwf23bx+RXtZkwxPT8/e0WmO6segHLT4pvD1yxd3bN08cMhwn569TUzNKisr8/Pz6pEBRPPDZrN9e/fp3sN36vhRd8JvBgSFlIlFq1Ysl8pkoYOGePv4ymSy779eSRzMF/ABoLSkhPGtND2+HgCMmzTVzcODHD81RQ5nxuy5O37bnJqc6NurN/39NQ0ZIPD26dGhY6drly8OGDTUu4dvnVJHtGZmfDB33sz3ftmwrrS0ZNSY8XU1Z7FYg4eN3PTTD7k52ebmFiwWyz84ZJTqylSubu4cDofFYgnVu+V0eBwui8UqVR2SVFZWmJpbAIBcLsdxXKzmCZCBgeGMOfM3//j90YP7ibUXEIh3DiRrIlqG7JycB48eb1j7w/ChQxSBUydNDBky7OKVq4pvi3fo0L5njx5q4mAGw7BF8+f9svX38xcvjRo+jPGYyHv3XsbH37sVJhAIAEAkEgFApUQ5o1ZSpXzi6uHuzmKxSoVCxpwE9vPHcfzW7Yio59Eb1q4FgCB/f5lMfunq1Zfx8evXfq9NivZ2tj17+FwPu5mfXzB08CAOB92Y9ce1nVtBft6r+JcKN5QobQI3N8KVxBVaAAVjE9MRY8aNGDPui4+X3L55QyFrSqTMD2Nd27kV5ueTk3vy8CGbzXZ317QCbJ24eO6Mrb2D4hPY5XWZI08nNTVZ8fXhZ0+f4DhOCCWay61x84BQMHnG+1cunt+943diaa2iosJLF87+uGmLb+/q9y6Ligpjo6OJ3+bmFh07d33y+OHjB/cmTplOhHTx8r4bcfvxwwfE6q5akpGeevbU8WWfrsQwTHOiBBJplWJXrQcjmg7PDh379PM/uH+3bx8/ZxdXbUyIZVvy8/Jc27kTIeT5v7U2iQTuHu39A4OPHTnUp2+/9p26aJlbze2Gf2DI6i8/vXcnwsrahvh+QlBI6FefLb99M8zE1MxTzTw4LTOMaCVcvfSfvaPT2o2/kgPFYtHl/85XlJcrVqCWav3Gdzs3j9Tkq27unuqmUqrj2D+HRo+b9EGNHnr+9Anyh7MQrR82h2NgaEjMyX304H7C6/h/L14nqhDxeUOJpBIAnF1cWSzW3Tu3FevtkhfMcWnnxmKxRCJhrQ1I/0FD9u/ZdTfi9o69f9P3asgAAYZhSz/5PD0tbd3qr37fvY9YUkP71BGtFjsHx8HDRl66cHbRsk/01H+cVgNyXM5isUxNzbg8npOTS0lREWN9cHB0vhsZTl64nPzJIDocLtfB0fluRPiwkdWrHOA4HvX4sWIhYwtLq6injxSrZlEYOHhoalLiof17Xd08+gUG1eO8EIiWBS0/hGgZzv93UU9Pr3+wSrtpamrap1fPi5dr+R56rcycNtW/b9+vv1vzzfc/PI16VlJaWlJaGvX8+T9Hj7FYLDaLJeALiA+mi8vKSkuFf+zZCwB6vOrptHZ2tkVFRbcj7wCAXC63MDefPGH8vgMHz134TyqVyuXyN4mJaenVqzXp6wv69um98dffOnXsQHzsSCAQBPr3W7dho7OTk6tL9RtYmlMEgFEjRly6ciUsPHzU8OENPP02TkBQiJ2D48Z137+Oi5VJpS9fRB89uJ9YIAkA+gUFu7l7/rrhx9iY5ziOV0kkL19EE3tfPH/26ME9wmlIT0tJSU5WrOxmY2v77PHjvNwc+vzxgKAQByfn6uRkstjo57u2bxk1boK5pdovX2lAJpVWSSTk/wCAzxdkpKU+j3oqk0qz32b9tObrehcOAPy9+4/oZ0+lVVXxsS+2/boxJHQQ8QkazeXWuHlAKDDQN3h/zoKH9+4+efQQAPR4PBaLFRl+szA/v0oiIVZf6tBZqe/4BwVfuXg+JTmpl1/1RKHAkAHn/j2RmpLk14/h+yoUZDJZelrKmZPHP5o/p29A0KChI2pNlPhE+43Ll+RyuVwurzWHiKZm+WdfGhubLJ0/++jB/W9ev6ooLy/Mz79/J/LO7VtcLhcAuFwei8XKzKzupGzs7C2trP/5ex+xruWDu3ciw2/hNa86amgSKSxZ8bmlpdUnSxf9vWfX67jYivLy0tKS6GdRD+5Gqsuq5nbD26cHn8/fveN3/8DqNWG9vLsbGRnt/P1XP/8AxafbKKejfYYRLY6ksjIi7MaAQUMo4UH9QyvKy+/fqa451rZ2EbfCysvKtVmhZdLUGVKp9Mfvviam/YpFwudPn2iTGb6A/yzqSWpKklwuj499cS8yglczLRTRCnl47+6f27c8efQwJ/ttmViUkpS4ef3avNycQUOGAQCfL5DL5WHXrpSVl4mEwkN//wUAPJ4eAJhbWPYfNOSfv/eGh12XSCRZGek/fLtKEa2ZmfmIMeOOHzl0/fJFmVQql8tTkhOzmNbWZ7FY36/f+M0P6909O9D3asiAAg6X++3a9QJ9/e+/+qKsvKxOqSOalKoqFU+b3PJo2KVg5tz5H6/8qtbpXHQI3/vooQPBAwYSkujMOfOjn0X9uWMrUUPycnNexVfPgJk0bcbDe3cP7tsjEgqLi4r272ZYCYHCezPef3T/3qF9e8QioUgo/HP7luzsrPdmvE/sHT1+4p3wWxfOnCIebSYmvCopLiKbf7Dgw559/Db9tCYlKbGup4ZAtDjopTBEy3D2woXQkBCBgDplcsjAgWt+/OllXHznTh3rHTmLxdq59bcz5y/s/mvfuQv/EYF6PF5IUNDa7741NTUN9O83YujQtes3/PjzRgAYMmigHsm7HRwaeur02aWfrDA0MFiyaOH096Z8uvwjPp+/5sefvv9pPY/LrZRIPlr8oWKVz9D+/cMjIqdNmUyO4XrYTbJoqzlFABgUOmD1D2vt7Wy9umr7IgyCETaH88OGTT+t+fajRfNYLJaFpVUvv77EV3EAgM1m//Dz5m2/bvp06SJ9gb5EWsXj6a35aWO37j4Jr18d3rdHXCbm6elJKiu7enefPb96+bZJU2c8fvhg1pTxPD29X3f8aWtrR05u7YZfNqxbQySHYdiYiZPnzP+QIWdacPLYkZPHjig2jU1Mj5+7NGnqjGdPHn/x8RIWi6XH1wvsP4C8an5dcXVz/+LjpRiG4Tg+YOCQpStWKk6EUm4jx064ef0qsbdx84AgM3Tk6LOnTuzetmXn/kP6BoYLl368d9f2SxfOslisTl28nJxdya9v9wsM3rNzW/cePRVLwgcEhezc+ou9o6NmJX3MkP4YhhEOup2D4/LPVwWHVn90RXOillbWk6bOOH7k0IXTp3x69vp23QbNOUQ0NeYWln/+feTw33+dPnHswF+7iUBDI6Pho8ZOmjYDALg8XvCAgXt3bjt36sTew8d4PN7Kb9asX/PN9Amjia+oe/v0wKBaNNTQJFLTNbfYtf/wgX27/zt7+n+HDxCBxsYmw0eP7aNGUtfcbrDZ7D79Am5cuaSQNVksVr/A4IvnzvT1V/ae9NPRMsOIFicy4pa4TDxgIFXW7NTFy9LK+uaNKyEDBwHA3IVLNv30/ZSxwwwNDA+fOqc5Thtb2582b9m66edZU8YZGRmLREJrG5udfx1UfFhDHQuXLF/33VcLZ01nsVhW1tY+vr00rLuCaHHYHE5qctLZUycUulI7d4/v128mVjPo5dd3wMAhv//y8/bfNgFA0IBQski9+ONPKysr1n//LYvF4gv0e/n5kVue+R8u09Pj/7Zp/ZbNG3gcbmWV5IP5iya+x/C9NXfPDoyaZq0ZUGBqZvbdTz+vWLJw07o1q9f9jGGY9qkjmo7xwweRN5d8/Jnig5kadikwN7cYOmJUHZIbMQgDwAGqJBIOlzt0xOi5C5cQuwJC+q/48pu9O7edOXHM0NBIKCztGxD43Y8bAWDQ0OEFebmH//7r6MH9HC6XeItCc0IDBg8tKi46sPfPIwf3A4CDo/PG37ZZWlkTeydMnlpcVLhz669/7vidw2Gz2Zxv127w9jFTmLNYrC+/W/vxwnlrvlr5++59xsYm2p8jAtHiYOqWW0Igmg6pVPosOtrFyZl4vZFMeXl5bFycs5OTtZVVUnKKRFLZsQOzS6F5rwJxWVlqapqJibGdrS1lac6c3Ny8/HwnR0cTY+OEN4lWVpamJtUtOI7jSSkpGGCuLs4KK4lEkpqWLpPLHB0cDA0MKHlu7+Gp+Hx5pUQS8+KFm2s7xfeCak0RAIaNGTd65AjFBPw2xcWwO7ZOzrYODN+9JYiLjTEztyA+fiqXy19EP3N1c1f0uMVFRWmpyZRJHDnZ2TJplb2j06F9eyLDb/154B/yXnGZODM9jc8X2Ns7KD4rLK2qysl+KywttbCyUnyZmkAikaSlJJuYmlpZ29AzAACFBflFhQVOLu3Irq2WWVWcY1WVynerOBwO8fFNuVyemZEmkUicnFx4enovnj/r7NWNxWLR48/Py83JftvFy1sRyav4l8bGJnb2DnK5/GVMdFfv7oX5+Xn5uY7OLgb6BkBDUW4yqTQ+LlYRlbo80GNAaKCwID8jPc3L20fxMhoA5GRn52RneXToqC/QBwCRUJiZmW5hYWlpZZ2XmyOtqiKvAR8b89zC0krxIWAAiI99YWRsrM7fJVIkfvMFAmdnVz7teVKtiebl5pQUFzu7VldvzQc3M9GPH7vYWXXybNdSGWCkorLyUtjdzt27G5k04cCgqKgwNyfb2sbWzExlMV8cx5OT3hgZGSvasSqJJC0txczU3NzSsrS0pDA/39XNnWzC2CSqozA/Py83x8TMzNqmumNlbBWhtnajID8vMyOdfDsUFhZkpKV27uJFzgP9dBgzrC4PiJYiKyO9uLiI/glpAEhNSRIJhYr+RSQUZmVl2Ns7GhoZlZaWpCQldu3WXVFPMtPTKiorKF/4KSwsyMvONjY1tbWzJ+pPrYYSiSQ9Nfn/7d13fFX13QfwAxkkYSUhAQIBAmEvFQFRERcioKi1rj5qbWtrq7Zqa3ef2mGHtmqHe7XaWrHWWhcoStU6EFFkgzLCXoEsRvZ4/sjTNA0huTK8OeH9fvEH94zf+Z7z+92bm0/OSEhIzOiZWVpWunnDhgGDDvwv6IdPdVX1e2+9efyxI7p3PZDLPg6frbk7585fMvakk9p8Uj/6y8vKcnO3Fe/Zk949o8GnXBAEO3fk5uXt7NEzs2PHTuty1qSmpdV/7+/aVbRzR25W3+wlixZ+54Zrn3zuxU6d/3MT3ory8s2bNlZVV3Xv0bPuu9CG9euqq6vq7tfRwK6iwnVrc+p/Xu2vgFUffdihQ4e6H4sbN6wryM+v+xG/v603WIvDof43ojqZmb1T09KanrV18+ZhI48KGlNVVbVsyaJG74zRoM2U1NRu3TL2fdhmdXX19q1bdu8qSuvWPTW1S/1Z5WVlGzes65nZOyExccumje0SErqkpQdBsHXzpj179jT6CVZZUbFhw7oGPzHrlJaUbNywvl1CQt2PzgZN1f4UzujRs9HVD9juosLlCxdNOe3EhHZOk+ewEGtCi7Bg0aIrvnjVc089WXfd+hFl9pvzOnVJy8zKOhyN/+h730xITPzeTTcfjsaB6PrgnXeG9O+T3adl/SpYVVX93Mv/GjhseEpal+aXBvi38rKyBXPnnjxuVGpKywro8wqK3pj7wTHjxu2by7Rkf//r409N/8v0Z2ZEuxA4chXszFu5bOk5Z54c43wIDg8DCwzDXqsAACAASURBVFqEZ1+YMWTwoCMz0wyCoFOHpJK9ew9Va6tXfrTyoxVVVVUV5eUvvfDc++/OvfjSzx6qxoGWo6KioqK8vGP7pGgX0lBMTNvExISS/Tx1FGB/ivcWB0HQoUOL+1jr2CEp+Hd5LVl+ft778+aWl5VVV1cvWbTgb9Mf83BniK6SvXuSkhJlmhw+7ocF0VdWVvbyK7OvuvLI/daVmtz5w9Xra2pq6l+Ze8CWLl708P13194Su1Pnzj+8+ZZ+h+655EDLsaugsE2bNimdO0W7kEakpXTeVVTYIzhC/1gFHJhdBQXt2yfFN3cviE9efFxc+/ZJuwoLkv/7DkstzdZNm371s5/sKiqsvcb2siu+sL+nPwOfjF1FhV2SW+JXNVoNsSZEX2VV1e/vuG3wwIHNL9pKde/aZcmHq3cVFnZOOQTflc+74KIzp07bsnlD7S203P8RWquCnbmpKZ3j4lril5nuXbtsXrSiorw8zgOXgcjU1NQU5O3s1b1l3VWzTkbXLpu27ezdr1+0C2nKsJFHTX/6+c2bN1VUlPfuneUTGKKrvLx8d2HRwD5Do10IrZnf9iH62icljR41qkOHDtEuJGo6tE/qktJ5+5bNh6rBxKTE7AGDevbqLdOE1qq8rKxgZ15WZka0C2lcRtf02NjY3K1bo10IEBpFBQWlJSW9W+rHWp/MjNKSksL8/GgX0oyY2NjefbKy+w+UaULU7di6NTY2NqOFPQONVsYv/ECLMDC7T8HOvF2FhdEuBAiHjTk5CYkJmRldo11I42Ji2mZnZW7dtLGivDzatQAhUFNTszEnp3vXtE4d2ke7lsZ16tC+e9e0jTk5HjkLRKKivHzrpo3ZWZkxMXInDiPDC2gRuqd36Z7eZf2q1b4rA83as6toZ27uyMH9W/IZ2QP69o6Pi9uYkxPtQoAQ2L5lS2lJyYjB2dEupCkjh/QvKynJ3bIl2oUAIbAhJ6ddXNyAvr2iXQitXMv9ZQA40owY0r+0tGTLhg3RLgRo0aqqKnNWruqalprRrUVf0xQT03bk4P47tm8vzMuLdi1Ai1ZSUrx5/br+Wb06tG9xz0Cvr31SYnZWr03r15WUtPRHogPRVZiXt3P79hGD+8fExES7Flo5sSbQUnRon3T0sIGb1q3bmZsb7VqAFqqmpmbNihU1lRWjRgyOdi3N69E9vW/vnqtXrCjeuyfatQAtVGVlxaqlSzsmJQ7u3yfatTRv8ICsTu3bf7R4SUVFRbRrAVqo4uK9qz/8sE9mRo/u6dGuhdZPrAm0IH0yM/pn9Vq78iM32QT2VVNTs27Vyl2FRccfOzIxoV20y4nIyKEDUpM7rVyytKykJNq1AC1OVVXlyqXLgpqa40ePDMU5TTFt2447dnjbNsGqZcuqqiqjXQ7Q4pSVlHy0eElK545HDx8U7Vo4Iog1gZZl+ODsHl3TPlqyZMe2bdGuBWhBqqqqVi1dmpebO/boocmdO0a7nEi1bdPmuGOGJybEL12wYHdRUbTLAVqQstLS5QsWVpSWnDB6ZLvwPLa7XXz8CaNHVpSWLF+wsKy0NNrlAC3I7qKipQsWJCXEjztmeNs2baJdDkeENp7OAbRAy1fmfLRmfUZmZmZWVtswnLwAHFbFe/fkrPioqrJ83KgRKcmdol3Ox1ZVVfX+ohXbduT17pfdtUdGG1/04YhXmJ+f8+FHiYnxJ4Tn9PP6SkrL5sxfXFJS3m/woOTU1GiXA0RZTU1N7patG3LWdE/vMvqoIaE4/ZzWQawJtFAbt2xftHxl27Yxmf36pXXtGu1ygOiorKzYuHbdjq1bUzp3GnP00KTEhGhXdIBqamo+XL1u5Zr1ie3b9+mf3bFzcrQrAqKjtLhkQ87qgrz8zIxux4wYFBvaX/4rq6oWLPlo09btKV1Se/frn5CUGO2KgOjYXVS4fvWakr17B2b3Gdw/y59v+SSJNYGWq6y8YvnKnPWbtiYmJqVldE9NS2uXENZEA/hYampqdhcV5e3YkZe7PS4mZtig7N49u0e7qENgz97ixStWbd+R3yk5Ob179+TU1Ni4uGgXBXwSqquqigoL87ZvK9iZ175D0tFDB6altoY/b+zML1y4fOXePcUpaV26dOveOTnZdTZwhKisqCjMz9+xbduuwsJu6akjhwzo0D4p2kVxxBFrAi1d0e49Oes3bdq6o7KyMj4+PiEpMTY2LvA3QGilaqqqKioqiov3VldVd+zQPqtXRlZmj9jYVvVLcm5eQc76Tdt35FdXVyckJrZLaBcTK9yEVqu6srK8vLy0uLgmCFKTO/Xt3TMzo2trOpuppqZm09bctRs25xfuahMECe2T4uPi28bGRrsu4DCpqaqsLCstKy0padu2bbf01H59Mrt2SYl2VRyhxJpAOFTX1OQXFBUU7d5bXFJRUeGjC1qrmJi28fFxnTq0T0tNbt+qL2msrKramVf7qVZaUeGBwtBqxcbGtGsX37ljh/TU5HbtQvNooANQVla+I7+waPeesrLyysqqaJcDHC5xcbFJCe06d+qQ1iUlvHfSoHUQawIAAAAAIdM22gUAAAAAAHw8Yk0AAAAAIGTEmgAAAABAyIg1AQAAAICQEWsCAAAAACEj1gQAAAAAQkasCQAAAACEjFgTAAAAAAgZsSYAAAAAEDJiTQAAAAAgZMSaAAAAAEDIiDUBAAAAgJARawIAAAAAISPWBAAAAABCRqwJAAAAAISMWBMAAAAACBmxJgAAAAAQMmJNAAAAACBkxJoAQAty7oUXX/mVq6NdRWt2SI5w7o4defn5h6Sew2TGSy+NHHPcgkWLol1Iy9XsSGj5vQwAHOFio10AAHB4zZn77vQnn8xZuy43N7dz5849e/Y45aSTPnXOtOTk5GiX1lLc+N3vvfLPV+tepqen9cvqO3BA/ysuu7RrevonX88LL774/Zt+HATB00883j87+5MvoGl79uyZet758fHxr896MT4+PtrlHLh5773/1DPPLF6yJC8vPyEhoVu3rsOHDp086Yzjxoxp06bNod1W031aOwIXv/fuAbdwyLWaXgYAWjFnawJAa3bLbbd/5WvX5eXln37KyV/+4pVnnjGxQ/v2Dzz8h4qKymiX1uLceP11N15/3de/9tVTJ0yoqKz4yxN/PfeCi57421ORt/DM8y9cdOnl27ZvP8hKnnthZkpKShAEM2e9fJBNHbx9dyohIaFvnz79+/WLi4uLYmEHo7Cw8Ac//skXr7l21arVRx911Oc/e/m5087u2yfrzTlzbrnt9kOeaQaHok8/4VGxby8fquFd55A3CAAcaZytCQCt1rvvvff4X5+88nNXXH/tNfWnV1VVxcTERKuqFuuKyy6t/3LJ0mU3/fTmX/zq1z0yMiaMPzGSFvLz8z9cubKiouJgytiemzvv/fdvvP66p5959qWXX7numihfkr/vTsXGxv7t8ceiWNJBqq6uvvbr39i0ecsvb/7JWZMnN5hbtGvXId/iwffpJz8q9u3lQzK8D2uDAMCRxtmaANBqzXt/fhAE55w1tcF0mWYkRgwfds/vf9uuXbtf/OpXpaWln9h2n5/5YhAEk884Y9IZEzdt3rxk6bJPbNNHiD8/Pn3J0mW//GkjmWYQBJ07dTrkWzz4PjUqAAD25WxNAGi1EhMTgyBYtGRp36ysJhZbvWbNXffdv3TZ8orKyhHDhl53zTUDB/Svm3vuhReffsrJJ55w/KOP/WX+goXHjRn9/W9/64yzpp1y0km/+fWtdYtVV1efNmXq6FGjbvvlLw6s2TtuveXAKty6bdvDjzw6d9687dtzE5OS+vfrd8NXrx05YnjTsyKR0b375Z+55KFHHl2waPHxx40tLS2dOevlF2e9vG79+sKioswePSadMfHzl1+WkJAQBMEVX7pqwcJFQRCc9alPB0EwcsTwx/7wcNOrNOr5GTPHHHtsenrapImn3/vAgzNnzRoxfFj9Bc698OJzzpqakpw8a/bsZStWdOrY6dSTJ1z75S8nJSUGQfCxtrhj584zzpp22ikn1z/41dXVp08565ijj7rj1lsa3anaGtK6pD583711a+Xl5995z70LFy/evGVr927dxp9w/DdvuD4mJiaSLmi25qZ3udaatWvvuue+pcuX7927d+SI4YMGDmz08JaXl9/zwIOnTDjphHHH7a8L6mt2GDdbWBBBnzYrklGxvzfU/rqmdu4LL774wosvLV22bN/i6/fy/kZCs4dofwV84StXN9rgyDHHXfTp8//3u9+pW/3HP//F0888W3fj0Sb2tNlKAIBWRqwJAK3WqSdPeODhP9z8y1u2btt21uTJvXtl7rvMnHfmXv/Nbw0fNuyzl/5PRUXF8zNnXvLZK/7yxz8MGTyobplnnn/h8SefHD1q1NlTJvfPzk7r0mX8CSe8NWfO3uLi9klJtcu8+977+fkF55599gE3u7+9aLqpwqKiz1/15fLyitNOOTm7X7/NW7asXrOmNpdpYlbkRh1zdPDIozlr1x5/3NjCoqLf3X3PuLFjjj5qZJsgWLh4yb0PPLhhw8Zf3vyTIAiuuepLt//29x+uXPm1q7/Sq1dmcufOtTU0scq+lixdtnbdus9/9vIgCLL79s3u12/WK7O/9fUb2rb9zxU2NTU1v7v7np49ekwYf+Lx48bN/2DBnx+fvmnz5t/d9uuPu8X0tLTjjzvurTnvlJaW1mWI8xcszMvPnzZ16v52al+rVq/54jXXxsXGTjlzUtf09E2bN+esXRsTExNhFzRbc9O7HATBvPfnf/Xr30hNSTl76pS42Nh33p33xz/9udFSFy5eUlJScvTIkY3ObaDZYdxsYUFkfdq0CFto9A21v64JgqC6uvq9+R9s3LR5wknjx40d22jxdfY3Epo9RPsrIMKh1ahG9zSSzxwAoLWpAQBar/fmz7/8C18cMXrsiNFjL7rs8if+9rfi4uK6uaVlZZPPOe+a62+orq6unVJSUjL5nPO+ePW1dcucc8FFI0aPfWvOnPrNzn7ttRGjxz4/c2bdlJt+evNpk6dWVVUdTLO107/w5a9EXuGMF18aMXrsu/Pe23ffm5jVwDe+890Ro8c2OmvDxo0jRo+9+Ze31L6sK6PW92/60YjRYwuLimpfPvzIoyNGj92wcWP9ZZpepYGbb7n12BPG7969u/blvQ8+tO8u1B66kpKS/7T5ox/X327TW2xwhGe+NGvE6LGv/PPVuik/u+VX40+bWF5e3sRONWjkii9dNfW884uKdjXYnci7oNmam9jlysrKcy+86NwLL6o7bjU1NadMmjxi9NgPFi5ssKFnn39hxOixs197rf7Ex6Y/Uf9fbcGRD+Mm+qImsj5tYgRG2ML+3lD765q6VeoftAbFN+jlfUdCJIeoiQIaHVr13261fvSzn9c/OI3uaSSVAACtj3trAkBrNnrUqD89/OD0Pz3yqXOmbdy0+ee3/vr0qWffff8DtXOXLF26ecuWC88/v+7RzwkJCadMOGnZ8uX1G+mRkXHi8cfXn3Ly+PEpKSmzXpld+7KiomL2a6+fPXVK7eljB9zsvpptKr5dfBAEL73ySnFxSYN1m5j1cdVdsdvgGdljx4wOgmDDho1NrBv5KuXl5S+9/PKE8Sd26NChdsqk008PgmDmyw2ffD3m2FH1Lyo/dcKEIAhy1q47gCJPO+Xk9klJr7z6au3L6urq2a++OnnSpMifcr5y1eoPFiy84rJLO3Xq2GBW5F3QbM1N7PLS5ctz1q678nOfqztuQRB88+vXN7qh2v3avXtP/Ym33n5H/X8v//OfQcTDuOm+iLxP9yfyFvZ9QzXRNXXF1z9oDYpvVrOHqNkCDsy+exphZwEArYyL0AGg9Rs2ZMhPfvi/P/jOt994++07fnfn/Q893LlTp8s+c0lOztogCK678ZsNlm8QafXskdFggdjY2LMmn/nXp/6+e/fujh07vv3O3N27d59z9lm1cw+42X0129TJ48dPPO3Up/7xzLMvzBg96pgpZ545ZdIZ7dq1a3pW5DZs3BgEQUbG/5e6t7h4xswX3547N2ftut17dufnFwRBUFlV2UQLka/y+htv7tq1u6Cg8C9P/LX+9KefefYH3/5WEzljx44dgiCoe6L0xyqyXbt2kyae/vLsf5aXl8fHx//7CvQpTexRAzlr1wZBMKB/I7cRiLwLPu6Brb/L69avD4Jg0IABkVRbe81yTk5O/Yl1923cs2fPCaee/v/7FdkwbqKw4CD6tE7kLez7hmqiayIpvlnNHqKPW0CEGtnTA+osACDsxJoAcKSIj4+feOqpw4cOPXPaua++/q/LPnNJUvukIAiuuvILp518cv0l28Y0fz3HedOmPTb9iX++/q/zpp1d+wCT7L59a2cdTLMNNNtUXFzcHbfesmHjxmeef+H1N9686ac33/7b3/3m17eOHjWqiVmRF7Bg0eIgCMaNHRMEQUFBwZVXX1tYWHjpJRdfevHFqakpr7/51u/vvqeJ1T/WKs/NmBEEwfwFC+YvWNBg1tvvzD1lwkmRFHwARZ49deo/nnv+nXfnnXzS+Jdn/7N3r8zIn6oUBEFBYWEQBDXVNfvOirALDqDm+srLK4IgKK8oj2ThrD69Y2Nj//XW29dde01sbFPfhA/JMD74Pj2YFpromkOi2UN0uAuIvBIAoFUSawLAkaV7t27JycmVlZVBENQ+Ib2kpGTokMEft52BA/oPHTJ41iuzJ58x8V9vvnXj9dfVzTqYZhuIsKnevXpdd83V111z9fIVH37x6mvuvOe+Rx96oNlZzdqxY+efH58+aeLpgwcODIJg9muvr16z5u/TH687++yjVauCIAj2H9pEvkpefv7b78w9/9xzfvy/P6g/fe26dedeePHMWbMijDUPoMjRo47pkdH9lVdfPenEE2a/+urFF14QyYbq9MrsGQTBqjWrRx1zdKMLNNsFB1BzfVl9+gRBsHjJ0uFDhza7cFxc3CUXXvDY9CcefewvV37uiiaWPPhhfPB9epAtNNs1B6nZQ3QABcTFxe3es6f55T5mJQBAq+QPmADQam3ZujV3x44GE1+c9XJBQUHtvQuHDBo0eNCgJ5/6+/+nSB/TedOmzZ037x/PPV9dVTVl0hl10w+m2TZtgtKyssibqqn5r+hr6JDBWVlZxcXFTc+KxKrVa6694esxMTHfufEbtVMKCgqCIKhNhGvNeHFWEATBv28LmZSUFATB6jX/ucC52VXqTX+pqqpq6uTJDab3zcoa0D/79TfeLCmJ6A6hzW6xwREOgqBNmzZnTZny+htvvPve+3n5+WdP+a8a9t2pBoYPHdo+KenRxx7fs3dvg1kRdkHkR6lRI4YNTU9Pe/jRR+uP9j8/Pn1/y3/t6q/0yMi48977fn/3PeXl/3WOZ35BQd3/D/LdERyKPj3IFpromgOw70ho9hA1XUCjQyurT+/3539Qt1/V1dVPP/Nss7UdfGcBAGHkbE0AaLV+e9fds16ZPXjQwIH9B3Tr1rW8vHz5ihXz3p8/fNiwL33h80EQtG3b9qbvf/eqa7922ee+cNEFnx46ZHB5ecWChQuPHXXMuWef3Wz7U88887bf/u6Xv75t8qQzOnb8zyNBDqbZ3r16vfn2nL89/Y/BAweOGD6s2aaenzHzoUcePfH4cZk9ewZB8N78+UuXLfvG9dc1PatRtfcurKmp2bpt25qcnPfmf5Ddr98f7rsnPS2tdoEJ40+898GHrr7++jNOO71XZs/5Cxa8NWdO/RbGHDsqJibm9t/9fntubts2bS664NPNrlLnuRkz0tPTRo86Zt9ZZ06ceNd997/+xptTzpzU9NGLpMgGR7h24rSpUx78wx9/dsutxxx1VO3hamKnGmwxOTn5a9dcfcttt1982WcvPP9TXdPTN2zatGz5ijvvuC3CLoj8KDUqISHh29/4+nd+8MMLL738nLOmpqakzF+wYPmKD/e3fGJi4gN33/mjm3/+0COPPjdj5sjhw7Oz+5WVlq5dv+GNt95KSUkZf8IJwUG/O4JD0acH2UITXRNJ/Q3sOxKaPURNF9Do0LrsM5/50c0/u/TzV06bOqW4pOTtOe9EUtvBdxYAEEZiTQBotX743e8cf9xxr77++sLFi7dt396pY8fMzJ4//N53z5t2dt2TNIYPHfrsk3+967775sx998mn/p6cnDxk8KAeGT0iab9Tp44Txp84+9XXztsnODjgZm/46le3bc/9ze/vnDplcm3o1nRTAwcOOG7MmLnvztu+Y0dNdXWvXr1++L3vXnj+p5qe1ahbb78jCIK2bdv26d17QP/sb95w/UWfPr/uGehBEAweNOi3v771ngcefPaFF1JTUsaNHfP4o3+87PNX1i2Q3a/fr37+s3vuf+A3d96V3bfv6aed2uwqtT5cuXLlqtVXXHZp7aPkG5g08fS77rt/5qyXI4k1m93ivkc4CIKsPn1GDB+2ZOmyz11+WYMG992pLqmpDZb5n4svyuzZ849/+vPDjzxaVV2d2aPHGaefVl1dHWEXRHiUmnDmxIlpXbrc9+DD/3juuZiY2PHHj3vysT9d8tnP7W/53r16/eH+e5+bMWPO3HdXr1nz1jvvdE1Pz+rT+8brr7v4gk/XPdToYN4dB9+nh2RU7K9rGm2zaY2OhGYPURMFNNrgp86ZVlNd/efHp9//8MP9s7MnnDT+fy656Ps3/bjZ8g6mswCAkGrT4OIgAACOQLfefseTf3/6tZde7NSpY/NLAwBAtLm3JgDAka66unr2q6+dMG6cTBMAgLAQawIAHOnmvf/+9tzc+s99AgCAFk6sCQBwpHv2+Rnt2rU7ZcKEaBcCAACREmsCABzR9uzdO/u11yaMPzEpKTHatQAAQKQ8MggAAAAACBlnawIAAAAAISPWBAAAAABCRqwJAAAAAISMWBMAAAAACBmxJgAAAAAQMmJNAAAAACBkxJoAAAAAQMiINQEAAACAkBFrAgAAAAAhI9YEAAAAAEJGrAkAAAAAhIxYEwAAAAAIGbEmAAAAABAyYk0AAAAAIGTEmgAAAABAyIg1AQAAAICQEWsCAAAAACEj1gQAAAAAQkasCQAAAACEjFgTAAAAAAgZsSYAAAAAEDJiTQAAAAAgZMSaAAAAAEDIiDUBAAAAgJARawIAAAAAISPWBAAAAABCRqwJAAAAAISMWBMAAAAACBmxJgAAAAAQMmJNAAAAACBkxJoAAAAAQMiINQEAAACAkBFrAgAAAAAhI9YEAAAAAEJGrAkAAAAAhIxYEwAAAAAIGbEmAAAAABAyYk0AAAAAIGTEmgAAAABAyIg1AQAAAICQEWsCAAAAACEj1gQAAAAAQkasCQAAAACEjFgTAAAAAAgZsSYAAAAAEDJiTQAAAAAgZMSaAAAAAEDIiDUBAAAAgJARawIAAAAAISPWBAAAAABCRqwJAAAAAISMWBMAAAAACBmxJgAAAAAQMmJNAAAAACBkxJoAAAAAQMiINQEAAACAkBFrAgAAAAAhI9YEAAAAAEJGrAkAAAAAhIxYEwAAAAAIGbEmAAAAABAyYk0AAAAAIGTEmgAAAABAyIg1AQAAAICQEWsCAAAAACEj1gQAAAAAQkasCQAAAACEjFgTAAAAAAgZsSYAAAAAEDJiTQAAAAAgZMSaAAAAAEDIiDUBAAAAgJARawIAAAAAISPWBAAAAABCRqwJAAAAAISMWBMAAAAACBmxJgAAAAAQMmJNAAAAACBkxJoAAAAAQMiINQEAAACAkBFrAgAAAAAhI9YEAAAAAEJGrAkAAAAAhIxYEwAAAAAIGbEmAAAAABAyYk0AAAAAIGTEmgAAAABAyIg1AQAAAICQEWsCAAAAACEj1gQAAAAAQkasCQAAAACEjFgTAAAAAAgZsSYAAAAAEDJiTQAAAAAgZMSaAAAAAEDIiDUBAAAAgJARawIAAAAAISPWBAAAAABCRqwJAAAAAISMWBMAAAAACBmxJgAAAAAQMmJNAAAAACBkxJoAAAAAQMiINQEAAACAkBFrAgAAAAAhI9YEAAAAAEJGrAkAAAAAhIxYEwAAAAAIGbEmAAAAABAyYk0AAAAAIGTEmgAAAABAyIg1AQAAAICQEWsCAAAAACEj1gQAAAAAQkasCQAAAACEjFgTAAAAAAgZsSYAAAAAEDJiTQAAAAAgZMSaAAAAAEDIiDUBAAAAgJARawIAAAAAISPWBAAAAABCRqwJAAAAAISMWBMAAAAACBmxJgAAAAAQMmJNAAAAACBkxJoAAAAAQMiINQEAAACAkBFrAgAAAAAhI9YEAAAAAEJGrAkAAAAAhIxYEwAAAAAIGbEmAAAAABAyYk0AAAAAIGTEmgAAAABAyIg1AQAAAICQEWsCAAAAACEj1gQAAAAAQkasCQAAAACEjFgTAAAAAAgZsSYAAAAAEDJiTQAAAAAgZMSaAAAAAEDIiDUBAAAAgJARawIAAAAAISPWBAAAAABCRqwJAAAAAISMWBMAAAAACBmxJgAAAAAQMmJNAAAAACBkxJoAAAAAQMiINQEAAACAkBFrAgAAAAAhI9YEAAAAAEJGrAkAAAAAhIxYEwAAAAAIGbEmAAAAABAyYk0AAAAAIGTEmgAAAABAyIg1AQAAAICQEWsCAAAAACEj1gQAAAAAQkasCQAAAACEjFgTAAAAAAgZsSYAAAAAEDJiTQAAAAAgZMSaAAAAAEDIiDUBAAAAgJARawIAAAAAISPWBAAAAABCRqwJAAAAAISMWBMAAAAACBmxJgAAAAAQMmJNAAAAACBkxJoAAAAAQMiINQEAAACAkBFrAgAAAAAhI9YEAAAAAEJGrAkAAAAAhIxYEwAAAAAIGbEmAAAAABAyYk0AAAAAIGTEmgAAAABAyIg1AQAAAICQEWsCAAAAACEj1gQAAAAAQkasCQAAAACEjFgTAAAAAAgZsSYAAAAAEDJiTQAAAAAgZMSaAAAAAEDITsbSKQAAADdJREFUiDUBAAAAgJARawIAAAAAISPWBAAAAABCRqwJAAAAAISMWBMAAAAACBmxJgAAAAAQMv8HPzmqEWpK57IAAAAASUVORK5CYII=" vertex="1" parent="1">
          <mxGeometry x="40" y="40" width="600" height="400" as="geometry" />
        </mxCell>
      </root>
    </mxGraphModel>
  </diagram>
</mxfile>